RecursiveMonoVar-StrictBoldItalic.ufo
<glyph name="exclam" format="1">
  <advance width="600"/>
  <unicode hex="0021"/>
  <outline>
    <contour>
      <point x="352" y="281" type="line"/>
      <point x="381" y="355"/>
      <point x="410" y="428"/>
      <point x="439" y="502" type="curve"/>
      <point x="486" y="689" type="line" smooth="yes"/>
      <point x="487" y="696"/>
      <point x="483" y="700"/>
      <point x="477" y="700" type="curve" smooth="yes"/>
      <point x="414" y="700"/>
      <point x="365" y="700"/>
      <point x="327" y="700" type="curve"/>
      <point x="318" y="662"/>
      <point x="309" y="627"/>
      <point x="300" y="590" type="curve" smooth="yes"/>
      <point x="278" y="502" type="line"/>
      <point x="254" y="291"/>
      <point x="254" y="288"/>
      <point x="257" y="284" type="curve" smooth="yes"/>
      <point x="259" y="282"/>
      <point x="261" y="281"/>
      <point x="265" y="281" type="curve"/>
    </contour>
    <contour>
      <point x="324" y="-9" type="curve"/>
      <point x="368" y="166" type="line" smooth="yes"/>
      <point x="369" y="172"/>
      <point x="366" y="177"/>
      <point x="360" y="177" type="curve" smooth="yes"/>
      <point x="302" y="177"/>
      <point x="241" y="177"/>
      <point x="184" y="177" type="curve"/>
      <point x="140" y="2" type="line" smooth="yes"/>
      <point x="138" y="-4"/>
      <point x="142" y="-9"/>
      <point x="148" y="-9" type="curve" smooth="yes"/>
      <point x="205" y="-9"/>
      <point x="267" y="-9"/>
    </contour>
  </outline>
</glyph>
<glyph name="quotedbl" format="1">
  <advance width="600"/>
  <unicode hex="0022"/>
  <outline>
    <contour>
      <point x="278" y="450" type="curve"/>
      <point x="373" y="737" type="line" smooth="yes"/>
      <point x="376" y="746"/>
      <point x="372" y="750"/>
      <point x="366" y="750" type="curve" smooth="yes"/>
      <point x="321" y="750"/>
      <point x="272" y="750"/>
      <point x="217" y="750" type="curve"/>
      <point x="211" y="714"/>
      <point x="205" y="683"/>
      <point x="200" y="648" type="curve" smooth="yes"/>
      <point x="168" y="461" type="line" smooth="yes"/>
      <point x="167" y="454"/>
      <point x="171" y="450"/>
      <point x="177" y="450" type="curve" smooth="yes"/>
      <point x="211" y="450"/>
      <point x="244" y="450"/>
    </contour>
    <contour>
      <point x="524" y="450" type="curve"/>
      <point x="619" y="737" type="line" smooth="yes"/>
      <point x="622" y="746"/>
      <point x="618" y="750"/>
      <point x="612" y="750" type="curve" smooth="yes"/>
      <point x="568" y="750"/>
      <point x="518" y="750"/>
      <point x="464" y="750" type="curve"/>
      <point x="414" y="461" type="line"/>
      <point x="414" y="454"/>
      <point x="418" y="450"/>
      <point x="424" y="450" type="curve" smooth="yes"/>
      <point x="458" y="450"/>
      <point x="490" y="450"/>
    </contour>
  </outline>
</glyph>
<glyph name="numbersign" format="1">
  <advance width="600"/>
  <unicode hex="0023"/>
  <outline>
    <contour>
      <point x="323" y="720" type="curve"/>
      <point x="212" y="474"/>
      <point x="100" y="226"/>
      <point x="-10" y="-20" type="curve"/>
      <point x="21" y="-20"/>
      <point x="52" y="-20"/>
      <point x="83" y="-20" type="curve"/>
      <point x="90" y="-20"/>
      <point x="96" y="-19"/>
      <point x="100" y="-9" type="curve" smooth="yes"/>
      <point x="208" y="230"/>
      <point x="317" y="470"/>
      <point x="424" y="709" type="curve" smooth="yes"/>
      <point x="428" y="718"/>
      <point x="424" y="720"/>
      <point x="417" y="720" type="curve" smooth="yes"/>
      <point x="387" y="720"/>
      <point x="353" y="720"/>
    </contour>
    <contour>
      <point x="548" y="720" type="curve"/>
      <point x="437" y="474"/>
      <point x="325" y="226"/>
      <point x="215" y="-20" type="curve"/>
      <point x="244" y="-20"/>
      <point x="279" y="-20"/>
      <point x="308" y="-20" type="curve"/>
      <point x="315" y="-20"/>
      <point x="321" y="-19"/>
      <point x="325" y="-9" type="curve" smooth="yes"/>
      <point x="433" y="230"/>
      <point x="542" y="470"/>
      <point x="649" y="709" type="curve" smooth="yes"/>
      <point x="653" y="718"/>
      <point x="649" y="720"/>
      <point x="642" y="720" type="curve" smooth="yes"/>
      <point x="613" y="720"/>
      <point x="577" y="720"/>
    </contour>
    <contour>
      <point x="624" y="438" type="line"/>
      <point x="627" y="451"/>
      <point x="644" y="517"/>
      <point x="647" y="530" type="curve" smooth="yes"/>
      <point x="648" y="533"/>
      <point x="648" y="536"/>
      <point x="646" y="538" type="curve" smooth="yes"/>
      <point x="645" y="540"/>
      <point x="642" y="541"/>
      <point x="639" y="541" type="curve"/>
      <point x="130" y="541" type="line"/>
      <point x="127" y="528"/>
      <point x="110" y="462"/>
      <point x="107" y="449" type="curve" smooth="yes"/>
      <point x="105" y="443"/>
      <point x="109" y="438"/>
      <point x="115" y="438" type="curve"/>
    </contour>
    <contour>
      <point x="18" y="254" type="line"/>
      <point x="15" y="241"/>
      <point x="0" y="183"/>
      <point x="-3" y="170" type="curve" smooth="yes"/>
      <point x="-4" y="167"/>
      <point x="-4" y="164"/>
      <point x="-2" y="162" type="curve" smooth="yes"/>
      <point x="-1" y="160"/>
      <point x="2" y="159"/>
      <point x="5" y="159" type="curve"/>
      <point x="514" y="159" type="line"/>
      <point x="517" y="172"/>
      <point x="532" y="230"/>
      <point x="535" y="243" type="curve" smooth="yes"/>
      <point x="537" y="249"/>
      <point x="533" y="254"/>
      <point x="527" y="254" type="curve"/>
    </contour>
  </outline>
</glyph>
<glyph name="percent" format="1">
  <advance width="600"/>
  <unicode hex="0025"/>
  <outline>
    <contour>
      <point x="259" y="626" type="curve"/>
      <point x="301" y="626"/>
      <point x="316" y="601"/>
      <point x="305" y="558" type="curve" smooth="yes"/>
      <point x="295" y="518" type="line" smooth="yes"/>
      <point x="284" y="471"/>
      <point x="256" y="444"/>
      <point x="214" y="444" type="curve" smooth="yes"/>
      <point x="181" y="444"/>
      <point x="169" y="445"/>
      <point x="144" y="448" type="curve"/>
      <point x="125" y="395"/>
      <point x="147" y="359"/>
      <point x="192" y="359" type="curve" smooth="yes"/>
      <point x="286" y="359"/>
      <point x="364" y="421"/>
      <point x="387" y="513" type="curve" smooth="yes"/>
      <point x="398" y="560" type="line" smooth="yes"/>
      <point x="422" y="653"/>
      <point x="375" y="710"/>
      <point x="281" y="710" type="curve" smooth="yes"/>
      <point x="264" y="710"/>
      <point x="257" y="695"/>
    </contour>
    <contour>
      <point x="214" y="444" type="curve"/>
      <point x="173" y="444"/>
      <point x="158" y="469"/>
      <point x="169" y="512" type="curve" smooth="yes"/>
      <point x="178" y="551" type="line" smooth="yes"/>
      <point x="190" y="599"/>
      <point x="217" y="626"/>
      <point x="259" y="626" type="curve" smooth="yes"/>
      <point x="293" y="626"/>
      <point x="304" y="625"/>
      <point x="330" y="621" type="curve"/>
      <point x="348" y="674"/>
      <point x="327" y="710"/>
      <point x="281" y="710" type="curve" smooth="yes"/>
      <point x="188" y="710"/>
      <point x="110" y="648"/>
      <point x="87" y="556" type="curve" smooth="yes"/>
      <point x="76" y="510" type="line" smooth="yes"/>
      <point x="52" y="416"/>
      <point x="99" y="359"/>
      <point x="192" y="359" type="curve" smooth="yes"/>
      <point x="210" y="359"/>
      <point x="217" y="374"/>
    </contour>
    <contour>
      <point x="426" y="256" type="curve"/>
      <point x="467" y="256"/>
      <point x="483" y="231"/>
      <point x="472" y="189" type="curve" smooth="yes"/>
      <point x="462" y="149" type="line" smooth="yes"/>
      <point x="450" y="101"/>
      <point x="423" y="74"/>
      <point x="381" y="74" type="curve" smooth="yes"/>
      <point x="347" y="74"/>
      <point x="336" y="75"/>
      <point x="310" y="79" type="curve"/>
      <point x="292" y="26"/>
      <point x="314" y="-10"/>
      <point x="359" y="-10" type="curve" smooth="yes"/>
      <point x="453" y="-10"/>
      <point x="530" y="52"/>
      <point x="553" y="144" type="curve" smooth="yes"/>
      <point x="565" y="190" type="line" smooth="yes"/>
      <point x="588" y="284"/>
      <point x="542" y="341"/>
      <point x="448" y="341" type="curve" smooth="yes"/>
      <point x="430" y="341"/>
      <point x="424" y="326"/>
    </contour>
    <contour>
      <point x="381" y="74" type="curve"/>
      <point x="340" y="74"/>
      <point x="325" y="100"/>
      <point x="335" y="143" type="curve" smooth="yes"/>
      <point x="345" y="182" type="line" smooth="yes"/>
      <point x="357" y="229"/>
      <point x="384" y="256"/>
      <point x="426" y="256" type="curve" smooth="yes"/>
      <point x="460" y="256"/>
      <point x="471" y="255"/>
      <point x="497" y="252" type="curve"/>
      <point x="515" y="305"/>
      <point x="494" y="341"/>
      <point x="448" y="341" type="curve" smooth="yes"/>
      <point x="355" y="341"/>
      <point x="277" y="279"/>
      <point x="254" y="187" type="curve" smooth="yes"/>
      <point x="242" y="140" type="line" smooth="yes"/>
      <point x="219" y="47"/>
      <point x="266" y="-10"/>
      <point x="359" y="-10" type="curve" smooth="yes"/>
      <point x="377" y="-10"/>
      <point x="384" y="5"/>
    </contour>
    <contour>
      <point x="393" y="405" type="curve"/>
      <point x="414" y="405"/>
      <point x="438" y="405"/>
      <point x="471" y="405" type="curve" smooth="yes"/>
      <point x="476" y="405"/>
      <point x="479" y="406"/>
      <point x="483" y="412" type="curve" smooth="yes"/>
      <point x="551" y="507"/>
      <point x="620" y="602"/>
      <point x="688" y="697" type="curve" smooth="yes"/>
      <point x="694" y="705"/>
      <point x="691" y="710"/>
      <point x="683" y="710" type="curve" smooth="yes"/>
      <point x="639" y="710"/>
      <point x="612" y="710"/>
      <point x="560" y="710" type="curve"/>
      <point x="505" y="608"/>
      <point x="449" y="507"/>
    </contour>
    <contour>
      <point x="247" y="296" type="curve"/>
      <point x="226" y="296"/>
      <point x="203" y="296"/>
      <point x="170" y="296" type="curve" smooth="yes"/>
      <point x="165" y="296"/>
      <point x="162" y="295"/>
      <point x="158" y="289" type="curve" smooth="yes"/>
      <point x="90" y="194"/>
      <point x="21" y="99"/>
      <point x="-47" y="4" type="curve" smooth="yes"/>
      <point x="-53" y="-4"/>
      <point x="-50" y="-9"/>
      <point x="-42" y="-9" type="curve" smooth="yes"/>
      <point x="2" y="-9"/>
      <point x="29" y="-9"/>
      <point x="81" y="-9" type="curve"/>
      <point x="136" y="93"/>
      <point x="192" y="194"/>
    </contour>
  </outline>
</glyph>
<glyph name="ampersand" format="1">
  <advance width="600"/>
  <unicode hex="0026"/>
  <outline>
    <contour>
      <point x="435" y="709" type="curve" smooth="yes"/>
      <point x="286" y="709"/>
      <point x="186" y="631"/>
      <point x="163" y="538" type="curve" smooth="yes"/>
      <point x="151" y="491"/>
      <point x="206" y="481"/>
      <point x="278" y="481" type="curve"/>
      <point x="281" y="493"/>
      <point x="285" y="511"/>
      <point x="289" y="526" type="curve" smooth="yes"/>
      <point x="296" y="555"/>
      <point x="327" y="580"/>
      <point x="393" y="580" type="curve" smooth="yes"/>
      <point x="450" y="580"/>
      <point x="484" y="572"/>
      <point x="529" y="559" type="curve"/>
      <point x="548" y="559" type="line"/>
      <point x="557" y="598"/>
      <point x="567" y="636"/>
      <point x="577" y="675" type="curve"/>
      <point x="578" y="680"/>
      <point x="578" y="683"/>
      <point x="576" y="685" type="curve" smooth="yes"/>
      <point x="569" y="695"/>
      <point x="518" y="709"/>
    </contour>
    <contour>
      <point x="303" y="454" type="curve" smooth="yes"/>
      <point x="286" y="489"/>
      <point x="283" y="504"/>
      <point x="289" y="526" type="curve" smooth="yes"/>
      <point x="294" y="548"/>
      <point x="303" y="575"/>
      <point x="324" y="600" type="curve"/>
      <point x="227" y="600"/>
      <point x="172" y="575"/>
      <point x="163" y="538" type="curve" smooth="yes"/>
      <point x="162" y="534" type="line" smooth="yes"/>
      <point x="148" y="478"/>
      <point x="155" y="444"/>
      <point x="201" y="350" type="curve" smooth="yes"/>
      <point x="253" y="244"/>
      <point x="320" y="109"/>
      <point x="340" y="66" type="curve" smooth="yes"/>
      <point x="367" y="10"/>
      <point x="396" y="-10"/>
      <point x="449" y="-10" type="curve" smooth="yes"/>
      <point x="498" y="-10" type="line" smooth="yes"/>
      <point x="506" y="-10"/>
      <point x="510" y="-6"/>
      <point x="512" y="1" type="curve" smooth="yes"/>
      <point x="527" y="63"/>
      <point x="531" y="77"/>
      <point x="542" y="123" type="curve"/>
      <point x="537" y="123" type="line"/>
      <point x="527" y="123"/>
      <point x="516" y="123"/>
      <point x="505" y="123" type="curve" smooth="yes"/>
      <point x="476" y="123"/>
      <point x="465" y="127"/>
      <point x="448" y="158" type="curve" smooth="yes"/>
      <point x="428" y="197"/>
      <point x="373" y="312"/>
    </contour>
    <contour>
      <point x="145" y="-9" type="curve" smooth="yes"/>
      <point x="236" y="-9"/>
      <point x="293" y="32"/>
      <point x="341" y="87" type="curve" smooth="yes"/>
      <point x="353" y="102"/>
      <point x="352" y="107"/>
      <point x="322" y="170" type="curve"/>
      <point x="269" y="121"/>
      <point x="239" y="105"/>
      <point x="196" y="105" type="curve" smooth="yes"/>
      <point x="150" y="105"/>
      <point x="134" y="130"/>
      <point x="146" y="180" type="curve" smooth="yes"/>
      <point x="160" y="234" type="line" smooth="yes"/>
      <point x="173" y="285"/>
      <point x="216" y="321"/>
      <point x="282" y="321" type="curve"/>
      <point x="277" y="357"/>
      <point x="257" y="387"/>
      <point x="229" y="386" type="curve" smooth="yes"/>
      <point x="146" y="384"/>
      <point x="50" y="324"/>
      <point x="27" y="233" type="curve" smooth="yes"/>
      <point x="9" y="160" type="line" smooth="yes"/>
      <point x="-18" y="53"/>
      <point x="32" y="-9"/>
    </contour>
    <contour>
      <point x="599" y="427" type="curve" smooth="yes"/>
      <point x="568" y="427"/>
      <point x="529" y="427"/>
      <point x="485" y="427" type="curve"/>
      <point x="478" y="400"/>
      <point x="472" y="376"/>
      <point x="465" y="348" type="curve" smooth="yes"/>
      <point x="450" y="286"/>
      <point x="431" y="255"/>
      <point x="393" y="222" type="curve" smooth="yes"/>
      <point x="378" y="211"/>
      <point x="379" y="205"/>
      <point x="405" y="159" type="curve"/>
      <point x="499" y="203"/>
      <point x="570" y="266"/>
      <point x="591" y="350" type="curve" smooth="yes"/>
      <point x="607" y="416" type="line" smooth="yes"/>
      <point x="609" y="423"/>
      <point x="607" y="427"/>
    </contour>
  </outline>
</glyph>
<glyph name="quotesingle" format="1">
  <advance width="600"/>
  <unicode hex="0027"/>
  <outline>
    <contour>
      <point x="405" y="450" type="curve"/>
      <point x="500" y="737" type="line" smooth="yes"/>
      <point x="503" y="746"/>
      <point x="499" y="750"/>
      <point x="493" y="750" type="curve" smooth="yes"/>
      <point x="446" y="750"/>
      <point x="394" y="750"/>
      <point x="336" y="750" type="curve"/>
      <point x="330" y="714"/>
      <point x="325" y="683"/>
      <point x="319" y="648" type="curve" smooth="yes"/>
      <point x="287" y="461" type="line" smooth="yes"/>
      <point x="286" y="454"/>
      <point x="290" y="450"/>
      <point x="296" y="450" type="curve" smooth="yes"/>
      <point x="333" y="450"/>
      <point x="368" y="450"/>
    </contour>
  </outline>
</glyph>
<glyph name="parenleft" format="1">
  <advance width="600"/>
  <unicode hex="0028"/>
  <outline>
    <contour>
      <point x="471" y="744" type="curve" smooth="yes"/>
      <point x="324" y="626"/>
      <point x="230" y="479"/>
      <point x="190" y="317" type="curve" smooth="yes"/>
      <point x="188" y="308" type="line" smooth="yes"/>
      <point x="148" y="148"/>
      <point x="169" y="4"/>
      <point x="257" y="-113" type="curve" smooth="yes"/>
      <point x="262" y="-121"/>
      <point x="268" y="-121"/>
      <point x="275" y="-121" type="curve" smooth="yes"/>
      <point x="326" y="-121"/>
      <point x="364" y="-121"/>
      <point x="419" y="-121" type="curve"/>
      <point x="424" y="-103" type="line"/>
      <point x="324" y="21"/>
      <point x="289" y="150"/>
      <point x="329" y="308" type="curve" smooth="yes"/>
      <point x="331" y="317" type="line" smooth="yes"/>
      <point x="371" y="477"/>
      <point x="470" y="615"/>
      <point x="629" y="733" type="curve"/>
      <point x="634" y="752" type="line"/>
      <point x="580" y="752"/>
      <point x="543" y="752"/>
      <point x="493" y="752" type="curve" smooth="yes"/>
      <point x="486" y="752"/>
      <point x="480" y="751"/>
    </contour>
  </outline>
</glyph>
<glyph name="parenright" format="1">
  <advance width="600"/>
  <unicode hex="0029"/>
  <outline>
    <contour>
      <point x="152" y="-113" type="curve" smooth="yes"/>
      <point x="299" y="5"/>
      <point x="393" y="152"/>
      <point x="433" y="313" type="curve" smooth="yes"/>
      <point x="435" y="322" type="line" smooth="yes"/>
      <point x="475" y="482"/>
      <point x="454" y="627"/>
      <point x="366" y="744" type="curve" smooth="yes"/>
      <point x="361" y="751"/>
      <point x="356" y="752"/>
      <point x="348" y="752" type="curve" smooth="yes"/>
      <point x="297" y="752"/>
      <point x="259" y="752"/>
      <point x="204" y="752" type="curve"/>
      <point x="199" y="733" type="line"/>
      <point x="299" y="610"/>
      <point x="334" y="480"/>
      <point x="294" y="322" type="curve" smooth="yes"/>
      <point x="292" y="313" type="line" smooth="yes"/>
      <point x="252" y="153"/>
      <point x="153" y="16"/>
      <point x="-6" y="-103" type="curve"/>
      <point x="-10" y="-121" type="line"/>
      <point x="43" y="-121"/>
      <point x="80" y="-121"/>
      <point x="130" y="-121" type="curve" smooth="yes"/>
      <point x="137" y="-121"/>
      <point x="143" y="-121"/>
    </contour>
  </outline>
</glyph>
<glyph name="asterisk" format="1">
  <advance width="600"/>
  <unicode hex="002A"/>
  <outline>
    <contour>
      <point x="310" y="568" type="curve"/>
      <point x="308" y="531"/>
      <point x="306" y="495"/>
      <point x="304" y="458" type="curve" smooth="yes"/>
      <point x="293" y="309" type="line"/>
      <point x="184" y="60" type="line" smooth="yes"/>
      <point x="182" y="54"/>
      <point x="184" y="50"/>
      <point x="190" y="50" type="curve"/>
      <point x="230" y="50"/>
      <point x="269" y="50"/>
      <point x="309" y="50" type="curve"/>
      <point x="311" y="87"/>
      <point x="313" y="123"/>
      <point x="315" y="160" type="curve" smooth="yes"/>
      <point x="326" y="309" type="line"/>
      <point x="435" y="558" type="line" smooth="yes"/>
      <point x="437" y="564"/>
      <point x="435" y="568"/>
      <point x="429" y="568" type="curve" smooth="yes"/>
      <point x="390" y="568"/>
      <point x="350" y="568"/>
    </contour>
    <contour>
      <point x="548" y="494" type="curve"/>
      <point x="306" y="324" type="line"/>
      <point x="46" y="240" type="line" smooth="yes"/>
      <point x="39" y="238"/>
      <point x="36" y="233"/>
      <point x="38" y="225" type="curve"/>
      <point x="49" y="191"/>
      <point x="60" y="158"/>
      <point x="71" y="125" type="curve"/>
      <point x="315" y="295" type="line"/>
      <point x="573" y="379" type="line" smooth="yes"/>
      <point x="580" y="381"/>
      <point x="584" y="387"/>
      <point x="581" y="393" type="curve" smooth="yes"/>
      <point x="571" y="427"/>
      <point x="559" y="460"/>
    </contour>
    <contour>
      <point x="547" y="236" type="curve"/>
      <point x="322" y="324" type="line"/>
      <point x="171" y="489" type="line" smooth="yes"/>
      <point x="167" y="493"/>
      <point x="162" y="492"/>
      <point x="155" y="485" type="curve"/>
      <point x="128" y="451"/>
      <point x="99" y="418"/>
      <point x="72" y="384" type="curve"/>
      <point x="298" y="296" type="line"/>
      <point x="448" y="131" type="line" smooth="yes"/>
      <point x="453" y="127"/>
      <point x="459" y="128"/>
      <point x="464" y="135" type="curve"/>
      <point x="492" y="168"/>
      <point x="519" y="202"/>
    </contour>
  </outline>
</glyph>
<glyph name="plus" format="1">
  <advance width="600"/>
  <unicode hex="002B"/>
  <outline>
    <contour>
      <point x="87" y="366" type="line"/>
      <point x="77" y="325"/>
      <point x="67" y="286"/>
      <point x="57" y="245" type="curve" smooth="yes"/>
      <point x="56" y="242"/>
      <point x="56" y="239"/>
      <point x="58" y="237" type="curve" smooth="yes"/>
      <point x="59" y="235"/>
      <point x="62" y="234"/>
      <point x="65" y="234" type="curve"/>
      <point x="529" y="234" type="line"/>
      <point x="539" y="275"/>
      <point x="549" y="314"/>
      <point x="559" y="355" type="curve" smooth="yes"/>
      <point x="560" y="361"/>
      <point x="556" y="366"/>
      <point x="550" y="366" type="curve"/>
    </contour>
    <contour>
      <point x="315" y="64" type="curve"/>
      <point x="430" y="525" type="line" smooth="yes"/>
      <point x="431" y="528"/>
      <point x="431" y="531"/>
      <point x="429" y="533" type="curve" smooth="yes"/>
      <point x="428" y="535"/>
      <point x="425" y="536"/>
      <point x="422" y="536" type="curve" smooth="yes"/>
      <point x="383" y="536"/>
      <point x="348" y="536"/>
      <point x="300" y="536" type="curve"/>
      <point x="294" y="510"/>
      <point x="285" y="476"/>
      <point x="276" y="438" type="curve" smooth="yes"/>
      <point x="185" y="75" type="line" smooth="yes"/>
      <point x="184" y="69"/>
      <point x="187" y="64"/>
      <point x="193" y="64" type="curve" smooth="yes"/>
      <point x="237" y="64"/>
      <point x="272" y="64"/>
    </contour>
  </outline>
</glyph>
<glyph name="period" format="1">
  <advance width="600"/>
  <unicode hex="002E"/>
  <outline>
    <contour>
      <point x="324" y="-9" type="curve"/>
      <point x="368" y="166" type="line" smooth="yes"/>
      <point x="369" y="172"/>
      <point x="366" y="177"/>
      <point x="360" y="177" type="curve" smooth="yes"/>
      <point x="302" y="177"/>
      <point x="241" y="177"/>
      <point x="184" y="177" type="curve"/>
      <point x="140" y="2" type="line" smooth="yes"/>
      <point x="138" y="-4"/>
      <point x="142" y="-9"/>
      <point x="148" y="-9" type="curve" smooth="yes"/>
      <point x="205" y="-9"/>
      <point x="267" y="-9"/>
    </contour>
  </outline>
</glyph>
<glyph name="slash" format="1">
  <advance width="600"/>
  <unicode hex="002F"/>
  <outline>
    <contour>
      <point x="668" y="750" type="curve"/>
      <point x="624" y="750"/>
      <point x="584" y="750"/>
      <point x="539" y="750" type="curve" smooth="yes"/>
      <point x="533" y="750"/>
      <point x="529" y="748"/>
      <point x="525" y="743" type="curve" smooth="yes"/>
      <point x="364" y="489"/>
      <point x="201" y="233"/>
      <point x="39" y="-21" type="curve" smooth="yes"/>
      <point x="16" y="-57"/>
      <point x="-7" y="-94"/>
      <point x="-30" y="-130" type="curve"/>
      <point x="14" y="-130"/>
      <point x="53" y="-130"/>
      <point x="98" y="-130" type="curve" smooth="yes"/>
      <point x="104" y="-130"/>
      <point x="110" y="-127"/>
      <point x="115" y="-119" type="curve"/>
      <point x="300" y="170"/>
      <point x="484" y="461"/>
    </contour>
  </outline>
</glyph>
<glyph name="zero" format="1">
  <advance width="600"/>
  <unicode hex="0030"/>
  <outline>
    <contour>
      <point x="395" y="720" type="curve" smooth="yes"/>
      <point x="257" y="720"/>
      <point x="146" y="638"/>
      <point x="104" y="468" type="curve" smooth="yes"/>
      <point x="55" y="272" type="line" smooth="yes"/>
      <point x="10" y="88"/>
      <point x="105" y="-20"/>
      <point x="243" y="-20" type="curve"/>
      <point x="245" y="-20"/>
      <point x="257" y="-7"/>
      <point x="260" y="100" type="curve"/>
      <point x="193" y="100"/>
      <point x="157" y="145"/>
      <point x="187" y="269" type="curve" smooth="yes"/>
      <point x="234" y="459" type="line" smooth="yes"/>
      <point x="261" y="566"/>
      <point x="312" y="600"/>
      <point x="378" y="600" type="curve" smooth="yes"/>
      <point x="423" y="600"/>
      <point x="467" y="600"/>
      <point x="493" y="600" type="curve"/>
      <point x="511" y="673"/>
      <point x="475" y="720"/>
    </contour>
    <contour>
      <point x="243" y="-20" type="curve" smooth="yes"/>
      <point x="381" y="-20"/>
      <point x="491" y="58"/>
      <point x="534" y="230" type="curve" smooth="yes"/>
      <point x="583" y="427" type="line" smooth="yes"/>
      <point x="628" y="612"/>
      <point x="534" y="720"/>
      <point x="395" y="720" type="curve"/>
      <point x="393" y="720"/>
      <point x="381" y="707"/>
      <point x="378" y="600" type="curve"/>
      <point x="445" y="600"/>
      <point x="481" y="555"/>
      <point x="451" y="431" type="curve" smooth="yes"/>
      <point x="404" y="241" type="line" smooth="yes"/>
      <point x="378" y="134"/>
      <point x="326" y="100"/>
      <point x="248" y="100" type="curve" smooth="yes"/>
      <point x="193" y="100"/>
      <point x="172" y="100"/>
      <point x="145" y="100" type="curve"/>
      <point x="127" y="27"/>
      <point x="163" y="-20"/>
    </contour>
    <contour>
      <point x="129" y="165" type="curve"/>
      <point x="244" y="250"/>
      <point x="360" y="334"/>
      <point x="476" y="419" type="curve"/>
      <point x="508" y="442"/>
      <point x="512" y="461"/>
      <point x="502" y="529" type="curve"/>
      <point x="379" y="440"/>
      <point x="256" y="352"/>
      <point x="133" y="264" type="curve" smooth="yes"/>
      <point x="109" y="247"/>
      <point x="111" y="227"/>
    </contour>
  </outline>
</glyph>
<glyph name="one" format="1">
  <advance width="600"/>
  <unicode hex="0031"/>
  <outline>
    <contour>
      <point x="343" y="35" type="curve"/>
      <point x="398" y="256"/>
      <point x="453" y="478"/>
      <point x="509" y="699" type="curve" smooth="yes"/>
      <point x="510" y="705"/>
      <point x="507" y="710"/>
      <point x="501" y="710" type="curve" smooth="yes"/>
      <point x="379" y="710" type="line"/>
      <point x="327" y="503"/>
      <point x="274" y="291"/>
      <point x="222" y="84" type="curve" smooth="yes"/>
      <point x="212" y="45"/>
      <point x="267" y="35"/>
    </contour>
    <contour>
      <point x="44" y="121" type="line"/>
      <point x="35" y="84"/>
      <point x="28" y="53"/>
      <point x="17" y="11" type="curve" smooth="yes"/>
      <point x="16" y="7"/>
      <point x="16" y="5"/>
      <point x="18" y="3" type="curve" smooth="yes"/>
      <point x="19" y="1"/>
      <point x="21" y="0"/>
      <point x="25" y="0" type="curve" smooth="yes"/>
      <point x="481" y="0" type="line"/>
      <point x="489" y="33"/>
      <point x="497" y="68"/>
      <point x="509" y="110" type="curve" smooth="yes"/>
      <point x="511" y="118"/>
      <point x="507" y="121"/>
      <point x="500" y="121" type="curve" smooth="yes"/>
    </contour>
    <contour>
      <point x="147" y="433" type="curve" smooth="yes"/>
      <point x="151" y="433"/>
      <point x="156" y="435"/>
      <point x="382" y="577" type="curve" smooth="yes"/>
      <point x="423" y="603"/>
      <point x="465" y="630"/>
      <point x="466" y="635" type="curve" smooth="yes"/>
      <point x="473" y="664"/>
      <point x="469" y="710"/>
      <point x="392" y="710" type="curve"/>
      <point x="370" y="710" type="line"/>
      <point x="338" y="691"/>
      <point x="306" y="670"/>
      <point x="276" y="651" type="curve"/>
      <point x="244" y="631"/>
      <point x="212" y="611"/>
      <point x="180" y="592" type="curve"/>
      <point x="142" y="440" type="line" smooth="yes"/>
      <point x="141" y="436"/>
      <point x="143" y="433"/>
    </contour>
  </outline>
</glyph>
<glyph name="two" format="1">
  <advance width="600"/>
  <unicode hex="0032"/>
  <outline>
    <contour>
      <point x="479" y="593" type="curve"/>
      <point x="474" y="571"/>
      <point x="469" y="554"/>
      <point x="459" y="516" type="curve" smooth="yes"/>
      <point x="449" y="475"/>
      <point x="426" y="455"/>
      <point x="295" y="381" type="curve" smooth="yes"/>
      <point x="117" y="281"/>
      <point x="45" y="201"/>
      <point x="18" y="96" type="curve" smooth="yes"/>
      <point x="15" y="83"/>
      <point x="54" y="81"/>
      <point x="149" y="81" type="curve"/>
      <point x="172" y="172"/>
      <point x="201" y="200"/>
      <point x="339" y="276" type="curve" smooth="yes"/>
      <point x="503" y="367"/>
      <point x="567" y="414"/>
      <point x="590" y="507" type="curve" smooth="yes"/>
      <point x="597" y="536" type="line" smooth="yes"/>
      <point x="605" y="566"/>
      <point x="573" y="593"/>
    </contour>
    <contour>
      <point x="479" y="0" type="line"/>
      <point x="487" y="33"/>
      <point x="496" y="68"/>
      <point x="507" y="110" type="curve" smooth="yes"/>
      <point x="509" y="118"/>
      <point x="506" y="121"/>
      <point x="498" y="121" type="curve" smooth="yes"/>
      <point x="139" y="121" type="line" smooth="yes"/>
      <point x="100" y="121"/>
      <point x="57" y="116"/>
      <point x="18" y="96" type="curve"/>
      <point x="11" y="66"/>
      <point x="8" y="52"/>
      <point x="-3" y="11" type="curve" smooth="yes"/>
      <point x="-5" y="3"/>
      <point x="-3" y="0"/>
      <point x="5" y="0" type="curve" smooth="yes"/>
    </contour>
    <contour>
      <point x="403" y="720" type="curve" smooth="yes"/>
      <point x="297" y="720"/>
      <point x="213" y="692"/>
      <point x="184" y="669" type="curve" smooth="yes"/>
      <point x="182" y="666"/>
      <point x="180" y="663"/>
      <point x="179" y="658" type="curve" smooth="yes"/>
      <point x="166" y="610"/>
      <point x="158" y="577"/>
      <point x="149" y="542" type="curve"/>
      <point x="168" y="542" type="line"/>
      <point x="235" y="577"/>
      <point x="301" y="592"/>
      <point x="379" y="592" type="curve" smooth="yes"/>
      <point x="449" y="592"/>
      <point x="473" y="570"/>
      <point x="464" y="533" type="curve" smooth="yes"/>
      <point x="457" y="507"/>
      <point x="452" y="486"/>
      <point x="449" y="471" type="curve"/>
      <point x="537" y="472"/>
      <point x="589" y="500"/>
      <point x="597" y="536" type="curve" smooth="yes"/>
      <point x="624" y="643"/>
      <point x="549" y="720"/>
    </contour>
  </outline>
</glyph>
<glyph name="three" format="1">
  <advance width="600"/>
  <unicode hex="0033"/>
  <outline>
    <contour>
      <point x="358" y="592" type="curve" smooth="yes"/>
      <point x="455" y="592"/>
      <point x="475" y="557"/>
      <point x="464" y="515" type="curve" smooth="yes"/>
      <point x="457" y="489"/>
      <point x="454" y="475"/>
      <point x="449" y="454" type="curve"/>
      <point x="518" y="454"/>
      <point x="582" y="461"/>
      <point x="596" y="515" type="curve" smooth="yes"/>
      <point x="603" y="541" type="line" smooth="yes"/>
      <point x="628" y="640"/>
      <point x="544" y="720"/>
      <point x="398" y="720" type="curve" smooth="yes"/>
      <point x="293" y="720"/>
      <point x="200" y="697"/>
      <point x="181" y="682" type="curve" smooth="yes"/>
      <point x="179" y="680"/>
      <point x="177" y="678"/>
      <point x="176" y="674" type="curve" smooth="yes"/>
      <point x="166" y="628"/>
      <point x="155" y="589"/>
      <point x="148" y="559" type="curve"/>
      <point x="167" y="559" type="line"/>
      <point x="230" y="582"/>
      <point x="277" y="592"/>
    </contour>
    <contour>
      <point x="182" y="339" type="curve" smooth="yes"/>
      <point x="403" y="339"/>
      <point x="560" y="370"/>
      <point x="596" y="515" type="curve" smooth="yes"/>
      <point x="603" y="544"/>
      <point x="544" y="586"/>
      <point x="482" y="586" type="curve"/>
      <point x="475" y="561"/>
      <point x="469" y="537"/>
      <point x="463" y="513" type="curve" smooth="yes"/>
      <point x="449" y="456"/>
      <point x="406" y="417"/>
      <point x="191" y="417" type="curve"/>
      <point x="186" y="398"/>
      <point x="179" y="368"/>
      <point x="174" y="350" type="curve" smooth="yes"/>
      <point x="172" y="344"/>
      <point x="176" y="339"/>
    </contour>
    <contour>
      <point x="172" y="298" type="curve" smooth="yes"/>
      <point x="366" y="298"/>
      <point x="411" y="264"/>
      <point x="395" y="200" type="curve" smooth="yes"/>
      <point x="388" y="176"/>
      <point x="386" y="165"/>
      <point x="377" y="131" type="curve"/>
      <point x="459" y="131"/>
      <point x="514" y="146"/>
      <point x="527" y="197" type="curve" smooth="yes"/>
      <point x="559" y="326"/>
      <point x="422" y="379"/>
      <point x="182" y="379" type="curve"/>
      <point x="176" y="356"/>
      <point x="169" y="330"/>
      <point x="164" y="309" type="curve" smooth="yes"/>
      <point x="162" y="301"/>
      <point x="165" y="298"/>
    </contour>
    <contour>
      <point x="232" y="108" type="curve" smooth="yes"/>
      <point x="148" y="108"/>
      <point x="104" y="118"/>
      <point x="45" y="145" type="curve"/>
      <point x="26" y="145" type="line"/>
      <point x="17" y="111"/>
      <point x="9" y="77"/>
      <point x="-3" y="31" type="curve" smooth="yes"/>
      <point x="-4" y="27"/>
      <point x="-4" y="25"/>
      <point x="-3" y="23" type="curve" smooth="yes"/>
      <point x="9" y="7"/>
      <point x="96" y="-20"/>
      <point x="212" y="-20" type="curve" smooth="yes"/>
      <point x="379" y="-20"/>
      <point x="487" y="41"/>
      <point x="518" y="163" type="curve" smooth="yes"/>
      <point x="527" y="197" type="line" smooth="yes"/>
      <point x="538" y="240"/>
      <point x="481" y="266"/>
      <point x="411" y="265" type="curve"/>
      <point x="405" y="239"/>
      <point x="400" y="224"/>
      <point x="394" y="198" type="curve" smooth="yes"/>
      <point x="382" y="149"/>
      <point x="341" y="108"/>
    </contour>
  </outline>
</glyph>
<glyph name="four" format="1">
  <advance width="600"/>
  <unicode hex="0034"/>
  <outline>
    <contour>
      <point x="154" y="227" type="curve"/>
      <point x="286" y="379"/>
      <point x="417" y="530"/>
      <point x="549" y="682" type="curve"/>
      <point x="554" y="700" type="line"/>
      <point x="476" y="700"/>
      <point x="426" y="700"/>
      <point x="417" y="700" type="curve" smooth="yes"/>
      <point x="411" y="700"/>
      <point x="406" y="699"/>
      <point x="399" y="690" type="curve" smooth="yes"/>
      <point x="250" y="516"/>
      <point x="41" y="267"/>
      <point x="40" y="259" type="curve" smooth="yes"/>
      <point x="34" y="238"/>
      <point x="104" y="227"/>
    </contour>
    <contour>
      <point x="531" y="151" type="line"/>
      <point x="540" y="189"/>
      <point x="548" y="222"/>
      <point x="558" y="261" type="curve" smooth="yes"/>
      <point x="560" y="267"/>
      <point x="556" y="272"/>
      <point x="550" y="272" type="curve" smooth="yes"/>
      <point x="386" y="272" type="line"/>
      <point x="359" y="272"/>
      <point x="189" y="265"/>
      <point x="40" y="259" type="curve"/>
      <point x="15" y="162" type="line" smooth="yes"/>
      <point x="15" y="159"/>
      <point x="15" y="156"/>
      <point x="16" y="154" type="curve" smooth="yes"/>
      <point x="18" y="152"/>
      <point x="21" y="151"/>
      <point x="24" y="151" type="curve" smooth="yes"/>
    </contour>
    <contour>
      <point x="427" y="0" type="curve"/>
      <point x="434" y="29"/>
      <point x="443" y="63"/>
      <point x="452" y="98" type="curve" smooth="yes"/>
      <point x="523" y="384" type="line" smooth="yes"/>
      <point x="525" y="391"/>
      <point x="522" y="395"/>
      <point x="515" y="395" type="curve" smooth="yes"/>
      <point x="420" y="395" type="line"/>
      <point x="399" y="347"/>
      <point x="379" y="301"/>
      <point x="358" y="253" type="curve"/>
      <point x="297" y="11" type="line" smooth="yes"/>
      <point x="295" y="5"/>
      <point x="299" y="0"/>
      <point x="305" y="0" type="curve" smooth="yes"/>
      <point x="346" y="0"/>
      <point x="387" y="0"/>
    </contour>
  </outline>
</glyph>
<glyph name="seven" format="1">
  <advance width="600"/>
  <unicode hex="0037"/>
  <outline>
    <contour>
      <point x="532" y="580" type="line" smooth="yes"/>
      <point x="565" y="580"/>
      <point x="598" y="583"/>
      <point x="632" y="588" type="curve"/>
      <point x="657" y="689" type="line"/>
      <point x="659" y="695"/>
      <point x="655" y="700"/>
      <point x="649" y="700" type="curve"/>
      <point x="162" y="700" type="line"/>
      <point x="150" y="650" type="line" smooth="yes"/>
      <point x="138" y="600"/>
      <point x="147" y="580"/>
      <point x="170" y="580" type="curve" smooth="yes"/>
    </contour>
    <contour>
      <point x="249" y="0" type="line"/>
      <point x="481" y="359"/>
      <point x="630" y="580"/>
      <point x="632" y="588" type="curve" smooth="yes"/>
      <point x="640" y="622"/>
      <point x="594" y="630"/>
      <point x="513" y="629" type="curve"/>
      <point x="249" y="233"/>
      <point x="109" y="23"/>
      <point x="106" y="11" type="curve" smooth="yes"/>
      <point x="104" y="5"/>
      <point x="108" y="0"/>
      <point x="114" y="0" type="curve" smooth="yes"/>
    </contour>
    <contour>
      <point x="243" y="488" type="curve"/>
      <point x="254" y="533"/>
      <point x="274" y="616"/>
      <point x="286" y="662" type="curve"/>
      <point x="293" y="690"/>
      <point x="263" y="700"/>
      <point x="175" y="700" type="curve" smooth="yes"/>
      <point x="162" y="700" type="line"/>
      <point x="149" y="646"/>
      <point x="126" y="552"/>
      <point x="112" y="499" type="curve"/>
      <point x="111" y="493"/>
      <point x="115" y="488"/>
      <point x="121" y="488" type="curve" smooth="yes"/>
      <point x="161" y="488"/>
      <point x="203" y="488"/>
    </contour>
  </outline>
</glyph>
<glyph name="nine" format="1">
  <advance width="600"/>
  <unicode hex="0039"/>
  <outline>
    <contour>
      <point x="489" y="601" type="curve"/>
      <point x="508" y="679"/>
      <point x="469" y="721"/>
      <point x="393" y="721" type="curve"/>
      <point x="252" y="721"/>
      <point x="146" y="650"/>
      <point x="115" y="524" type="curve" smooth="yes"/>
      <point x="98" y="457" type="line" smooth="yes"/>
      <point x="88" y="416"/>
      <point x="128" y="368"/>
      <point x="207" y="368" type="curve"/>
      <point x="216" y="404"/>
      <point x="224" y="431"/>
      <point x="232" y="467" type="curve" smooth="yes"/>
      <point x="242" y="507" type="line" smooth="yes"/>
      <point x="259" y="573"/>
      <point x="297" y="601"/>
      <point x="370" y="601" type="curve" smooth="yes"/>
      <point x="418" y="601"/>
      <point x="460" y="601"/>
    </contour>
    <contour>
      <point x="326" y="106" type="curve"/>
      <point x="290" y="106"/>
      <point x="270" y="106"/>
      <point x="221" y="106" type="curve" smooth="yes"/>
      <point x="158" y="106"/>
      <point x="123" y="115"/>
      <point x="70" y="140" type="curve"/>
      <point x="52" y="140" type="line"/>
      <point x="43" y="106"/>
      <point x="35" y="71"/>
      <point x="23" y="23" type="curve" smooth="yes"/>
      <point x="22" y="19"/>
      <point x="22" y="18"/>
      <point x="23" y="16" type="curve" smooth="yes"/>
      <point x="36" y="-1"/>
      <point x="130" y="-20"/>
      <point x="197" y="-20" type="curve" smooth="yes"/>
      <point x="273" y="-20"/>
      <point x="304" y="15"/>
    </contour>
    <contour>
      <point x="542" y="260" type="curve" smooth="yes"/>
      <point x="584" y="425" type="line" smooth="yes"/>
      <point x="632" y="617"/>
      <point x="558" y="721"/>
      <point x="393" y="721" type="curve" smooth="yes"/>
      <point x="374" y="721"/>
      <point x="366" y="680"/>
      <point x="370" y="601" type="curve"/>
      <point x="449" y="601"/>
      <point x="479" y="553"/>
      <point x="452" y="443" type="curve" smooth="yes"/>
      <point x="411" y="280" type="line" smooth="yes"/>
      <point x="380" y="158"/>
      <point x="326" y="106"/>
      <point x="221" y="106" type="curve"/>
      <point x="184" y="48"/>
      <point x="177" y="-20"/>
      <point x="197" y="-20" type="curve" smooth="yes"/>
      <point x="392" y="-20"/>
      <point x="490" y="51"/>
    </contour>
    <contour>
      <point x="242" y="251" type="curve" smooth="yes"/>
      <point x="306" y="251"/>
      <point x="372" y="275"/>
      <point x="419" y="312" type="curve" smooth="yes"/>
      <point x="434" y="325"/>
      <point x="443" y="342"/>
      <point x="461" y="416" type="curve"/>
      <point x="409" y="381"/>
      <point x="357" y="366"/>
      <point x="300" y="366" type="curve" smooth="yes"/>
      <point x="232" y="366"/>
      <point x="218" y="405"/>
      <point x="232" y="467" type="curve" smooth="yes"/>
      <point x="237" y="489"/>
      <point x="243" y="511"/>
      <point x="246" y="522" type="curve"/>
      <point x="161" y="522"/>
      <point x="107" y="494"/>
      <point x="98" y="457" type="curve" smooth="yes"/>
      <point x="68" y="338"/>
      <point x="123" y="251"/>
    </contour>
  </outline>
</glyph>
<glyph name="colon" format="1">
  <advance width="600"/>
  <unicode hex="003A"/>
  <outline>
    <contour>
      <point x="416" y="360" type="curve"/>
      <point x="460" y="536" type="line" smooth="yes"/>
      <point x="462" y="542"/>
      <point x="458" y="547"/>
      <point x="452" y="547" type="curve" smooth="yes"/>
      <point x="395" y="547"/>
      <point x="333" y="547"/>
      <point x="276" y="547" type="curve"/>
      <point x="232" y="371" type="line" smooth="yes"/>
      <point x="231" y="365"/>
      <point x="234" y="360"/>
      <point x="240" y="360" type="curve" smooth="yes"/>
      <point x="298" y="360"/>
      <point x="359" y="360"/>
    </contour>
    <contour>
      <point x="324" y="-9" type="curve"/>
      <point x="368" y="166" type="line" smooth="yes"/>
      <point x="369" y="172"/>
      <point x="366" y="177"/>
      <point x="360" y="177" type="curve" smooth="yes"/>
      <point x="302" y="177"/>
      <point x="241" y="177"/>
      <point x="184" y="177" type="curve"/>
      <point x="140" y="2" type="line" smooth="yes"/>
      <point x="138" y="-4"/>
      <point x="142" y="-9"/>
      <point x="148" y="-9" type="curve" smooth="yes"/>
      <point x="205" y="-9"/>
      <point x="267" y="-9"/>
    </contour>
  </outline>
</glyph>
<glyph name="semicolon" format="1">
  <advance width="600"/>
  <unicode hex="003B"/>
  <outline>
    <contour>
      <point x="416" y="360" type="curve"/>
      <point x="460" y="536" type="line" smooth="yes"/>
      <point x="462" y="542"/>
      <point x="458" y="547"/>
      <point x="452" y="547" type="curve" smooth="yes"/>
      <point x="395" y="547"/>
      <point x="333" y="547"/>
      <point x="276" y="547" type="curve"/>
      <point x="232" y="371" type="line" smooth="yes"/>
      <point x="231" y="365"/>
      <point x="234" y="360"/>
      <point x="240" y="360" type="curve" smooth="yes"/>
      <point x="298" y="360"/>
      <point x="359" y="360"/>
    </contour>
    <contour>
      <point x="174" y="-231" type="curve" smooth="yes"/>
      <point x="179" y="-231"/>
      <point x="183" y="-230"/>
      <point x="186" y="-224" type="curve"/>
      <point x="254" y="-118"/>
      <point x="331" y="4"/>
      <point x="387" y="91" type="curve"/>
      <point x="392" y="99"/>
      <point x="390" y="104"/>
      <point x="382" y="104" type="curve" smooth="yes"/>
      <point x="317" y="104"/>
      <point x="279" y="104"/>
      <point x="203" y="104" type="curve"/>
      <point x="152" y="-7"/>
      <point x="99" y="-120"/>
      <point x="48" y="-231" type="curve"/>
      <point x="81" y="-231"/>
      <point x="119" y="-231"/>
    </contour>
  </outline>
</glyph>
<glyph name="less" format="1">
  <advance width="600"/>
  <unicode hex="003C"/>
  <outline>
    <contour>
      <point x="567" y="455" type="curve"/>
      <point x="597" y="577" type="line"/>
      <point x="598" y="583"/>
      <point x="597" y="586"/>
      <point x="591" y="586" type="curve" smooth="yes"/>
      <point x="587" y="586"/>
      <point x="583" y="585"/>
      <point x="567" y="579" type="curve" smooth="yes"/>
      <point x="517" y="559"/>
      <point x="267" y="457"/>
      <point x="110" y="394" type="curve"/>
      <point x="71" y="234" type="line"/>
      <point x="91" y="257"/>
      <point x="114" y="274"/>
      <point x="175" y="298" type="curve"/>
      <point x="305" y="350"/>
      <point x="436" y="403"/>
    </contour>
    <contour>
      <point x="454" y="9" type="curve"/>
      <point x="465" y="51"/>
      <point x="474" y="90"/>
      <point x="485" y="132" type="curve" smooth="yes"/>
      <point x="487" y="142"/>
      <point x="487" y="145"/>
      <point x="478" y="150" type="curve" smooth="yes"/>
      <point x="394" y="192"/>
      <point x="307" y="236"/>
      <point x="223" y="279" type="curve" smooth="yes"/>
      <point x="215" y="283"/>
      <point x="213" y="287"/>
      <point x="216" y="296" type="curve" smooth="yes"/>
      <point x="221" y="316"/>
      <point x="227" y="341"/>
      <point x="235" y="375" type="curve"/>
      <point x="141" y="374"/>
      <point x="87" y="301"/>
      <point x="73" y="244" type="curve" smooth="yes"/>
      <point x="66" y="218" type="line" smooth="yes"/>
      <point x="64" y="208"/>
      <point x="67" y="201"/>
      <point x="76" y="198" type="curve" smooth="yes"/>
      <point x="202" y="135"/>
      <point x="328" y="72"/>
    </contour>
  </outline>
</glyph>
<glyph name="greater" format="1">
  <advance width="600"/>
  <unicode hex="003E"/>
  <outline>
    <contour>
      <point x="49" y="145" type="curve"/>
      <point x="19" y="23" type="line"/>
      <point x="17" y="18"/>
      <point x="19" y="14"/>
      <point x="25" y="14" type="curve" smooth="yes"/>
      <point x="29" y="14"/>
      <point x="33" y="15"/>
      <point x="49" y="21" type="curve" smooth="yes"/>
      <point x="98" y="41"/>
      <point x="349" y="143"/>
      <point x="505" y="207" type="curve"/>
      <point x="545" y="366" type="line"/>
      <point x="524" y="343"/>
      <point x="502" y="326"/>
      <point x="441" y="303" type="curve"/>
      <point x="311" y="250"/>
      <point x="179" y="198"/>
    </contour>
    <contour>
      <point x="161" y="591" type="curve"/>
      <point x="151" y="549"/>
      <point x="141" y="511"/>
      <point x="131" y="468" type="curve" smooth="yes"/>
      <point x="128" y="458"/>
      <point x="128" y="455"/>
      <point x="138" y="451" type="curve" smooth="yes"/>
      <point x="221" y="408"/>
      <point x="308" y="364"/>
      <point x="393" y="321" type="curve" smooth="yes"/>
      <point x="401" y="318"/>
      <point x="402" y="313"/>
      <point x="400" y="304" type="curve" smooth="yes"/>
      <point x="395" y="284"/>
      <point x="389" y="260"/>
      <point x="380" y="225" type="curve"/>
      <point x="475" y="226"/>
      <point x="528" y="299"/>
      <point x="543" y="356" type="curve" smooth="yes"/>
      <point x="549" y="382" type="line" smooth="yes"/>
      <point x="552" y="392"/>
      <point x="549" y="399"/>
      <point x="540" y="403" type="curve" smooth="yes"/>
      <point x="414" y="465"/>
      <point x="288" y="528"/>
    </contour>
  </outline>
</glyph>
<glyph name="at" format="1">
  <advance width="600"/>
  <unicode hex="0040"/>
  <outline>
    <contour>
      <point x="506" y="502" type="curve" smooth="yes"/>
      <point x="496" y="523"/>
      <point x="465" y="547"/>
      <point x="418" y="547" type="curve" smooth="yes"/>
      <point x="384" y="547"/>
      <point x="355" y="537"/>
      <point x="331" y="518" type="curve" smooth="yes"/>
      <point x="304" y="497"/>
      <point x="311" y="481"/>
      <point x="378" y="400" type="curve"/>
      <point x="388" y="438"/>
      <point x="408" y="450"/>
      <point x="434" y="450" type="curve" smooth="yes"/>
      <point x="466" y="450"/>
      <point x="483" y="445"/>
      <point x="502" y="430" type="curve"/>
      <point x="513" y="469"/>
      <point x="511" y="490"/>
    </contour>
    <contour>
      <point x="447" y="174" type="curve"/>
      <point x="412" y="138"/>
      <point x="362" y="121"/>
      <point x="330" y="121" type="curve" smooth="yes"/>
      <point x="316" y="121"/>
      <point x="311" y="131"/>
      <point x="315" y="148" type="curve" smooth="yes"/>
      <point x="378" y="400" type="line" smooth="yes"/>
      <point x="387" y="437"/>
      <point x="401" y="461"/>
      <point x="436" y="491" type="curve"/>
      <point x="374" y="532"/>
      <point x="360" y="541"/>
      <point x="331" y="518" type="curve" smooth="yes"/>
      <point x="298" y="492"/>
      <point x="281" y="459"/>
      <point x="270" y="415" type="curve" smooth="yes"/>
      <point x="197" y="123" type="line" smooth="yes"/>
      <point x="180" y="55"/>
      <point x="211" y="13"/>
      <point x="273" y="13" type="curve" smooth="yes"/>
      <point x="323" y="13"/>
      <point x="367" y="35"/>
      <point x="426" y="100" type="curve" smooth="yes"/>
      <point x="435" y="110"/>
      <point x="438" y="118"/>
    </contour>
    <contour>
      <point x="479" y="23" type="line"/>
      <point x="488" y="59"/>
      <point x="497" y="95"/>
      <point x="506" y="131" type="curve"/>
      <point x="608" y="541" type="line" smooth="yes"/>
      <point x="639" y="665"/>
      <point x="577" y="760"/>
      <point x="425" y="760" type="curve" smooth="yes"/>
      <point x="409" y="760"/>
      <point x="398" y="743"/>
      <point x="405" y="675" type="curve"/>
      <point x="483" y="675"/>
      <point x="522" y="643"/>
      <point x="499" y="551" type="curve" smooth="yes"/>
      <point x="389" y="111" type="line" smooth="yes"/>
      <point x="388" y="106"/>
      <point x="427" y="23"/>
      <point x="436" y="23" type="curve" smooth="yes"/>
    </contour>
    <contour>
      <point x="123" y="522" type="curve" smooth="yes"/>
      <point x="19" y="105" type="line" smooth="yes"/>
      <point x="-9" y="-5"/>
      <point x="-5" y="-77"/>
      <point x="30" y="-124" type="curve" smooth="yes"/>
      <point x="53" y="-154"/>
      <point x="175" y="-160"/>
      <point x="234" y="-108" type="curve"/>
      <point x="99" y="-108"/>
      <point x="73" y="-42"/>
      <point x="105" y="83" type="curve" smooth="yes"/>
      <point x="210" y="503" type="line" smooth="yes"/>
      <point x="234" y="601"/>
      <point x="305" y="675"/>
      <point x="405" y="675" type="curve" smooth="yes"/>
      <point x="461" y="675"/>
      <point x="499" y="659"/>
      <point x="526" y="627" type="curve"/>
      <point x="541" y="635"/>
      <point x="546" y="640"/>
      <point x="551" y="662" type="curve" smooth="yes"/>
      <point x="565" y="718"/>
      <point x="510" y="760"/>
      <point x="425" y="760" type="curve" smooth="yes"/>
      <point x="283" y="760"/>
      <point x="157" y="659"/>
    </contour>
    <contour>
      <point x="201" y="-191" type="curve" smooth="yes"/>
      <point x="268" y="-191"/>
      <point x="346" y="-175"/>
      <point x="363" y="-161" type="curve" smooth="yes"/>
      <point x="366" y="-159"/>
      <point x="367" y="-156"/>
      <point x="368" y="-153" type="curve" smooth="yes"/>
      <point x="386" y="-81" type="line"/>
      <point x="367" y="-81" type="line"/>
      <point x="327" y="-99"/>
      <point x="280" y="-108"/>
      <point x="234" y="-108" type="curve" smooth="yes"/>
      <point x="137" y="-108"/>
      <point x="104" y="-81"/>
      <point x="66" y="-25" type="curve"/>
      <point x="21" y="-71"/>
      <point x="16" y="-105"/>
      <point x="30" y="-124" type="curve"/>
      <point x="62" y="-166"/>
      <point x="117" y="-191"/>
    </contour>
  </outline>
</glyph>
<glyph name="A" format="1">
  <advance width="600"/>
  <unicode hex="0041"/>
  <outline>
    <contour>
      <point x="103" y="0" type="curve"/>
      <point x="281" y="397"/>
      <point x="328" y="502"/>
      <point x="393" y="638" type="curve"/>
      <point x="406" y="667"/>
      <point x="430" y="685"/>
      <point x="514" y="702" type="curve"/>
      <point x="291" y="702" type="line"/>
      <point x="230" y="576"/>
      <point x="120" y="336"/>
      <point x="-29" y="13" type="curve"/>
      <point x="-33" y="4"/>
      <point x="-28" y="0"/>
      <point x="-23" y="0" type="curve" smooth="yes"/>
      <point x="18" y="0"/>
      <point x="61" y="0"/>
    </contour>
    <contour>
      <point x="500" y="0" type="curve"/>
      <point x="510" y="269"/>
      <point x="519" y="507"/>
      <point x="523" y="690" type="curve"/>
      <point x="524" y="696"/>
      <point x="522" y="698"/>
      <point x="521" y="699" type="curve" smooth="yes"/>
      <point x="520" y="701"/>
      <point x="518" y="702"/>
      <point x="514" y="702" type="curve"/>
      <point x="390" y="702"/>
      <point x="367" y="690"/>
      <point x="339" y="574" type="curve"/>
      <point x="352" y="574"/>
      <point x="375" y="574"/>
      <point x="385" y="574" type="curve" smooth="yes"/>
      <point x="389" y="574"/>
      <point x="392" y="573"/>
      <point x="392" y="568" type="curve"/>
      <point x="387" y="434"/>
      <point x="383" y="291"/>
      <point x="370" y="12" type="curve"/>
      <point x="370" y="6"/>
      <point x="370" y="4"/>
      <point x="371" y="3" type="curve" smooth="yes"/>
      <point x="372" y="1"/>
      <point x="374" y="0"/>
      <point x="378" y="0" type="curve" smooth="yes"/>
      <point x="420" y="0"/>
      <point x="459" y="0"/>
    </contour>
    <contour>
      <point x="150" y="289" type="line"/>
      <point x="123" y="179" type="line" smooth="yes"/>
      <point x="122" y="176"/>
      <point x="122" y="173"/>
      <point x="124" y="171" type="curve" smooth="yes"/>
      <point x="125" y="169"/>
      <point x="128" y="168"/>
      <point x="131" y="168" type="curve"/>
      <point x="442" y="168" type="line"/>
      <point x="471" y="286"/>
      <point x="466" y="289"/>
      <point x="461" y="289" type="curve" smooth="yes"/>
    </contour>
    <contour>
      <point x="410" y="711" type="move" name="top"/>
    </contour>
    <contour>
      <point x="500" y="-1" type="move" name="ogonek"/>
    </contour>
    <contour>
      <point x="407" y="700" type="move" name="ring"/>
    </contour>
    <contour>
      <point x="232" y="-1" type="move" name="bottom"/>
    </contour>
  </outline>
</glyph>
<glyph name="D" format="1">
  <advance width="600"/>
  <unicode hex="0044"/>
  <outline>
    <contour>
      <point x="150" y="4" type="curve"/>
      <point x="310" y="644" type="line" smooth="yes"/>
      <point x="311" y="650"/>
      <point x="308" y="655"/>
      <point x="176" y="655" type="curve"/>
      <point x="15" y="11" type="line" smooth="yes"/>
      <point x="13" y="5"/>
      <point x="18" y="4"/>
    </contour>
    <contour>
      <point x="146" y="700" type="curve"/>
      <point x="136" y="661"/>
      <point x="128" y="628"/>
      <point x="119" y="590" type="curve"/>
      <point x="118" y="587"/>
      <point x="118" y="584"/>
      <point x="120" y="582" type="curve" smooth="yes"/>
      <point x="121" y="580"/>
      <point x="124" y="579"/>
      <point x="127" y="579" type="curve" smooth="yes"/>
      <point x="146" y="579"/>
      <point x="168" y="579"/>
      <point x="191" y="579" type="curve" smooth="yes"/>
      <point x="248" y="579"/>
      <point x="319" y="579"/>
      <point x="368" y="579" type="curve" smooth="yes"/>
      <point x="419" y="579"/>
      <point x="441" y="579"/>
      <point x="474" y="579" type="curve"/>
      <point x="488" y="650"/>
      <point x="461" y="700"/>
      <point x="394" y="700" type="curve" smooth="yes"/>
      <point x="327" y="700"/>
      <point x="217" y="700"/>
    </contour>
    <contour>
      <point x="528" y="226" type="curve" smooth="yes"/>
      <point x="583" y="440" type="line" smooth="yes"/>
      <point x="626" y="610"/>
      <point x="547" y="700"/>
      <point x="394" y="700" type="curve"/>
      <point x="389" y="700"/>
      <point x="371" y="685"/>
      <point x="368" y="579" type="curve"/>
      <point x="449" y="579"/>
      <point x="471" y="542"/>
      <point x="445" y="440" type="curve" smooth="yes"/>
      <point x="392" y="228" type="line" smooth="yes"/>
      <point x="376" y="161"/>
      <point x="322" y="121"/>
      <point x="253" y="121" type="curve" smooth="yes"/>
      <point x="221" y="121"/>
      <point x="119" y="121"/>
      <point x="68" y="121" type="curve"/>
      <point x="41" y="82"/>
      <point x="26" y="59"/>
      <point x="15" y="11" type="curve" smooth="yes"/>
      <point x="13" y="5"/>
      <point x="17" y="0"/>
      <point x="23" y="0" type="curve" smooth="yes"/>
      <point x="231" y="0" type="line" smooth="yes"/>
      <point x="384" y="0"/>
      <point x="491" y="77"/>
    </contour>
    <contour>
      <point x="399" y="711" type="move" name="top"/>
    </contour>
  </outline>
</glyph>
<glyph name="E" format="1">
  <advance width="600"/>
  <unicode hex="0045"/>
  <outline>
    <contour>
      <point x="137" y="700" type="line"/>
      <point x="128" y="661"/>
      <point x="120" y="628"/>
      <point x="110" y="590" type="curve" smooth="yes"/>
      <point x="109" y="587"/>
      <point x="109" y="584"/>
      <point x="111" y="582" type="curve" smooth="yes"/>
      <point x="112" y="580"/>
      <point x="115" y="579"/>
      <point x="118" y="579" type="curve" smooth="yes"/>
      <point x="616" y="579" type="line"/>
      <point x="625" y="617"/>
      <point x="633" y="650"/>
      <point x="643" y="689" type="curve" smooth="yes"/>
      <point x="644" y="692"/>
      <point x="644" y="695"/>
      <point x="642" y="697" type="curve" smooth="yes"/>
      <point x="640" y="699"/>
      <point x="638" y="700"/>
      <point x="635" y="700" type="curve" smooth="yes"/>
    </contour>
    <contour>
      <point x="174" y="83" type="curve"/>
      <point x="314" y="646" type="line" smooth="yes"/>
      <point x="315" y="652"/>
      <point x="312" y="657"/>
      <point x="176" y="657" type="curve"/>
      <point x="42" y="121" type="line"/>
      <point x="37" y="103"/>
      <point x="58" y="83"/>
    </contour>
    <contour>
      <point x="42" y="121" type="line"/>
      <point x="15" y="11" type="line" smooth="yes"/>
      <point x="13" y="5"/>
      <point x="17" y="0"/>
      <point x="23" y="0" type="curve" smooth="yes"/>
      <point x="471" y="0" type="line"/>
      <point x="480" y="39"/>
      <point x="488" y="71"/>
      <point x="499" y="110" type="curve" smooth="yes"/>
      <point x="500" y="116"/>
      <point x="496" y="121"/>
      <point x="490" y="121" type="curve" smooth="yes"/>
    </contour>
    <contour>
      <point x="176" y="413" type="line"/>
      <point x="148" y="301"/>
      <point x="152" y="296"/>
      <point x="158" y="296" type="curve" smooth="yes"/>
      <point x="486" y="296" type="line"/>
      <point x="494" y="329"/>
      <point x="503" y="363"/>
      <point x="513" y="402" type="curve" smooth="yes"/>
      <point x="514" y="405"/>
      <point x="514" y="408"/>
      <point x="512" y="410" type="curve" smooth="yes"/>
      <point x="511" y="412"/>
      <point x="508" y="413"/>
      <point x="505" y="413" type="curve" smooth="yes"/>
    </contour>
    <contour>
      <point x="410" y="711" type="move" name="top"/>
    </contour>
    <contour>
      <point x="470" y="-1" type="move" name="ogonek"/>
    </contour>
    <contour>
      <point x="252" y="-1" type="move" name="bottom"/>
    </contour>
  </outline>
</glyph>
<glyph name="F" format="1">
  <advance width="600"/>
  <unicode hex="0046"/>
  <outline>
    <contour>
      <point x="174" y="0" type="curve"/>
      <point x="181" y="29"/>
      <point x="190" y="63"/>
      <point x="199" y="98" type="curve" smooth="yes"/>
      <point x="333" y="640" type="line"/>
      <point x="336" y="650"/>
      <point x="325" y="656"/>
      <point x="196" y="656" type="curve"/>
      <point x="35" y="11" type="line" smooth="yes"/>
      <point x="33" y="5"/>
      <point x="37" y="0"/>
      <point x="43" y="0" type="curve" smooth="yes"/>
      <point x="87" y="0"/>
      <point x="130" y="0"/>
    </contour>
    <contour>
      <point x="158" y="700" type="line"/>
      <point x="149" y="661"/>
      <point x="141" y="628"/>
      <point x="131" y="590" type="curve" smooth="yes"/>
      <point x="130" y="587"/>
      <point x="130" y="584"/>
      <point x="132" y="582" type="curve" smooth="yes"/>
      <point x="133" y="580"/>
      <point x="136" y="579"/>
      <point x="139" y="579" type="curve"/>
      <point x="616" y="579" type="line"/>
      <point x="625" y="617"/>
      <point x="633" y="650"/>
      <point x="643" y="689" type="curve" smooth="yes"/>
      <point x="644" y="692"/>
      <point x="644" y="695"/>
      <point x="642" y="697" type="curve" smooth="yes"/>
      <point x="641" y="699"/>
      <point x="638" y="700"/>
      <point x="635" y="700" type="curve"/>
    </contour>
    <contour>
      <point x="191" y="385" type="line"/>
      <point x="164" y="278"/>
      <point x="163" y="265"/>
      <point x="171" y="265" type="curve"/>
      <point x="495" y="265" type="line"/>
      <point x="505" y="303"/>
      <point x="513" y="335"/>
      <point x="523" y="373" type="curve"/>
      <point x="524" y="377"/>
      <point x="523" y="380"/>
      <point x="522" y="382" type="curve" smooth="yes"/>
      <point x="520" y="384"/>
      <point x="518" y="385"/>
      <point x="515" y="385" type="curve"/>
    </contour>
  </outline>
</glyph>
<glyph name="G" format="1">
  <advance width="578"/>
  <unicode hex="0047"/>
  <outline>
    <contour>
      <point x="395" y="601" type="curve" smooth="yes"/>
      <point x="462" y="601"/>
      <point x="493" y="590"/>
      <point x="527" y="554" type="curve"/>
      <point x="603" y="619"/>
      <point x="611" y="629"/>
      <point x="613" y="639" type="curve" smooth="yes"/>
      <point x="616" y="650"/>
      <point x="616" y="653"/>
      <point x="612" y="658" type="curve" smooth="yes"/>
      <point x="587" y="691"/>
      <point x="521" y="720"/>
      <point x="417" y="720" type="curve" smooth="yes"/>
      <point x="256" y="720"/>
      <point x="148" y="642"/>
      <point x="106" y="474" type="curve" smooth="yes"/>
      <point x="51" y="256" type="line" smooth="yes"/>
      <point x="38" y="200"/>
      <point x="77" y="125"/>
      <point x="152" y="126" type="curve"/>
      <point x="161" y="162"/>
      <point x="168" y="189"/>
      <point x="179" y="237" type="curve" smooth="yes"/>
      <point x="236" y="463" type="line" smooth="yes"/>
      <point x="259" y="556"/>
      <point x="307" y="601"/>
    </contour>
    <contour>
      <point x="260" y="100" type="curve" smooth="yes"/>
      <point x="187" y="100"/>
      <point x="157" y="145"/>
      <point x="179" y="237" type="curve"/>
      <point x="74" y="278"/>
      <point x="59" y="285"/>
      <point x="51" y="256" type="curve" smooth="yes"/>
      <point x="12" y="96"/>
      <point x="71" y="-20"/>
      <point x="245" y="-20" type="curve" smooth="yes"/>
      <point x="388" y="-20"/>
      <point x="471" y="56"/>
      <point x="475" y="71" type="curve" smooth="yes"/>
      <point x="528" y="283" type="line" smooth="yes"/>
      <point x="532" y="301"/>
      <point x="448" y="308"/>
      <point x="409" y="308" type="curve"/>
      <point x="395" y="253"/>
      <point x="381" y="194"/>
      <point x="367" y="137" type="curve" smooth="yes"/>
      <point x="365" y="131"/>
      <point x="326" y="100"/>
    </contour>
    <contour>
      <point x="329" y="381" type="line"/>
      <point x="320" y="346"/>
      <point x="311" y="312"/>
      <point x="302" y="277" type="curve" smooth="yes"/>
      <point x="302" y="274"/>
      <point x="302" y="271"/>
      <point x="303" y="269" type="curve" smooth="yes"/>
      <point x="305" y="267"/>
      <point x="308" y="266"/>
      <point x="311" y="266" type="curve"/>
      <point x="561" y="266" type="line"/>
      <point x="586" y="370" type="line" smooth="yes"/>
      <point x="588" y="376"/>
      <point x="584" y="381"/>
      <point x="578" y="381" type="curve" smooth="yes"/>
    </contour>
    <contour>
      <point x="578" y="496" type="curve"/>
      <point x="613" y="639" type="line" smooth="yes"/>
      <point x="618" y="655"/>
      <point x="610" y="661"/>
      <point x="494" y="661" type="curve"/>
      <point x="491" y="646"/>
      <point x="485" y="623"/>
      <point x="481" y="610" type="curve" smooth="yes"/>
      <point x="456" y="507" type="line" smooth="yes"/>
      <point x="454" y="500"/>
      <point x="457" y="496"/>
      <point x="464" y="496" type="curve" smooth="yes"/>
      <point x="502" y="496"/>
      <point x="540" y="496"/>
    </contour>
    <contour>
      <point x="418" y="711" type="move" name="top"/>
    </contour>
    <contour>
      <point x="240" y="-1" type="move" name="bottom"/>
    </contour>
  </outline>
</glyph>
<glyph name="H" format="1">
  <advance width="600"/>
  <unicode hex="0048"/>
  <outline>
    <contour>
      <point x="179" y="700" type="curve"/>
      <point x="171" y="665"/>
      <point x="162" y="630"/>
      <point x="153" y="594" type="curve" smooth="yes"/>
      <point x="7" y="11" type="line" smooth="yes"/>
      <point x="5" y="5"/>
      <point x="9" y="0"/>
      <point x="15" y="0" type="curve" smooth="yes"/>
      <point x="59" y="0"/>
      <point x="102" y="0"/>
      <point x="146" y="0" type="curve"/>
      <point x="318" y="689" type="line" smooth="yes"/>
      <point x="319" y="692"/>
      <point x="319" y="695"/>
      <point x="317" y="697" type="curve" smooth="yes"/>
      <point x="316" y="699"/>
      <point x="313" y="700"/>
      <point x="310" y="700" type="curve" smooth="yes"/>
      <point x="266" y="700"/>
      <point x="223" y="700"/>
    </contour>
    <contour>
      <point x="460" y="0" type="curve"/>
      <point x="468" y="32"/>
      <point x="478" y="69"/>
      <point x="488" y="108" type="curve" smooth="yes"/>
      <point x="632" y="689" type="line" smooth="yes"/>
      <point x="634" y="695"/>
      <point x="630" y="700"/>
      <point x="624" y="700" type="curve" smooth="yes"/>
      <point x="581" y="700"/>
      <point x="538" y="700"/>
      <point x="494" y="700" type="curve"/>
      <point x="322" y="11" type="line" smooth="yes"/>
      <point x="321" y="8"/>
      <point x="321" y="5"/>
      <point x="323" y="3" type="curve" smooth="yes"/>
      <point x="324" y="1"/>
      <point x="327" y="0"/>
      <point x="330" y="0" type="curve" smooth="yes"/>
      <point x="374" y="0"/>
      <point x="417" y="0"/>
    </contour>
    <contour>
      <point x="168" y="413" type="line"/>
      <point x="140" y="303" type="line" smooth="yes"/>
      <point x="139" y="300"/>
      <point x="139" y="297"/>
      <point x="141" y="295" type="curve" smooth="yes"/>
      <point x="142" y="293"/>
      <point x="145" y="292"/>
      <point x="148" y="292" type="curve"/>
      <point x="472" y="292" type="line"/>
      <point x="502" y="414"/>
      <point x="497" y="413"/>
      <point x="491" y="413" type="curve" smooth="yes"/>
    </contour>
    <contour>
      <point x="410" y="711" type="move" name="top"/>
    </contour>
  </outline>
</glyph>
<glyph name="I" format="1">
  <advance width="600"/>
  <unicode hex="0049"/>
  <outline>
    <contour>
      <point x="315" y="45" type="curve"/>
      <point x="464" y="644" type="line" smooth="yes"/>
      <point x="465" y="650"/>
      <point x="462" y="655"/>
      <point x="326" y="655" type="curve"/>
      <point x="176" y="56" type="line" smooth="yes"/>
      <point x="174" y="50"/>
      <point x="178" y="45"/>
    </contour>
    <contour>
      <point x="181" y="700" type="line"/>
      <point x="171" y="661"/>
      <point x="163" y="628"/>
      <point x="154" y="590" type="curve"/>
      <point x="153" y="587"/>
      <point x="153" y="584"/>
      <point x="155" y="582" type="curve" smooth="yes"/>
      <point x="156" y="580"/>
      <point x="159" y="579"/>
      <point x="162" y="579" type="curve" smooth="yes"/>
      <point x="604" y="579" type="line"/>
      <point x="613" y="617"/>
      <point x="621" y="650"/>
      <point x="631" y="689" type="curve" smooth="yes"/>
      <point x="633" y="695"/>
      <point x="629" y="700"/>
      <point x="623" y="700" type="curve" smooth="yes"/>
    </contour>
    <contour>
      <point x="36" y="121" type="line"/>
      <point x="26" y="83"/>
      <point x="18" y="50"/>
      <point x="9" y="11" type="curve"/>
      <point x="8" y="8"/>
      <point x="8" y="5"/>
      <point x="10" y="3" type="curve" smooth="yes"/>
      <point x="11" y="1"/>
      <point x="14" y="0"/>
      <point x="17" y="0" type="curve" smooth="yes"/>
      <point x="459" y="0" type="line"/>
      <point x="469" y="39"/>
      <point x="477" y="72"/>
      <point x="487" y="110" type="curve" smooth="yes"/>
      <point x="488" y="116"/>
      <point x="484" y="121"/>
      <point x="478" y="121" type="curve" smooth="yes"/>
    </contour>
    <contour>
      <point x="410" y="711" type="move" name="top"/>
    </contour>
    <contour>
      <point x="459" y="-1" type="move" name="ogonek"/>
    </contour>
    <contour>
      <point x="232" y="-1" type="move" name="bottom"/>
    </contour>
  </outline>
</glyph>
<glyph name="J" format="1">
  <advance width="600"/>
  <unicode hex="004A"/>
  <outline>
    <contour>
      <point x="232" y="700" type="line"/>
      <point x="222" y="661"/>
      <point x="214" y="628"/>
      <point x="204" y="590" type="curve" smooth="yes"/>
      <point x="203" y="587"/>
      <point x="204" y="584"/>
      <point x="205" y="582" type="curve" smooth="yes"/>
      <point x="207" y="580"/>
      <point x="209" y="579"/>
      <point x="212" y="579" type="curve" smooth="yes"/>
      <point x="544" y="579" type="line"/>
      <point x="558" y="632"/>
      <point x="556" y="700"/>
      <point x="511" y="700" type="curve"/>
    </contour>
    <contour>
      <point x="495" y="223" type="curve" smooth="yes"/>
      <point x="612" y="689" type="line" smooth="yes"/>
      <point x="614" y="695"/>
      <point x="610" y="700"/>
      <point x="604" y="700" type="curve" smooth="yes"/>
      <point x="473" y="700" type="line"/>
      <point x="354" y="226" type="line" smooth="yes"/>
      <point x="339" y="165"/>
      <point x="332" y="140"/>
      <point x="324" y="105" type="curve"/>
      <point x="431" y="105"/>
      <point x="471" y="126"/>
    </contour>
    <contour>
      <point x="220" y="104" type="curve" smooth="yes"/>
      <point x="157" y="104"/>
      <point x="116" y="115"/>
      <point x="72" y="142" type="curve"/>
      <point x="54" y="142" type="line"/>
      <point x="44" y="106"/>
      <point x="36" y="74"/>
      <point x="27" y="38" type="curve"/>
      <point x="27" y="34"/>
      <point x="27" y="31"/>
      <point x="28" y="28" type="curve" smooth="yes"/>
      <point x="45" y="7"/>
      <point x="108" y="-20"/>
      <point x="202" y="-20" type="curve" smooth="yes"/>
      <point x="209" y="-20" type="line" smooth="yes"/>
      <point x="361" y="-20"/>
      <point x="456" y="63"/>
      <point x="495" y="223" type="curve"/>
      <point x="501" y="242"/>
      <point x="499" y="264"/>
      <point x="354" y="226" type="curve"/>
      <point x="331" y="136"/>
      <point x="289" y="104"/>
    </contour>
    <contour>
      <point x="406" y="711" type="move" name="top"/>
    </contour>
  </outline>
</glyph>
<glyph name="L" format="1">
  <advance width="600"/>
  <unicode hex="004C"/>
  <outline>
    <contour>
      <point x="168" y="83" type="curve"/>
      <point x="319" y="689" type="line" smooth="yes"/>
      <point x="320" y="692"/>
      <point x="320" y="695"/>
      <point x="318" y="697" type="curve" smooth="yes"/>
      <point x="317" y="699"/>
      <point x="314" y="700"/>
      <point x="311" y="700" type="curve" smooth="yes"/>
      <point x="267" y="700"/>
      <point x="224" y="700"/>
      <point x="181" y="700" type="curve"/>
      <point x="173" y="667"/>
      <point x="164" y="633"/>
      <point x="156" y="600" type="curve" smooth="yes"/>
      <point x="36" y="121" type="line" smooth="yes"/>
      <point x="35" y="115"/>
      <point x="32" y="83"/>
    </contour>
    <contour>
      <point x="36" y="121" type="line"/>
      <point x="9" y="11" type="line" smooth="yes"/>
      <point x="7" y="5"/>
      <point x="11" y="0"/>
      <point x="17" y="0" type="curve" smooth="yes"/>
      <point x="471" y="0" type="line"/>
      <point x="480" y="39"/>
      <point x="488" y="72"/>
      <point x="499" y="110" type="curve" smooth="yes"/>
      <point x="500" y="116"/>
      <point x="496" y="121"/>
      <point x="490" y="121" type="curve" smooth="yes"/>
    </contour>
    <contour>
      <point x="505" y="550" type="move" name="caronslovak"/>
    </contour>
    <contour>
      <point x="254" y="711" type="move" name="top"/>
    </contour>
    <contour>
      <point x="444" y="400" type="move" name="dot"/>
    </contour>
    <contour>
      <point x="238" y="-1" type="move" name="bottom"/>
    </contour>
  </outline>
</glyph>
<glyph name="M" format="1">
  <advance width="600"/>
  <unicode hex="004D"/>
  <outline>
    <contour>
      <point x="119" y="0" type="curve"/>
      <point x="133" y="54"/>
      <point x="146" y="109"/>
      <point x="160" y="163" type="curve" smooth="yes"/>
      <point x="175" y="224"/>
      <point x="227" y="562"/>
      <point x="259" y="690" type="curve" smooth="yes"/>
      <point x="259" y="693"/>
      <point x="259" y="695"/>
      <point x="257" y="697" type="curve" smooth="yes"/>
      <point x="256" y="699"/>
      <point x="253" y="700"/>
      <point x="250" y="700" type="curve" smooth="yes"/>
      <point x="221" y="700"/>
      <point x="182" y="700"/>
      <point x="161" y="700" type="curve"/>
      <point x="153" y="667"/>
      <point x="144" y="633"/>
      <point x="136" y="600" type="curve" smooth="yes"/>
      <point x="-11" y="11" type="line" smooth="yes"/>
      <point x="-12" y="8"/>
      <point x="-12" y="5"/>
      <point x="-10" y="3" type="curve" smooth="yes"/>
      <point x="-9" y="1"/>
      <point x="-6" y="0"/>
      <point x="-3" y="0" type="curve" smooth="yes"/>
      <point x="38" y="0"/>
      <point x="79" y="0"/>
    </contour>
    <contour>
      <point x="478" y="0" type="curve"/>
      <point x="486" y="33"/>
      <point x="495" y="67"/>
      <point x="503" y="100" type="curve" smooth="yes"/>
      <point x="650" y="689" type="line" smooth="yes"/>
      <point x="651" y="692"/>
      <point x="651" y="695"/>
      <point x="649" y="697" type="curve" smooth="yes"/>
      <point x="648" y="699"/>
      <point x="645" y="700"/>
      <point x="642" y="700" type="curve" smooth="yes"/>
      <point x="554" y="700" type="line"/>
      <point x="553" y="696"/>
      <point x="552" y="694"/>
      <point x="551" y="690" type="curve" smooth="yes"/>
      <point x="520" y="566"/>
      <point x="401" y="223"/>
      <point x="386" y="163" type="curve" smooth="yes"/>
      <point x="373" y="112"/>
      <point x="361" y="62"/>
      <point x="348" y="11" type="curve" smooth="yes"/>
      <point x="347" y="8"/>
      <point x="347" y="5"/>
      <point x="349" y="3" type="curve" smooth="yes"/>
      <point x="350" y="1"/>
      <point x="353" y="0"/>
      <point x="356" y="0" type="curve"/>
      <point x="397" y="0"/>
      <point x="438" y="0"/>
    </contour>
    <contour>
      <point x="190" y="700" type="line"/>
      <point x="213" y="523"/>
      <point x="237" y="346"/>
      <point x="259" y="172" type="curve"/>
      <point x="261" y="165"/>
      <point x="265" y="164"/>
      <point x="269" y="164" type="curve"/>
      <point x="283" y="164"/>
      <point x="311" y="246"/>
      <point x="328" y="311" type="curve"/>
      <point x="314" y="439"/>
      <point x="301" y="564"/>
      <point x="288" y="690" type="curve"/>
      <point x="287" y="696"/>
      <point x="283" y="700"/>
      <point x="276" y="700" type="curve"/>
    </contour>
    <contour>
      <point x="555" y="700" type="curve" smooth="yes"/>
      <point x="545" y="700"/>
      <point x="532" y="700"/>
      <point x="522" y="700" type="curve"/>
      <point x="443" y="570"/>
      <point x="364" y="439"/>
      <point x="284" y="310" type="curve"/>
      <point x="261" y="270"/>
      <point x="255" y="164"/>
      <point x="269" y="164" type="curve"/>
      <point x="280" y="164" type="line"/>
      <point x="387" y="326"/>
      <point x="492" y="487"/>
      <point x="598" y="649" type="curve"/>
      <point x="615" y="678"/>
      <point x="600" y="700"/>
    </contour>
  </outline>
</glyph>
<glyph name="N" format="1">
  <advance width="600"/>
  <unicode hex="004E"/>
  <outline>
    <contour>
      <point x="129" y="0" type="curve"/>
      <point x="192" y="253" type="line"/>
      <point x="201" y="286"/>
      <point x="270" y="693"/>
      <point x="267" y="697" type="curve" smooth="yes"/>
      <point x="266" y="699"/>
      <point x="263" y="700"/>
      <point x="260" y="700" type="curve"/>
      <point x="231" y="700"/>
      <point x="177" y="700"/>
      <point x="171" y="700" type="curve"/>
      <point x="159" y="653"/>
      <point x="148" y="607"/>
      <point x="136" y="560" type="curve" smooth="yes"/>
      <point x="-1" y="11" type="line"/>
      <point x="-3" y="5"/>
      <point x="1" y="0"/>
      <point x="7" y="0" type="curve"/>
      <point x="47" y="0"/>
      <point x="89" y="0"/>
    </contour>
    <contour>
      <point x="469" y="0" type="line"/>
      <point x="641" y="689" type="line"/>
      <point x="643" y="695"/>
      <point x="639" y="700"/>
      <point x="633" y="700" type="curve"/>
      <point x="511" y="700" type="line"/>
      <point x="439" y="411" type="line"/>
      <point x="433" y="387"/>
      <point x="371" y="5"/>
      <point x="373" y="3" type="curve" smooth="yes"/>
      <point x="374" y="1"/>
      <point x="377" y="0"/>
      <point x="380" y="0" type="curve"/>
    </contour>
    <contour>
      <point x="260" y="700" type="line"/>
      <point x="186" y="698"/>
      <point x="189" y="687"/>
      <point x="192" y="674" type="curve" smooth="yes"/>
      <point x="243" y="452"/>
      <point x="292" y="229"/>
      <point x="343" y="8" type="curve"/>
      <point x="344" y="1"/>
      <point x="349" y="0"/>
      <point x="353" y="0" type="curve" smooth="yes"/>
      <point x="361" y="0"/>
      <point x="383" y="0"/>
      <point x="390" y="0" type="curve"/>
      <point x="401" y="2"/>
      <point x="415" y="89"/>
      <point x="425" y="137" type="curve"/>
      <point x="385" y="323"/>
      <point x="344" y="510"/>
      <point x="306" y="690" type="curve"/>
      <point x="304" y="699"/>
      <point x="302" y="700"/>
      <point x="291" y="700" type="curve"/>
    </contour>
    <contour>
      <point x="410" y="710" type="move" name="top"/>
    </contour>
    <contour>
      <point x="232" y="-1" type="move" name="bottom"/>
    </contour>
  </outline>
</glyph>
<glyph name="O" format="1">
  <advance width="600"/>
  <unicode hex="004F"/>
  <outline>
    <contour>
      <point x="394" y="720" type="curve" smooth="yes"/>
      <point x="252" y="720"/>
      <point x="153" y="648"/>
      <point x="110" y="482" type="curve" smooth="yes"/>
      <point x="52" y="248" type="line" smooth="yes"/>
      <point x="8" y="76"/>
      <point x="93" y="-20"/>
      <point x="241" y="-20" type="curve" smooth="yes"/>
      <point x="256" y="-20"/>
      <point x="267" y="-2"/>
      <point x="259" y="101" type="curve"/>
      <point x="179" y="101"/>
      <point x="161" y="152"/>
      <point x="184" y="245" type="curve" smooth="yes"/>
      <point x="241" y="472" type="line" smooth="yes"/>
      <point x="263" y="559"/>
      <point x="312" y="599"/>
      <point x="378" y="599" type="curve" smooth="yes"/>
      <point x="433" y="599"/>
      <point x="462" y="599"/>
      <point x="483" y="599" type="curve"/>
      <point x="497" y="656"/>
      <point x="488" y="720"/>
    </contour>
    <contour>
      <point x="241" y="-20" type="curve" smooth="yes"/>
      <point x="379" y="-20"/>
      <point x="485" y="44"/>
      <point x="528" y="219" type="curve" smooth="yes"/>
      <point x="587" y="454" type="line" smooth="yes"/>
      <point x="629" y="624"/>
      <point x="541" y="720"/>
      <point x="394" y="720" type="curve" smooth="yes"/>
      <point x="379" y="720"/>
      <point x="369" y="702"/>
      <point x="378" y="599" type="curve"/>
      <point x="458" y="599"/>
      <point x="478" y="550"/>
      <point x="455" y="457" type="curve" smooth="yes"/>
      <point x="398" y="230" type="line" smooth="yes"/>
      <point x="376" y="142"/>
      <point x="326" y="101"/>
      <point x="259" y="101" type="curve" smooth="yes"/>
      <point x="204" y="101"/>
      <point x="175" y="101"/>
      <point x="155" y="101" type="curve"/>
      <point x="141" y="43"/>
      <point x="149" y="-20"/>
    </contour>
    <contour>
      <point x="410" y="711" type="move" name="top"/>
    </contour>
    <contour>
      <point x="335" y="-1" type="move" name="ogonek"/>
    </contour>
    <contour>
      <point x="232" y="-1" type="move" name="bottom"/>
    </contour>
  </outline>
</glyph>
<glyph name="P" format="1">
  <advance width="600"/>
  <unicode hex="0050"/>
  <outline>
    <contour>
      <point x="149" y="0" type="curve"/>
      <point x="157" y="33"/>
      <point x="165" y="67"/>
      <point x="174" y="100" type="curve" smooth="yes"/>
      <point x="310" y="644" type="line" smooth="yes"/>
      <point x="311" y="650"/>
      <point x="308" y="655"/>
      <point x="176" y="655" type="curve"/>
      <point x="15" y="11" type="line" smooth="yes"/>
      <point x="14" y="8"/>
      <point x="14" y="5"/>
      <point x="16" y="3" type="curve" smooth="yes"/>
      <point x="17" y="1"/>
      <point x="20" y="0"/>
      <point x="23" y="0" type="curve" smooth="yes"/>
      <point x="65" y="0"/>
      <point x="107" y="0"/>
    </contour>
    <contour>
      <point x="146" y="700" type="curve"/>
      <point x="136" y="661"/>
      <point x="128" y="628"/>
      <point x="119" y="590" type="curve"/>
      <point x="118" y="587"/>
      <point x="118" y="584"/>
      <point x="120" y="582" type="curve" smooth="yes"/>
      <point x="121" y="580"/>
      <point x="124" y="579"/>
      <point x="127" y="579" type="curve" smooth="yes"/>
      <point x="146" y="579"/>
      <point x="168" y="579"/>
      <point x="191" y="579" type="curve" smooth="yes"/>
      <point x="254" y="579"/>
      <point x="332" y="579"/>
      <point x="387" y="579" type="curve" smooth="yes"/>
      <point x="438" y="579"/>
      <point x="460" y="579"/>
      <point x="487" y="579" type="curve"/>
      <point x="504" y="650"/>
      <point x="480" y="700"/>
      <point x="413" y="700" type="curve" smooth="yes"/>
      <point x="340" y="700"/>
      <point x="223" y="700"/>
    </contour>
    <contour>
      <point x="578" y="406" type="curve" smooth="yes"/>
      <point x="595" y="476" type="line" smooth="yes"/>
      <point x="629" y="613"/>
      <point x="578" y="700"/>
      <point x="413" y="700" type="curve"/>
      <point x="408" y="700"/>
      <point x="390" y="685"/>
      <point x="387" y="579" type="curve"/>
      <point x="454" y="579"/>
      <point x="473" y="555"/>
      <point x="457" y="492" type="curve" smooth="yes"/>
      <point x="440" y="421" type="line" smooth="yes"/>
      <point x="427" y="372"/>
      <point x="390" y="341"/>
      <point x="341" y="341" type="curve" smooth="yes"/>
      <point x="314" y="341"/>
      <point x="236" y="341"/>
      <point x="194" y="341" type="curve"/>
      <point x="183" y="301"/>
      <point x="178" y="278"/>
      <point x="166" y="231" type="curve" smooth="yes"/>
      <point x="165" y="225"/>
      <point x="169" y="220"/>
      <point x="175" y="220" type="curve" smooth="yes"/>
      <point x="319" y="220" type="line" smooth="yes"/>
      <point x="451" y="220"/>
      <point x="544" y="274"/>
    </contour>
  </outline>
</glyph>
<glyph name="Q" format="1">
  <advance width="600"/>
  <unicode hex="0051"/>
  <outline>
    <contour>
      <point x="394" y="720" type="curve" smooth="yes"/>
      <point x="252" y="720"/>
      <point x="153" y="648"/>
      <point x="110" y="482" type="curve" smooth="yes"/>
      <point x="52" y="248" type="line" smooth="yes"/>
      <point x="8" y="76"/>
      <point x="93" y="-20"/>
      <point x="241" y="-20" type="curve" smooth="yes"/>
      <point x="256" y="-20"/>
      <point x="267" y="-2"/>
      <point x="259" y="101" type="curve"/>
      <point x="180" y="101"/>
      <point x="161" y="152"/>
      <point x="184" y="245" type="curve" smooth="yes"/>
      <point x="241" y="472" type="line" smooth="yes"/>
      <point x="263" y="559"/>
      <point x="312" y="599"/>
      <point x="378" y="599" type="curve" smooth="yes"/>
      <point x="433" y="599"/>
      <point x="462" y="599"/>
      <point x="483" y="599" type="curve"/>
      <point x="497" y="656"/>
      <point x="488" y="720"/>
    </contour>
    <contour>
      <point x="241" y="-20" type="curve" smooth="yes"/>
      <point x="379" y="-20"/>
      <point x="485" y="44"/>
      <point x="528" y="219" type="curve" smooth="yes"/>
      <point x="587" y="454" type="line" smooth="yes"/>
      <point x="629" y="624"/>
      <point x="541" y="720"/>
      <point x="394" y="720" type="curve" smooth="yes"/>
      <point x="379" y="720"/>
      <point x="370" y="702"/>
      <point x="378" y="599" type="curve"/>
      <point x="458" y="599"/>
      <point x="478" y="550"/>
      <point x="455" y="457" type="curve" smooth="yes"/>
      <point x="398" y="230" type="line" smooth="yes"/>
      <point x="376" y="142"/>
      <point x="327" y="101"/>
      <point x="259" y="101" type="curve" smooth="yes"/>
      <point x="204" y="101"/>
      <point x="175" y="101"/>
      <point x="155" y="101" type="curve"/>
      <point x="141" y="43"/>
      <point x="149" y="-20"/>
    </contour>
    <contour>
      <point x="390" y="110" type="line"/>
      <point x="268" y="66"/>
      <point x="259" y="64"/>
      <point x="267" y="44" type="curve" smooth="yes"/>
      <point x="312" y="-75" type="line" smooth="yes"/>
      <point x="332" y="-130"/>
      <point x="354" y="-151"/>
      <point x="423" y="-151" type="curve" smooth="yes"/>
      <point x="452" y="-151" type="line" smooth="yes"/>
      <point x="459" y="-151"/>
      <point x="464" y="-147"/>
      <point x="466" y="-140" type="curve" smooth="yes"/>
      <point x="477" y="-98"/>
      <point x="486" y="-61"/>
      <point x="497" y="-17" type="curve"/>
      <point x="491" y="-17" type="line"/>
      <point x="485" y="-17"/>
      <point x="482" y="-17"/>
      <point x="475" y="-17" type="curve" smooth="yes"/>
      <point x="446" y="-17"/>
      <point x="433" y="-14"/>
      <point x="425" y="10" type="curve" smooth="yes"/>
    </contour>
  </outline>
</glyph>
<glyph name="S" format="1">
  <advance width="600"/>
  <unicode hex="0053"/>
  <outline>
    <contour>
      <point x="429" y="719" type="curve" smooth="yes"/>
      <point x="275" y="719"/>
      <point x="172" y="665"/>
      <point x="142" y="549" type="curve" smooth="yes"/>
      <point x="130" y="501" type="line" smooth="yes"/>
      <point x="123" y="472"/>
      <point x="172" y="426"/>
      <point x="240" y="425" type="curve"/>
      <point x="248" y="452"/>
      <point x="259" y="499"/>
      <point x="266" y="527" type="curve" smooth="yes"/>
      <point x="280" y="580"/>
      <point x="325" y="601"/>
      <point x="403" y="601" type="curve" smooth="yes"/>
      <point x="452" y="601"/>
      <point x="516" y="587"/>
      <point x="551" y="566" type="curve"/>
      <point x="607" y="628"/>
      <point x="611" y="636"/>
      <point x="614" y="646" type="curve" smooth="yes"/>
      <point x="616" y="659"/>
      <point x="616" y="660"/>
      <point x="612" y="665" type="curve" smooth="yes"/>
      <point x="595" y="688"/>
      <point x="521" y="719"/>
    </contour>
    <contour>
      <point x="405" y="387" type="curve" smooth="yes"/>
      <point x="320" y="415" type="line" smooth="yes"/>
      <point x="254" y="435"/>
      <point x="249" y="459"/>
      <point x="260" y="502" type="curve" smooth="yes"/>
      <point x="266" y="527"/>
      <point x="269" y="541"/>
      <point x="282" y="592" type="curve"/>
      <point x="198" y="590"/>
      <point x="154" y="592"/>
      <point x="130" y="501" type="curve" smooth="yes"/>
      <point x="114" y="435"/>
      <point x="130" y="350"/>
      <point x="248" y="312" type="curve" smooth="yes"/>
      <point x="334" y="283" type="line" smooth="yes"/>
      <point x="400" y="261"/>
      <point x="405" y="240"/>
      <point x="397" y="204" type="curve" smooth="yes"/>
      <point x="390" y="178"/>
      <point x="377" y="129"/>
      <point x="368" y="92" type="curve"/>
      <point x="426" y="92"/>
      <point x="508" y="137"/>
      <point x="524" y="198" type="curve"/>
      <point x="545" y="281"/>
      <point x="515" y="350"/>
    </contour>
    <contour>
      <point x="240" y="-19" type="curve" smooth="yes"/>
      <point x="388" y="-19"/>
      <point x="482" y="30"/>
      <point x="512" y="149" type="curve" smooth="yes"/>
      <point x="524" y="197" type="line" smooth="yes"/>
      <point x="529" y="216"/>
      <point x="483" y="251"/>
      <point x="408" y="251" type="curve"/>
      <point x="400" y="219"/>
      <point x="394" y="195"/>
      <point x="387" y="168" type="curve" smooth="yes"/>
      <point x="378" y="133"/>
      <point x="336" y="104"/>
      <point x="253" y="104" type="curve" smooth="yes"/>
      <point x="161" y="104"/>
      <point x="108" y="130"/>
      <point x="58" y="172" type="curve"/>
      <point x="39" y="172" type="line"/>
      <point x="33" y="147"/>
      <point x="23" y="110"/>
      <point x="11" y="63" type="curve" smooth="yes"/>
      <point x="10" y="59"/>
      <point x="9" y="56"/>
      <point x="12" y="52" type="curve" smooth="yes"/>
      <point x="38" y="17"/>
      <point x="126" y="-19"/>
    </contour>
    <contour>
      <point x="581" y="508" type="curve"/>
      <point x="614" y="646" type="line" smooth="yes"/>
      <point x="617" y="659"/>
      <point x="609" y="670"/>
      <point x="492" y="670" type="curve"/>
      <point x="489" y="658"/>
      <point x="485" y="641"/>
      <point x="481" y="623" type="curve" smooth="yes"/>
      <point x="454" y="519" type="line" smooth="yes"/>
      <point x="453" y="512"/>
      <point x="454" y="511"/>
      <point x="455" y="510" type="curve" smooth="yes"/>
      <point x="456" y="509"/>
      <point x="458" y="508"/>
      <point x="462" y="508" type="curve" smooth="yes"/>
      <point x="502" y="508"/>
      <point x="541" y="508"/>
    </contour>
    <contour>
      <point x="426" y="711" type="move" name="top"/>
    </contour>
    <contour>
      <point x="235" y="-1" type="move" name="bottom"/>
    </contour>
  </outline>
</glyph>
<glyph name="T" format="1">
  <advance width="600"/>
  <unicode hex="0054"/>
  <outline>
    <contour>
      <point x="159" y="700" type="line"/>
      <point x="150" y="663"/>
      <point x="141" y="626"/>
      <point x="132" y="590" type="curve" smooth="yes"/>
      <point x="131" y="587"/>
      <point x="131" y="584"/>
      <point x="133" y="582" type="curve" smooth="yes"/>
      <point x="134" y="580"/>
      <point x="137" y="579"/>
      <point x="140" y="579" type="curve" smooth="yes"/>
      <point x="626" y="579" type="line"/>
      <point x="634" y="615"/>
      <point x="644" y="653"/>
      <point x="653" y="689" type="curve" smooth="yes"/>
      <point x="655" y="695"/>
      <point x="651" y="700"/>
      <point x="645" y="700" type="curve" smooth="yes"/>
    </contour>
    <contour>
      <point x="303" y="0" type="curve"/>
      <point x="311" y="33"/>
      <point x="320" y="67"/>
      <point x="328" y="100" type="curve" smooth="yes"/>
      <point x="464" y="644" type="line" smooth="yes"/>
      <point x="465" y="650"/>
      <point x="462" y="655"/>
      <point x="326" y="655" type="curve"/>
      <point x="165" y="11" type="line" smooth="yes"/>
      <point x="164" y="8"/>
      <point x="164" y="5"/>
      <point x="166" y="3" type="curve" smooth="yes"/>
      <point x="167" y="1"/>
      <point x="170" y="0"/>
      <point x="173" y="0" type="curve" smooth="yes"/>
      <point x="216" y="0"/>
      <point x="259" y="0"/>
    </contour>
    <contour>
      <point x="410" y="711" type="move" name="top"/>
    </contour>
    <contour>
      <point x="232" y="-1" type="move" name="bottom"/>
    </contour>
  </outline>
</glyph>
<glyph name="U" format="1">
  <advance width="600"/>
  <unicode hex="0055"/>
  <outline>
    <contour>
      <point x="170" y="700" type="curve"/>
      <point x="162" y="667"/>
      <point x="153" y="633"/>
      <point x="145" y="600" type="curve" smooth="yes"/>
      <point x="35" y="156" type="line"/>
      <point x="23" y="112"/>
      <point x="78" y="108"/>
      <point x="163" y="108" type="curve"/>
      <point x="170" y="137"/>
      <point x="175" y="152"/>
      <point x="184" y="188" type="curve" smooth="yes"/>
      <point x="308" y="689" type="line"/>
      <point x="310" y="695"/>
      <point x="306" y="700"/>
      <point x="300" y="700" type="curve"/>
      <point x="257" y="700"/>
      <point x="214" y="700"/>
    </contour>
    <contour>
      <point x="143" y="-12" type="curve" smooth="yes"/>
      <point x="203" y="-12"/>
      <point x="274" y="18"/>
      <point x="331" y="67" type="curve" smooth="yes"/>
      <point x="396" y="120"/>
      <point x="430" y="173"/>
      <point x="426" y="237" type="curve"/>
      <point x="336" y="157"/>
      <point x="284" y="129"/>
      <point x="221" y="129" type="curve" smooth="yes"/>
      <point x="189" y="129"/>
      <point x="174" y="150"/>
      <point x="184" y="188" type="curve"/>
      <point x="80" y="188"/>
      <point x="37" y="170"/>
      <point x="35" y="156" type="curve" smooth="yes"/>
      <point x="11" y="64"/>
      <point x="45" y="-12"/>
    </contour>
    <contour>
      <point x="469" y="0" type="curve"/>
      <point x="477" y="32"/>
      <point x="486" y="69"/>
      <point x="496" y="108" type="curve" smooth="yes"/>
      <point x="641" y="689" type="line" smooth="yes"/>
      <point x="643" y="695"/>
      <point x="639" y="700"/>
      <point x="633" y="700" type="curve" smooth="yes"/>
      <point x="589" y="700"/>
      <point x="546" y="700"/>
      <point x="502" y="700" type="curve"/>
      <point x="330" y="11" type="line" smooth="yes"/>
      <point x="329" y="8"/>
      <point x="329" y="5"/>
      <point x="331" y="3" type="curve" smooth="yes"/>
      <point x="333" y="1"/>
      <point x="335" y="0"/>
      <point x="338" y="0" type="curve" smooth="yes"/>
      <point x="382" y="0"/>
      <point x="425" y="0"/>
    </contour>
    <contour>
      <point x="410" y="711" type="move" name="top"/>
    </contour>
    <contour>
      <point x="468" y="-1" type="move" name="ogonek"/>
    </contour>
    <contour>
      <point x="408" y="703" type="move" name="ring"/>
    </contour>
    <contour>
      <point x="223" y="-1" type="move" name="bottom"/>
    </contour>
  </outline>
</glyph>
<glyph name="W" format="1">
  <advance width="600"/>
  <unicode hex="0057"/>
  <outline>
    <contour>
      <point x="134" y="700" type="curve"/>
      <point x="102" y="471"/>
      <point x="71" y="241"/>
      <point x="40" y="13" type="curve"/>
      <point x="38" y="3"/>
      <point x="46" y="-2"/>
      <point x="55" y="-2" type="curve"/>
      <point x="78" y="-2" type="line" smooth="yes"/>
      <point x="100" y="-2"/>
      <point x="123" y="17"/>
      <point x="135" y="32" type="curve"/>
      <point x="175" y="248"/>
      <point x="215" y="467"/>
      <point x="254" y="683" type="curve"/>
      <point x="256" y="694"/>
      <point x="255" y="696"/>
      <point x="253" y="698" type="curve" smooth="yes"/>
      <point x="251" y="700"/>
      <point x="249" y="700"/>
      <point x="245" y="700" type="curve"/>
      <point x="207" y="700"/>
      <point x="172" y="700"/>
    </contour>
    <contour>
      <point x="554" y="700" type="curve"/>
      <point x="489" y="496"/>
      <point x="424" y="290"/>
      <point x="360" y="86" type="curve"/>
      <point x="341" y="32"/>
      <point x="334" y="15"/>
      <point x="319" y="-2" type="curve"/>
      <point x="425" y="-2" type="line"/>
      <point x="509" y="228"/>
      <point x="593" y="458"/>
      <point x="676" y="687" type="curve"/>
      <point x="678" y="693"/>
      <point x="679" y="695"/>
      <point x="677" y="697" type="curve" smooth="yes"/>
      <point x="676" y="699"/>
      <point x="675" y="700"/>
      <point x="671" y="700" type="curve"/>
      <point x="632" y="700"/>
      <point x="592" y="700"/>
    </contour>
    <contour>
      <point x="391" y="576" type="curve"/>
      <point x="331" y="576" type="line"/>
      <point x="266" y="413"/>
      <point x="201" y="250"/>
      <point x="135" y="86" type="curve"/>
      <point x="107" y="27"/>
      <point x="87" y="11"/>
      <point x="55" y="-2" type="curve"/>
      <point x="177" y="-2" type="line"/>
      <point x="251" y="184"/>
      <point x="325" y="371"/>
      <point x="398" y="557" type="curve"/>
      <point x="404" y="568"/>
      <point x="402" y="576"/>
    </contour>
    <contour>
      <point x="410" y="576" type="curve"/>
      <point x="347" y="576" type="line"/>
      <point x="328" y="389"/>
      <point x="308" y="200"/>
      <point x="289" y="13" type="curve"/>
      <point x="288" y="3"/>
      <point x="296" y="-2"/>
      <point x="305" y="-2" type="curve"/>
      <point x="337" y="-2" type="line"/>
      <point x="348" y="-2"/>
      <point x="359" y="8"/>
      <point x="365" y="23" type="curve"/>
      <point x="383" y="203"/>
      <point x="402" y="385"/>
      <point x="419" y="565" type="curve"/>
      <point x="420" y="572"/>
      <point x="416" y="576"/>
    </contour>
    <contour>
      <point x="409" y="711" type="move" name="top"/>
    </contour>
  </outline>
</glyph>
<glyph name="X" format="1">
  <advance width="600"/>
  <unicode hex="0058"/>
  <outline>
    <contour>
      <point x="385" y="0" type="curve" smooth="yes"/>
      <point x="429" y="0"/>
      <point x="463" y="0"/>
      <point x="508" y="0" type="curve"/>
      <point x="470" y="127"/>
      <point x="432" y="255"/>
      <point x="394" y="380" type="curve" smooth="yes"/>
      <point x="387" y="404"/>
      <point x="364" y="415"/>
      <point x="358" y="435" type="curve" smooth="yes"/>
      <point x="332" y="519"/>
      <point x="307" y="605"/>
      <point x="282" y="689" type="curve" smooth="yes"/>
      <point x="279" y="696"/>
      <point x="274" y="700"/>
      <point x="265" y="700" type="curve" smooth="yes"/>
      <point x="142" y="700" type="line"/>
      <point x="180" y="575"/>
      <point x="219" y="449"/>
      <point x="256" y="324" type="curve" smooth="yes"/>
      <point x="261" y="303"/>
      <point x="288" y="288"/>
      <point x="294" y="266" type="curve" smooth="yes"/>
      <point x="319" y="182"/>
      <point x="343" y="96"/>
      <point x="369" y="11" type="curve" smooth="yes"/>
      <point x="371" y="3"/>
      <point x="376" y="0"/>
    </contour>
    <contour>
      <point x="680" y="700" type="curve"/>
      <point x="542" y="700" type="line"/>
      <point x="459" y="594"/>
      <point x="376" y="488"/>
      <point x="292" y="381" type="curve"/>
      <point x="279" y="364"/>
      <point x="293" y="351"/>
      <point x="377" y="309" type="curve"/>
      <point x="479" y="433"/>
      <point x="582" y="557"/>
      <point x="684" y="681" type="curve"/>
      <point x="690" y="687"/>
      <point x="691" y="693"/>
      <point x="689" y="696" type="curve" smooth="yes"/>
      <point x="688" y="699"/>
      <point x="684" y="700"/>
    </contour>
    <contour>
      <point x="-32" y="0" type="curve" smooth="yes"/>
      <point x="116" y="0" type="line"/>
      <point x="199" y="107"/>
      <point x="281" y="213"/>
      <point x="364" y="320" type="curve"/>
      <point x="377" y="335"/>
      <point x="353" y="350"/>
      <point x="271" y="391" type="curve"/>
      <point x="169" y="267"/>
      <point x="66" y="143"/>
      <point x="-36" y="19" type="curve"/>
      <point x="-42" y="13"/>
      <point x="-43" y="7"/>
      <point x="-40" y="3" type="curve" smooth="yes"/>
      <point x="-39" y="1"/>
      <point x="-36" y="0"/>
    </contour>
  </outline>
</glyph>
<glyph name="Y" format="1">
  <advance width="600"/>
  <unicode hex="0059"/>
  <outline>
    <contour>
      <point x="127" y="700" type="line"/>
      <point x="161" y="549"/>
      <point x="198" y="396"/>
      <point x="231" y="245" type="curve"/>
      <point x="232" y="236"/>
      <point x="238" y="232"/>
      <point x="247" y="232" type="curve"/>
      <point x="303" y="232"/>
      <point x="340" y="301"/>
      <point x="332" y="332" type="curve"/>
      <point x="312" y="449"/>
      <point x="290" y="567"/>
      <point x="270" y="684" type="curve"/>
      <point x="270" y="694"/>
      <point x="266" y="700"/>
      <point x="257" y="700" type="curve" smooth="yes"/>
    </contour>
    <contour>
      <point x="532" y="700" type="line"/>
      <point x="452" y="577"/>
      <point x="371" y="455"/>
      <point x="291" y="332" type="curve"/>
      <point x="256" y="278"/>
      <point x="261" y="254"/>
      <point x="247" y="232" type="curve"/>
      <point x="347" y="232" type="line"/>
      <point x="456" y="382"/>
      <point x="567" y="533"/>
      <point x="677" y="682" type="curve"/>
      <point x="682" y="692"/>
      <point x="679" y="700"/>
      <point x="669" y="700" type="curve"/>
    </contour>
    <contour>
      <point x="302" y="0" type="curve"/>
      <point x="310" y="33"/>
      <point x="319" y="67"/>
      <point x="327" y="100" type="curve" smooth="yes"/>
      <point x="375" y="292" type="line" smooth="yes"/>
      <point x="377" y="298"/>
      <point x="373" y="303"/>
      <point x="237" y="303" type="curve"/>
      <point x="164" y="11" type="line" smooth="yes"/>
      <point x="163" y="8"/>
      <point x="163" y="5"/>
      <point x="165" y="3" type="curve" smooth="yes"/>
      <point x="166" y="1"/>
      <point x="169" y="0"/>
      <point x="172" y="0" type="curve" smooth="yes"/>
      <point x="216" y="0"/>
      <point x="259" y="0"/>
    </contour>
    <contour>
      <point x="410" y="711" type="move" name="top"/>
    </contour>
  </outline>
</glyph>
<glyph name="Z" format="1">
  <advance width="600"/>
  <unicode hex="005A"/>
  <outline>
    <contour>
      <point x="206" y="700" type="line"/>
      <point x="196" y="661"/>
      <point x="188" y="628"/>
      <point x="179" y="590" type="curve" smooth="yes"/>
      <point x="178" y="587"/>
      <point x="178" y="584"/>
      <point x="180" y="582" type="curve" smooth="yes"/>
      <point x="181" y="580"/>
      <point x="184" y="579"/>
      <point x="187" y="579" type="curve" smooth="yes"/>
      <point x="462" y="579" type="line" smooth="yes"/>
      <point x="506" y="579"/>
      <point x="567" y="581"/>
      <point x="614" y="590" type="curve" smooth="yes"/>
      <point x="620" y="590"/>
      <point x="625" y="590"/>
      <point x="629" y="591" type="curve"/>
      <point x="653" y="689" type="line" smooth="yes"/>
      <point x="655" y="695"/>
      <point x="651" y="700"/>
      <point x="645" y="700" type="curve" smooth="yes"/>
    </contour>
    <contour>
      <point x="494" y="627" type="curve"/>
      <point x="334" y="455"/>
      <point x="171" y="280"/>
      <point x="11" y="108" type="curve"/>
      <point x="122" y="67"/>
      <point x="142" y="65"/>
      <point x="153" y="76" type="curve" smooth="yes"/>
      <point x="421" y="366"/>
      <point x="628" y="589"/>
      <point x="629" y="591" type="curve"/>
      <point x="525" y="635"/>
      <point x="505" y="638"/>
    </contour>
    <contour>
      <point x="485" y="0" type="line"/>
      <point x="494" y="39"/>
      <point x="503" y="71"/>
      <point x="513" y="110" type="curve" smooth="yes"/>
      <point x="514" y="113"/>
      <point x="513" y="116"/>
      <point x="512" y="118" type="curve" smooth="yes"/>
      <point x="510" y="120"/>
      <point x="508" y="121"/>
      <point x="505" y="121" type="curve" smooth="yes"/>
      <point x="182" y="121" type="line" smooth="yes"/>
      <point x="132" y="121"/>
      <point x="63" y="120"/>
      <point x="11" y="108" type="curve"/>
      <point x="-13" y="11" type="line" smooth="yes"/>
      <point x="-14" y="5"/>
      <point x="-11" y="0"/>
      <point x="-5" y="0" type="curve" smooth="yes"/>
    </contour>
    <contour>
      <point x="249" y="517" type="curve"/>
      <point x="264" y="576"/>
      <point x="277" y="626"/>
      <point x="292" y="686" type="curve"/>
      <point x="295" y="696"/>
      <point x="291" y="700"/>
      <point x="281" y="700" type="curve" smooth="yes"/>
      <point x="162" y="700" type="line"/>
      <point x="147" y="639"/>
      <point x="135" y="588"/>
      <point x="119" y="528" type="curve"/>
      <point x="117" y="522"/>
      <point x="121" y="517"/>
      <point x="127" y="517" type="curve" smooth="yes"/>
      <point x="168" y="517"/>
      <point x="209" y="517"/>
    </contour>
    <contour>
      <point x="410" y="711" type="move" name="top"/>
    </contour>
  </outline>
</glyph>
<glyph name="bracketleft" format="1">
  <advance width="600"/>
  <unicode hex="005B"/>
  <outline>
    <contour>
      <point x="299" y="645" type="curve" smooth="yes"/>
      <point x="135" y="-10" type="line" smooth="yes"/>
      <point x="133" y="-20"/>
      <point x="163" y="-21"/>
      <point x="274" y="-21" type="curve"/>
      <point x="464" y="741" type="line" smooth="yes"/>
      <point x="466" y="747"/>
      <point x="459" y="752"/>
      <point x="432" y="752" type="curve" smooth="yes"/>
      <point x="389" y="752"/>
      <point x="368" y="752"/>
      <point x="326" y="752" type="curve"/>
      <point x="317" y="716"/>
      <point x="308" y="681"/>
    </contour>
    <contour>
      <point x="609" y="626" type="line"/>
      <point x="619" y="666"/>
      <point x="628" y="700"/>
      <point x="638" y="741" type="curve" smooth="yes"/>
      <point x="639" y="744"/>
      <point x="639" y="747"/>
      <point x="637" y="749" type="curve" smooth="yes"/>
      <point x="636" y="751"/>
      <point x="633" y="752"/>
      <point x="630" y="752" type="curve" smooth="yes"/>
      <point x="432" y="752" type="line"/>
      <point x="401" y="630"/>
      <point x="406" y="626"/>
      <point x="411" y="626" type="curve"/>
    </contour>
    <contour>
      <point x="419" y="-135" type="line"/>
      <point x="429" y="-95"/>
      <point x="438" y="-61"/>
      <point x="448" y="-20" type="curve" smooth="yes"/>
      <point x="449" y="-14"/>
      <point x="445" y="-9"/>
      <point x="439" y="-9" type="curve" smooth="yes"/>
      <point x="135" y="-9" type="line"/>
      <point x="107" y="-124" type="line" smooth="yes"/>
      <point x="105" y="-130"/>
      <point x="109" y="-135"/>
      <point x="115" y="-135" type="curve" smooth="yes"/>
    </contour>
  </outline>
</glyph>
<glyph name="backslash" format="1">
  <advance width="600"/>
  <unicode hex="005C"/>
  <outline>
    <contour>
      <point x="187" y="750" type="curve"/>
      <point x="227" y="461"/>
      <point x="265" y="170"/>
      <point x="305" y="-119" type="curve" smooth="yes"/>
      <point x="306" y="-127"/>
      <point x="311" y="-130"/>
      <point x="317" y="-130" type="curve" smooth="yes"/>
      <point x="362" y="-130"/>
      <point x="400" y="-130"/>
      <point x="445" y="-130" type="curve"/>
      <point x="440" y="-94"/>
      <point x="435" y="-57"/>
      <point x="430" y="-21" type="curve"/>
      <point x="395" y="233"/>
      <point x="360" y="489"/>
      <point x="326" y="743" type="curve"/>
      <point x="325" y="748"/>
      <point x="322" y="750"/>
      <point x="316" y="750" type="curve" smooth="yes"/>
      <point x="271" y="750"/>
      <point x="231" y="750"/>
    </contour>
  </outline>
</glyph>
<glyph name="bracketright" format="1">
  <advance width="600"/>
  <unicode hex="005D"/>
  <outline>
    <contour>
      <point x="321" y="-28" type="curve" smooth="yes"/>
      <point x="485" y="627" type="line" smooth="yes"/>
      <point x="487" y="637"/>
      <point x="456" y="638"/>
      <point x="346" y="638" type="curve"/>
      <point x="156" y="-124" type="line" smooth="yes"/>
      <point x="154" y="-130"/>
      <point x="161" y="-135"/>
      <point x="188" y="-135" type="curve" smooth="yes"/>
      <point x="230" y="-135"/>
      <point x="252" y="-135"/>
      <point x="294" y="-135" type="curve"/>
      <point x="303" y="-99"/>
      <point x="312" y="-64"/>
    </contour>
    <contour>
      <point x="11" y="-9" type="line"/>
      <point x="0" y="-49"/>
      <point x="-8" y="-84"/>
      <point x="-18" y="-124" type="curve" smooth="yes"/>
      <point x="-19" y="-127"/>
      <point x="-19" y="-130"/>
      <point x="-17" y="-132" type="curve" smooth="yes"/>
      <point x="-16" y="-134"/>
      <point x="-13" y="-135"/>
      <point x="-10" y="-135" type="curve" smooth="yes"/>
      <point x="188" y="-135" type="line"/>
      <point x="218" y="-13"/>
      <point x="213" y="-9"/>
      <point x="208" y="-9" type="curve"/>
    </contour>
    <contour>
      <point x="201" y="752" type="line"/>
      <point x="191" y="711"/>
      <point x="182" y="677"/>
      <point x="172" y="637" type="curve" smooth="yes"/>
      <point x="171" y="631"/>
      <point x="174" y="626"/>
      <point x="180" y="626" type="curve" smooth="yes"/>
      <point x="484" y="626" type="line"/>
      <point x="513" y="741" type="line" smooth="yes"/>
      <point x="515" y="747"/>
      <point x="511" y="752"/>
      <point x="505" y="752" type="curve" smooth="yes"/>
    </contour>
  </outline>
</glyph>
<glyph name="grave" format="1">
  <advance width="600"/>
  <unicode hex="0060"/>
  <outline>
    <contour>
      <point x="451" y="405" type="curve"/>
      <point x="451" y="515"/>
      <point x="452" y="603"/>
      <point x="452" y="713" type="curve"/>
      <point x="376" y="713"/>
      <point x="338" y="713"/>
      <point x="273" y="713" type="curve" smooth="yes"/>
      <point x="265" y="713"/>
      <point x="258" y="706"/>
      <point x="260" y="698" type="curve" smooth="yes"/>
      <point x="280" y="612"/>
      <point x="303" y="518"/>
      <point x="326" y="415" type="curve" smooth="yes"/>
      <point x="328" y="409"/>
      <point x="332" y="405"/>
      <point x="342" y="405" type="curve" smooth="yes"/>
      <point x="395" y="405"/>
      <point x="418" y="405"/>
    </contour>
  </outline>
</glyph>
<glyph name="a" format="1">
  <advance width="600"/>
  <unicode hex="0061"/>
  <outline>
    <contour>
      <point x="290" y="549" type="curve" smooth="yes"/>
      <point x="194" y="549"/>
      <point x="117" y="500"/>
      <point x="80" y="354" type="curve" smooth="yes"/>
      <point x="38" y="187" type="line" smooth="yes"/>
      <point x="21" y="120"/>
      <point x="57" y="64"/>
      <point x="121" y="64" type="curve" smooth="yes"/>
      <point x="150" y="64"/>
      <point x="173" y="84"/>
      <point x="178" y="106" type="curve"/>
      <point x="164" y="133"/>
      <point x="169" y="157"/>
      <point x="183" y="215" type="curve" smooth="yes"/>
      <point x="211" y="329" type="line" smooth="yes"/>
      <point x="227" y="393"/>
      <point x="259" y="413"/>
      <point x="303" y="413" type="curve" smooth="yes"/>
      <point x="351" y="413"/>
      <point x="390" y="381"/>
      <point x="412" y="334" type="curve"/>
      <point x="427" y="341"/>
      <point x="442" y="363"/>
      <point x="446" y="386" type="curve" smooth="yes"/>
      <point x="457" y="450"/>
      <point x="406" y="549"/>
    </contour>
    <contour>
      <point x="170" y="-10" type="curve" smooth="yes"/>
      <point x="236" y="-10"/>
      <point x="294" y="21"/>
      <point x="353" y="82" type="curve" smooth="yes"/>
      <point x="397" y="130"/>
      <point x="415" y="192"/>
      <point x="397" y="228" type="curve"/>
      <point x="332" y="157"/>
      <point x="287" y="127"/>
      <point x="234" y="127" type="curve" smooth="yes"/>
      <point x="187" y="127"/>
      <point x="168" y="155"/>
      <point x="183" y="215" type="curve"/>
      <point x="60" y="231"/>
      <point x="46" y="220"/>
      <point x="38" y="187" type="curve" smooth="yes"/>
      <point x="9" y="72"/>
      <point x="54" y="-10"/>
    </contour>
    <contour>
      <point x="590" y="538" type="line"/>
      <point x="548" y="538"/>
      <point x="506" y="538"/>
      <point x="464" y="538" type="curve" smooth="yes"/>
      <point x="458" y="538"/>
      <point x="452" y="533"/>
      <point x="450" y="527" type="curve" smooth="yes"/>
      <point x="353" y="141" type="line" smooth="yes"/>
      <point x="339" y="84"/>
      <point x="380" y="23"/>
      <point x="462" y="23" type="curve"/>
      <point x="469" y="53"/>
      <point x="477" y="84"/>
      <point x="485" y="118" type="curve"/>
    </contour>
    <contour>
      <point x="537" y="116" type="line"/>
      <point x="519" y="116" type="line"/>
      <point x="516" y="116"/>
      <point x="514" y="116"/>
      <point x="510" y="116" type="curve" smooth="yes"/>
      <point x="493" y="116"/>
      <point x="486" y="124"/>
      <point x="492" y="144" type="curve"/>
      <point x="370" y="162"/>
      <point x="357" y="155"/>
      <point x="353" y="141" type="curve" smooth="yes"/>
      <point x="336" y="73"/>
      <point x="360" y="-10"/>
      <point x="453" y="-10" type="curve" smooth="yes"/>
      <point x="495" y="-10" type="line" smooth="yes"/>
      <point x="502" y="-10"/>
      <point x="507" y="-6"/>
      <point x="509" y="1" type="curve"/>
    </contour>
  </outline>
</glyph>
<glyph name="d" format="1">
  <advance width="600"/>
  <unicode hex="0064"/>
  <outline>
    <contour>
      <point x="291" y="549" type="curve" smooth="yes"/>
      <point x="187" y="549"/>
      <point x="113" y="492"/>
      <point x="79" y="351" type="curve" smooth="yes"/>
      <point x="36" y="184" type="line" smooth="yes"/>
      <point x="21" y="118"/>
      <point x="62" y="62"/>
      <point x="133" y="62" type="curve" smooth="yes"/>
      <point x="161" y="62"/>
      <point x="182" y="74"/>
      <point x="187" y="96" type="curve"/>
      <point x="173" y="124"/>
      <point x="162" y="138"/>
      <point x="175" y="187" type="curve" smooth="yes"/>
      <point x="213" y="339" type="line" smooth="yes"/>
      <point x="227" y="396"/>
      <point x="261" y="421"/>
      <point x="309" y="421" type="curve" smooth="yes"/>
      <point x="349" y="421"/>
      <point x="396" y="401"/>
      <point x="427" y="355" type="curve"/>
      <point x="442" y="365"/>
      <point x="450" y="382"/>
      <point x="453" y="397" type="curve" smooth="yes"/>
      <point x="460" y="457"/>
      <point x="390" y="549"/>
    </contour>
    <contour>
      <point x="151" y="-10" type="curve" smooth="yes"/>
      <point x="214" y="-10"/>
      <point x="276" y="19"/>
      <point x="340" y="80" type="curve" smooth="yes"/>
      <point x="395" y="131"/>
      <point x="411" y="178"/>
      <point x="400" y="208" type="curve"/>
      <point x="314" y="141"/>
      <point x="265" y="116"/>
      <point x="218" y="116" type="curve" smooth="yes"/>
      <point x="177" y="116"/>
      <point x="162" y="137"/>
      <point x="175" y="187" type="curve"/>
      <point x="111" y="211"/>
      <point x="38" y="187"/>
      <point x="36" y="184" type="curve" smooth="yes"/>
      <point x="8" y="68"/>
      <point x="53" y="-10"/>
    </contour>
    <contour>
      <point x="506" y="750" type="curve"/>
      <point x="498" y="717"/>
      <point x="490" y="683"/>
      <point x="481" y="650" type="curve" smooth="yes"/>
      <point x="321" y="11" type="line"/>
      <point x="321" y="8"/>
      <point x="321" y="5"/>
      <point x="322" y="3" type="curve" smooth="yes"/>
      <point x="324" y="1"/>
      <point x="326" y="0"/>
      <point x="329" y="0" type="curve" smooth="yes"/>
      <point x="371" y="0"/>
      <point x="413" y="0"/>
      <point x="455" y="0" type="curve"/>
      <point x="467" y="45"/>
      <point x="478" y="92"/>
      <point x="491" y="141" type="curve" smooth="yes"/>
      <point x="641" y="739" type="line"/>
      <point x="641" y="742"/>
      <point x="641" y="745"/>
      <point x="640" y="747" type="curve" smooth="yes"/>
      <point x="638" y="749"/>
      <point x="635" y="750"/>
      <point x="632" y="750" type="curve" smooth="yes"/>
      <point x="590" y="750"/>
      <point x="548" y="750"/>
    </contour>
    <contour>
      <point x="667" y="711" type="move" name="caronslovak"/>
    </contour>
  </outline>
</glyph>
<glyph name="e" format="1">
  <advance width="600"/>
  <unicode hex="0065"/>
  <outline>
    <contour>
      <point x="337" y="430" type="curve" smooth="yes"/>
      <point x="399" y="430"/>
      <point x="430" y="411"/>
      <point x="450" y="354" type="curve"/>
      <point x="478" y="375"/>
      <point x="501" y="405"/>
      <point x="510" y="440" type="curve"/>
      <point x="526" y="502"/>
      <point x="439" y="549"/>
      <point x="359" y="549" type="curve"/>
      <point x="211" y="549"/>
      <point x="122" y="481"/>
      <point x="86" y="338" type="curve" smooth="yes"/>
      <point x="60" y="232" type="line" smooth="yes"/>
      <point x="21" y="77"/>
      <point x="113" y="-12"/>
      <point x="273" y="-12" type="curve" smooth="yes"/>
      <point x="301" y="-12"/>
      <point x="298" y="12"/>
      <point x="295" y="116" type="curve"/>
      <point x="213" y="116"/>
      <point x="170" y="142"/>
      <point x="189" y="219" type="curve" smooth="yes"/>
      <point x="216" y="327" type="line" smooth="yes"/>
      <point x="234" y="400"/>
      <point x="262" y="430"/>
    </contour>
    <contour>
      <point x="448" y="24" type="curve" smooth="yes"/>
      <point x="451" y="28"/>
      <point x="452" y="30"/>
      <point x="453" y="33" type="curve" smooth="yes"/>
      <point x="463" y="71"/>
      <point x="473" y="112"/>
      <point x="481" y="145" type="curve"/>
      <point x="463" y="145" type="line"/>
      <point x="414" y="128"/>
      <point x="365" y="116"/>
      <point x="295" y="116" type="curve" smooth="yes"/>
      <point x="220" y="116"/>
      <point x="197" y="124"/>
      <point x="156" y="139" type="curve"/>
      <point x="131" y="57"/>
      <point x="199" y="-12"/>
      <point x="273" y="-12" type="curve" smooth="yes"/>
      <point x="383" y="-12"/>
      <point x="434" y="11"/>
    </contour>
    <contour>
      <point x="508" y="231" type="line" smooth="yes"/>
      <point x="514" y="231"/>
      <point x="519" y="235"/>
      <point x="520" y="241" type="curve" smooth="yes"/>
      <point x="538" y="313" type="line" smooth="yes"/>
      <point x="580" y="484"/>
      <point x="494" y="549"/>
      <point x="359" y="549" type="curve" smooth="yes"/>
      <point x="347" y="549"/>
      <point x="333" y="534"/>
      <point x="337" y="430" type="curve"/>
      <point x="404" y="430"/>
      <point x="429" y="405"/>
      <point x="412" y="337" type="curve" smooth="yes"/>
      <point x="408" y="323" type="line" smooth="yes"/>
      <point x="408" y="322"/>
      <point x="408" y="322"/>
      <point x="407" y="322" type="curve" smooth="yes"/>
      <point x="266" y="322"/>
      <point x="220" y="322"/>
      <point x="123" y="322" type="curve"/>
      <point x="114" y="285"/>
      <point x="111" y="263"/>
      <point x="122" y="249" type="curve" smooth="yes"/>
      <point x="130" y="236"/>
      <point x="147" y="231"/>
      <point x="167" y="231" type="curve" smooth="yes"/>
    </contour>
    <contour>
      <point x="371" y="549" type="move" name="top"/>
    </contour>
    <contour>
      <point x="430" y="16" type="move" name="ogonek"/>
    </contour>
    <contour>
      <point x="232" y="-1" type="move" name="bottom"/>
    </contour>
  </outline>
</glyph>
<glyph name="f" format="1">
  <advance width="600"/>
  <unicode hex="0066"/>
  <outline>
    <contour>
      <point x="390" y="617" type="curve"/>
      <point x="436" y="641"/>
      <point x="462" y="645"/>
      <point x="518" y="645" type="curve" smooth="yes"/>
      <point x="565" y="645"/>
      <point x="609" y="636"/>
      <point x="643" y="621" type="curve"/>
      <point x="661" y="621" type="line"/>
      <point x="670" y="657"/>
      <point x="677" y="682"/>
      <point x="687" y="721" type="curve"/>
      <point x="688" y="725"/>
      <point x="688" y="730"/>
      <point x="685" y="733" type="curve" smooth="yes"/>
      <point x="676" y="742"/>
      <point x="612" y="768"/>
      <point x="529" y="768" type="curve" smooth="yes"/>
      <point x="423" y="768"/>
      <point x="359" y="717"/>
    </contour>
    <contour>
      <point x="283" y="580" type="curve"/>
      <point x="116" y="-89" type="line" smooth="yes"/>
      <point x="114" y="-97"/>
      <point x="118" y="-100"/>
      <point x="126" y="-100" type="curve"/>
      <point x="165" y="-100"/>
      <point x="206" y="-100"/>
      <point x="246" y="-100" type="curve"/>
      <point x="254" y="-67"/>
      <point x="263" y="-33"/>
      <point x="271" y="0" type="curve"/>
      <point x="399" y="508" type="line"/>
      <point x="404" y="527"/>
      <point x="406" y="536"/>
      <point x="409" y="548" type="curve"/>
      <point x="427" y="619"/>
      <point x="451" y="645"/>
      <point x="518" y="645" type="curve"/>
      <point x="578" y="749"/>
      <point x="552" y="768"/>
      <point x="529" y="768" type="curve" smooth="yes"/>
      <point x="376" y="768"/>
      <point x="312" y="693"/>
    </contour>
    <contour>
      <point x="136" y="521" type="line"/>
      <point x="126" y="481"/>
      <point x="118" y="449"/>
      <point x="108" y="409" type="curve" smooth="yes"/>
      <point x="107" y="405"/>
      <point x="107" y="402"/>
      <point x="109" y="400" type="curve" smooth="yes"/>
      <point x="110" y="398"/>
      <point x="113" y="398"/>
      <point x="116" y="398" type="curve"/>
      <point x="557" y="398" type="line"/>
      <point x="567" y="438"/>
      <point x="575" y="470"/>
      <point x="585" y="510" type="curve" smooth="yes"/>
      <point x="587" y="516"/>
      <point x="583" y="521"/>
      <point x="577" y="521" type="curve"/>
    </contour>
  </outline>
</glyph>
<glyph name="g" format="1">
  <advance width="600"/>
  <unicode hex="0067"/>
  <outline>
    <contour>
      <point x="293" y="549" type="curve" smooth="yes"/>
      <point x="195" y="549"/>
      <point x="118" y="500"/>
      <point x="81" y="355" type="curve" smooth="yes"/>
      <point x="40" y="196" type="line" smooth="yes"/>
      <point x="24" y="132"/>
      <point x="58" y="79"/>
      <point x="123" y="79" type="curve" smooth="yes"/>
      <point x="151" y="79"/>
      <point x="174" y="99"/>
      <point x="179" y="121" type="curve"/>
      <point x="164" y="149"/>
      <point x="172" y="170"/>
      <point x="186" y="228" type="curve" smooth="yes"/>
      <point x="211" y="328" type="line" smooth="yes"/>
      <point x="227" y="391"/>
      <point x="259" y="413"/>
      <point x="305" y="413" type="curve" smooth="yes"/>
      <point x="352" y="413"/>
      <point x="391" y="381"/>
      <point x="412" y="331" type="curve"/>
      <point x="425" y="338"/>
      <point x="442" y="362"/>
      <point x="446" y="384" type="curve" smooth="yes"/>
      <point x="456" y="452"/>
      <point x="404" y="549"/>
    </contour>
    <contour>
      <point x="170" y="7" type="curve" smooth="yes"/>
      <point x="236" y="7"/>
      <point x="295" y="32"/>
      <point x="353" y="94" type="curve" smooth="yes"/>
      <point x="396" y="142"/>
      <point x="415" y="199"/>
      <point x="397" y="233" type="curve"/>
      <point x="330" y="163"/>
      <point x="286" y="143"/>
      <point x="233" y="143" type="curve" smooth="yes"/>
      <point x="186" y="143"/>
      <point x="172" y="169"/>
      <point x="186" y="228" type="curve"/>
      <point x="72" y="239"/>
      <point x="48" y="229"/>
      <point x="40" y="196" type="curve" smooth="yes"/>
      <point x="13" y="87"/>
      <point x="54" y="7"/>
    </contour>
    <contour>
      <point x="451" y="-16" type="curve" smooth="yes"/>
      <point x="564" y="436" type="line" smooth="yes"/>
      <point x="573" y="469"/>
      <point x="582" y="504"/>
      <point x="590" y="538" type="curve"/>
      <point x="546" y="538"/>
      <point x="511" y="538"/>
      <point x="468" y="538" type="curve" smooth="yes"/>
      <point x="465" y="538"/>
      <point x="462" y="537"/>
      <point x="459" y="535" type="curve" smooth="yes"/>
      <point x="457" y="533"/>
      <point x="455" y="530"/>
      <point x="454" y="527" type="curve" smooth="yes"/>
      <point x="326" y="14" type="line" smooth="yes"/>
      <point x="305" y="-69"/>
      <point x="290" y="-111"/>
      <point x="268" y="-148" type="curve"/>
      <point x="356" y="-152"/>
      <point x="422" y="-128"/>
    </contour>
    <contour>
      <point x="158" y="-122" type="curve" smooth="yes"/>
      <point x="100" y="-122"/>
      <point x="58" y="-113"/>
      <point x="12" y="-91" type="curve"/>
      <point x="-7" y="-91" type="line"/>
      <point x="-16" y="-131"/>
      <point x="-25" y="-164"/>
      <point x="-35" y="-204" type="curve" smooth="yes"/>
      <point x="-36" y="-208"/>
      <point x="-36" y="-211"/>
      <point x="-34" y="-213" type="curve" smooth="yes"/>
      <point x="-23" y="-228"/>
      <point x="46" y="-250"/>
      <point x="152" y="-250" type="curve" smooth="yes"/>
      <point x="310" y="-250"/>
      <point x="409" y="-182"/>
      <point x="451" y="-16" type="curve" smooth="yes"/>
      <point x="456" y="2"/>
      <point x="408" y="14"/>
      <point x="326" y="14" type="curve"/>
      <point x="301" y="-82"/>
      <point x="251" y="-122"/>
    </contour>
  </outline>
</glyph>
<glyph name="h" format="1">
  <advance width="600"/>
  <unicode hex="0068"/>
  <outline>
    <contour>
      <point x="150" y="0" type="curve"/>
      <point x="338" y="739" type="line" smooth="yes"/>
      <point x="338" y="742"/>
      <point x="338" y="745"/>
      <point x="337" y="747" type="curve" smooth="yes"/>
      <point x="335" y="749"/>
      <point x="332" y="750"/>
      <point x="329" y="750" type="curve" smooth="yes"/>
      <point x="290" y="750"/>
      <point x="247" y="750"/>
      <point x="199" y="750" type="curve"/>
      <point x="193" y="724"/>
      <point x="185" y="690"/>
      <point x="174" y="652" type="curve" smooth="yes"/>
      <point x="12" y="11" type="line" smooth="yes"/>
      <point x="10" y="5"/>
      <point x="14" y="0"/>
      <point x="20" y="0" type="curve" smooth="yes"/>
      <point x="64" y="0"/>
      <point x="107" y="0"/>
    </contour>
    <contour>
      <point x="451" y="549" type="curve" smooth="yes"/>
      <point x="387" y="549"/>
      <point x="330" y="525"/>
      <point x="258" y="458" type="curve" smooth="yes"/>
      <point x="224" y="428"/>
      <point x="211" y="401"/>
      <point x="193" y="316" type="curve"/>
      <point x="279" y="390"/>
      <point x="331" y="419"/>
      <point x="381" y="419" type="curve" smooth="yes"/>
      <point x="422" y="419"/>
      <point x="449" y="399"/>
      <point x="449" y="338" type="curve"/>
      <point x="517" y="347"/>
      <point x="547" y="364"/>
      <point x="556" y="395" type="curve" smooth="yes"/>
      <point x="576" y="474"/>
      <point x="539" y="549"/>
    </contour>
    <contour>
      <point x="456" y="0" type="curve"/>
      <point x="464" y="29"/>
      <point x="473" y="63"/>
      <point x="482" y="98" type="curve" smooth="yes"/>
      <point x="556" y="395" type="line"/>
      <point x="576" y="464"/>
      <point x="491" y="479"/>
      <point x="411" y="434" type="curve"/>
      <point x="417" y="415"/>
      <point x="418" y="398"/>
      <point x="409" y="366" type="curve" smooth="yes"/>
      <point x="318" y="11" type="line" smooth="yes"/>
      <point x="316" y="5"/>
      <point x="320" y="0"/>
      <point x="326" y="0" type="curve" smooth="yes"/>
      <point x="370" y="0"/>
      <point x="413" y="0"/>
    </contour>
    <contour>
      <point x="255" y="730" type="move" name="top"/>
    </contour>
  </outline>
</glyph>
<glyph name="i" format="1">
  <advance width="600"/>
  <unicode hex="0069"/>
  <outline>
    <contour>
      <point x="122" y="538" type="curve"/>
      <point x="112" y="500"/>
      <point x="103" y="461"/>
      <point x="93" y="423" type="curve" smooth="yes"/>
      <point x="91" y="415"/>
      <point x="95" y="412"/>
      <point x="102" y="412" type="curve" smooth="yes"/>
      <point x="178" y="412"/>
      <point x="226" y="412"/>
      <point x="297" y="412" type="curve"/>
      <point x="326" y="528"/>
      <point x="323" y="538"/>
      <point x="305" y="538" type="curve"/>
      <point x="245" y="538"/>
      <point x="182" y="538"/>
    </contour>
    <contour>
      <point x="434" y="536" type="curve" smooth="yes"/>
      <point x="432" y="538"/>
      <point x="430" y="538"/>
      <point x="427" y="538" type="curve" smooth="yes"/>
      <point x="305" y="538" type="line"/>
      <point x="215" y="172" type="line" smooth="yes"/>
      <point x="198" y="107"/>
      <point x="241" y="64"/>
      <point x="320" y="64" type="curve"/>
      <point x="328" y="96"/>
      <point x="337" y="133"/>
      <point x="345" y="165" type="curve" smooth="yes"/>
      <point x="435" y="527" type="line" smooth="yes"/>
      <point x="436" y="531"/>
      <point x="436" y="534"/>
    </contour>
    <contour>
      <point x="509" y="125" type="curve"/>
      <point x="491" y="125" type="line"/>
      <point x="429" y="125"/>
      <point x="448" y="125"/>
      <point x="375" y="125" type="curve"/>
      <point x="344" y="125"/>
      <point x="338" y="136"/>
      <point x="345" y="165" type="curve"/>
      <point x="232" y="189"/>
      <point x="218" y="188"/>
      <point x="215" y="172" type="curve" smooth="yes"/>
      <point x="190" y="77"/>
      <point x="222" y="0"/>
      <point x="350" y="0" type="curve" smooth="yes"/>
      <point x="466" y="0" type="line" smooth="yes"/>
      <point x="471" y="0"/>
      <point x="474" y="2"/>
      <point x="476" y="4" type="curve" smooth="yes"/>
      <point x="478" y="6"/>
      <point x="479" y="8"/>
      <point x="480" y="11" type="curve"/>
      <point x="490" y="49"/>
      <point x="499" y="88"/>
    </contour>
    <contour>
      <point x="474" y="654" type="curve"/>
      <point x="505" y="781" type="line" smooth="yes"/>
      <point x="507" y="787"/>
      <point x="503" y="792"/>
      <point x="497" y="792" type="curve" smooth="yes"/>
      <point x="446" y="792"/>
      <point x="395" y="792"/>
      <point x="345" y="792" type="curve"/>
      <point x="313" y="665" type="line" smooth="yes"/>
      <point x="312" y="659"/>
      <point x="316" y="654"/>
      <point x="322" y="654" type="curve" smooth="yes"/>
      <point x="372" y="654"/>
      <point x="423" y="654"/>
    </contour>
  </outline>
</glyph>
<glyph name="j" format="1">
  <advance width="600"/>
  <unicode hex="006A"/>
  <outline>
    <contour>
      <point x="141" y="538" type="curve"/>
      <point x="132" y="499"/>
      <point x="124" y="466"/>
      <point x="114" y="428" type="curve" smooth="yes"/>
      <point x="112" y="421"/>
      <point x="116" y="417"/>
      <point x="122" y="417" type="curve" smooth="yes"/>
      <point x="228" y="417"/>
      <point x="338" y="417"/>
      <point x="445" y="417" type="curve"/>
      <point x="457" y="468"/>
      <point x="456" y="538"/>
      <point x="411" y="538" type="curve" smooth="yes"/>
      <point x="322" y="538"/>
      <point x="230" y="538"/>
    </contour>
    <contour>
      <point x="373" y="-16" type="curve" smooth="yes"/>
      <point x="512" y="527" type="line" smooth="yes"/>
      <point x="513" y="530"/>
      <point x="513" y="533"/>
      <point x="511" y="535" type="curve" smooth="yes"/>
      <point x="509" y="537"/>
      <point x="507" y="538"/>
      <point x="504" y="538" type="curve" smooth="yes"/>
      <point x="382" y="538" type="line"/>
      <point x="248" y="11" type="line" smooth="yes"/>
      <point x="229" y="-64"/>
      <point x="198" y="-107"/>
      <point x="141" y="-151" type="curve"/>
      <point x="212" y="-204"/>
      <point x="345" y="-130"/>
    </contour>
    <contour>
      <point x="82" y="-122" type="curve" smooth="yes"/>
      <point x="27" y="-122"/>
      <point x="-7" y="-115"/>
      <point x="-53" y="-92" type="curve"/>
      <point x="-72" y="-92" type="line"/>
      <point x="-82" y="-132"/>
      <point x="-90" y="-161"/>
      <point x="-99" y="-201" type="curve" smooth="yes"/>
      <point x="-100" y="-204"/>
      <point x="-100" y="-207"/>
      <point x="-98" y="-209" type="curve" smooth="yes"/>
      <point x="-87" y="-224"/>
      <point x="-27" y="-250"/>
      <point x="76" y="-250" type="curve" smooth="yes"/>
      <point x="235" y="-250"/>
      <point x="333" y="-179"/>
      <point x="373" y="-16" type="curve" smooth="yes"/>
      <point x="379" y="2"/>
      <point x="333" y="12"/>
      <point x="248" y="11" type="curve"/>
      <point x="223" y="-84"/>
      <point x="178" y="-122"/>
    </contour>
    <contour>
      <point x="551" y="654" type="curve"/>
      <point x="583" y="781" type="line" smooth="yes"/>
      <point x="585" y="787"/>
      <point x="581" y="792"/>
      <point x="575" y="792" type="curve" smooth="yes"/>
      <point x="525" y="792"/>
      <point x="473" y="792"/>
      <point x="423" y="792" type="curve"/>
      <point x="391" y="665" type="line" smooth="yes"/>
      <point x="389" y="659"/>
      <point x="393" y="654"/>
      <point x="399" y="654" type="curve" smooth="yes"/>
      <point x="449" y="654"/>
      <point x="501" y="654"/>
    </contour>
  </outline>
</glyph>
<glyph name="l" format="1">
  <advance width="600"/>
  <unicode hex="006C"/>
  <outline>
    <contour>
      <point x="175" y="750" type="curve"/>
      <point x="166" y="712"/>
      <point x="156" y="673"/>
      <point x="147" y="636" type="curve" smooth="yes"/>
      <point x="145" y="628"/>
      <point x="149" y="625"/>
      <point x="155" y="625" type="curve" smooth="yes"/>
      <point x="231" y="625"/>
      <point x="279" y="625"/>
      <point x="350" y="625" type="curve"/>
      <point x="380" y="741"/>
      <point x="377" y="750"/>
      <point x="359" y="750" type="curve"/>
      <point x="299" y="750"/>
      <point x="236" y="750"/>
    </contour>
    <contour>
      <point x="488" y="748" type="curve" smooth="yes"/>
      <point x="486" y="750"/>
      <point x="484" y="750"/>
      <point x="481" y="750" type="curve" smooth="yes"/>
      <point x="359" y="750" type="line"/>
      <point x="215" y="172" type="line" smooth="yes"/>
      <point x="199" y="107"/>
      <point x="241" y="64"/>
      <point x="321" y="64" type="curve"/>
      <point x="328" y="96"/>
      <point x="338" y="133"/>
      <point x="346" y="165" type="curve" smooth="yes"/>
      <point x="489" y="739" type="line" smooth="yes"/>
      <point x="490" y="743"/>
      <point x="490" y="746"/>
    </contour>
    <contour>
      <point x="510" y="125" type="curve"/>
      <point x="491" y="125" type="line"/>
      <point x="429" y="125"/>
      <point x="449" y="125"/>
      <point x="376" y="125" type="curve"/>
      <point x="344" y="125"/>
      <point x="339" y="136"/>
      <point x="346" y="165" type="curve"/>
      <point x="233" y="189"/>
      <point x="219" y="188"/>
      <point x="215" y="172" type="curve" smooth="yes"/>
      <point x="191" y="77"/>
      <point x="223" y="0"/>
      <point x="350" y="0" type="curve" smooth="yes"/>
      <point x="467" y="0" type="line" smooth="yes"/>
      <point x="472" y="0"/>
      <point x="475" y="2"/>
      <point x="477" y="4" type="curve" smooth="yes"/>
      <point x="479" y="6"/>
      <point x="480" y="8"/>
      <point x="481" y="11" type="curve"/>
      <point x="490" y="49"/>
      <point x="500" y="88"/>
    </contour>
  </outline>
</glyph>
<glyph name="m" format="1">
  <advance width="600"/>
  <unicode hex="006D"/>
  <outline>
    <contour>
      <point x="84" y="0" type="curve"/>
      <point x="198" y="455" type="line" smooth="yes"/>
      <point x="208" y="495"/>
      <point x="200" y="531"/>
      <point x="198" y="534" type="curve" smooth="yes"/>
      <point x="195" y="538"/>
      <point x="192" y="538"/>
      <point x="188" y="538" type="curve" smooth="yes"/>
      <point x="160" y="538"/>
      <point x="130" y="538"/>
      <point x="102" y="538" type="curve"/>
      <point x="95" y="508"/>
      <point x="86" y="473"/>
      <point x="77" y="438" type="curve" smooth="yes"/>
      <point x="-30" y="11" type="line" smooth="yes"/>
      <point x="-31" y="5"/>
      <point x="-28" y="0"/>
      <point x="-22" y="0" type="curve" smooth="yes"/>
      <point x="13" y="0"/>
      <point x="49" y="0"/>
    </contour>
    <contour>
      <point x="335" y="549" type="curve" smooth="yes"/>
      <point x="296" y="549"/>
      <point x="263" y="534"/>
      <point x="221" y="494" type="curve" smooth="yes"/>
      <point x="182" y="459"/>
      <point x="149" y="406"/>
      <point x="136" y="347" type="curve"/>
      <point x="183" y="389"/>
      <point x="220" y="409"/>
      <point x="251" y="409" type="curve" smooth="yes"/>
      <point x="269" y="409"/>
      <point x="279" y="401"/>
      <point x="272" y="373" type="curve"/>
      <point x="393" y="435"/>
      <point x="398" y="446"/>
      <point x="399" y="450" type="curve" smooth="yes"/>
      <point x="414" y="510"/>
      <point x="385" y="549"/>
    </contour>
    <contour>
      <point x="286" y="0" type="curve"/>
      <point x="399" y="450" type="line" smooth="yes"/>
      <point x="409" y="491"/>
      <point x="350" y="457"/>
      <point x="271" y="417" type="curve"/>
      <point x="276" y="404"/>
      <point x="278" y="399"/>
      <point x="271" y="372" type="curve" smooth="yes"/>
      <point x="181" y="11" type="line" smooth="yes"/>
      <point x="180" y="5"/>
      <point x="183" y="0"/>
      <point x="189" y="0" type="curve" smooth="yes"/>
      <point x="221" y="0"/>
      <point x="254" y="0"/>
    </contour>
    <contour>
      <point x="541" y="549" type="curve" smooth="yes"/>
      <point x="502" y="549"/>
      <point x="464" y="527"/>
      <point x="427" y="494" type="curve" smooth="yes"/>
      <point x="396" y="467"/>
      <point x="346" y="404"/>
      <point x="335" y="351" type="curve"/>
      <point x="385" y="396"/>
      <point x="424" y="409"/>
      <point x="450" y="409" type="curve" smooth="yes"/>
      <point x="472" y="409"/>
      <point x="482" y="401"/>
      <point x="474" y="372" type="curve"/>
      <point x="602" y="427"/>
      <point x="604" y="431"/>
      <point x="606" y="439" type="curve" smooth="yes"/>
      <point x="622" y="499"/>
      <point x="598" y="549"/>
    </contour>
    <contour>
      <point x="496" y="0" type="curve"/>
      <point x="504" y="33"/>
      <point x="513" y="66"/>
      <point x="521" y="98" type="curve" smooth="yes"/>
      <point x="606" y="439" type="line" smooth="yes"/>
      <point x="619" y="488"/>
      <point x="575" y="465"/>
      <point x="476" y="425" type="curve"/>
      <point x="480" y="410"/>
      <point x="482" y="402"/>
      <point x="474" y="371" type="curve" smooth="yes"/>
      <point x="384" y="11" type="line" smooth="yes"/>
      <point x="382" y="5"/>
      <point x="386" y="0"/>
      <point x="392" y="0" type="curve" smooth="yes"/>
      <point x="427" y="0"/>
      <point x="461" y="0"/>
    </contour>
  </outline>
</glyph>
<glyph name="n" format="1">
  <advance width="600"/>
  <unicode hex="006E"/>
  <outline>
    <contour>
      <point x="150" y="0" type="curve"/>
      <point x="282" y="527" type="line" smooth="yes"/>
      <point x="283" y="530"/>
      <point x="283" y="533"/>
      <point x="281" y="535" type="curve" smooth="yes"/>
      <point x="280" y="537"/>
      <point x="277" y="538"/>
      <point x="274" y="538" type="curve" smooth="yes"/>
      <point x="235" y="538"/>
      <point x="192" y="538"/>
      <point x="144" y="538" type="curve"/>
      <point x="137" y="512"/>
      <point x="129" y="477"/>
      <point x="119" y="439" type="curve" smooth="yes"/>
      <point x="12" y="11" type="line" smooth="yes"/>
      <point x="10" y="5"/>
      <point x="14" y="0"/>
      <point x="20" y="0" type="curve" smooth="yes"/>
      <point x="64" y="0"/>
      <point x="107" y="0"/>
    </contour>
    <contour>
      <point x="453" y="549" type="curve" smooth="yes"/>
      <point x="388" y="549"/>
      <point x="329" y="520"/>
      <point x="257" y="442" type="curve" smooth="yes"/>
      <point x="226" y="410"/>
      <point x="194" y="364"/>
      <point x="204" y="297" type="curve"/>
      <point x="276" y="381"/>
      <point x="328" y="409"/>
      <point x="370" y="409" type="curve" smooth="yes"/>
      <point x="403" y="409"/>
      <point x="414" y="393"/>
      <point x="405" y="360" type="curve"/>
      <point x="527" y="360"/>
      <point x="549" y="374"/>
      <point x="553" y="392" type="curve" smooth="yes"/>
      <point x="574" y="473"/>
      <point x="543" y="549"/>
    </contour>
    <contour>
      <point x="456" y="0" type="curve"/>
      <point x="463" y="29"/>
      <point x="472" y="62"/>
      <point x="481" y="96" type="curve" smooth="yes"/>
      <point x="553" y="392" type="line"/>
      <point x="565" y="436"/>
      <point x="487" y="461"/>
      <point x="420" y="424" type="curve"/>
      <point x="417" y="406"/>
      <point x="413" y="389"/>
      <point x="405" y="360" type="curve" smooth="yes"/>
      <point x="318" y="11" type="line" smooth="yes"/>
      <point x="316" y="5"/>
      <point x="320" y="0"/>
      <point x="326" y="0" type="curve" smooth="yes"/>
      <point x="370" y="0"/>
      <point x="413" y="0"/>
    </contour>
    <contour>
      <point x="435" y="711" type="move" name="caronslovak"/>
    </contour>
    <contour>
      <point x="427" y="549" type="move" name="top"/>
    </contour>
    <contour>
      <point x="176" y="-1" type="move" name="bottom"/>
    </contour>
  </outline>
</glyph>
<glyph name="o" format="1">
  <advance width="600"/>
  <unicode hex="006F"/>
  <outline>
    <contour>
      <point x="356" y="549" type="curve" smooth="yes"/>
      <point x="204" y="549"/>
      <point x="113" y="470"/>
      <point x="75" y="319" type="curve" smooth="yes"/>
      <point x="57" y="250" type="line" smooth="yes"/>
      <point x="17" y="94"/>
      <point x="102" y="-12"/>
      <point x="256" y="-12" type="curve" smooth="yes"/>
      <point x="270" y="-12"/>
      <point x="263" y="4"/>
      <point x="266" y="112" type="curve"/>
      <point x="188" y="112"/>
      <point x="167" y="160"/>
      <point x="185" y="235" type="curve" smooth="yes"/>
      <point x="205" y="313" type="line" smooth="yes"/>
      <point x="224" y="386"/>
      <point x="267" y="428"/>
      <point x="338" y="428" type="curve" smooth="yes"/>
      <point x="388" y="428"/>
      <point x="419" y="415"/>
      <point x="444" y="387" type="curve"/>
      <point x="502" y="457"/>
      <point x="457" y="549"/>
    </contour>
    <contour>
      <point x="256" y="-12" type="curve" smooth="yes"/>
      <point x="405" y="-12"/>
      <point x="489" y="65"/>
      <point x="526" y="216" type="curve" smooth="yes"/>
      <point x="543" y="286" type="line" smooth="yes"/>
      <point x="581" y="442"/>
      <point x="499" y="549"/>
      <point x="356" y="549" type="curve" smooth="yes"/>
      <point x="347" y="549"/>
      <point x="331" y="538"/>
      <point x="338" y="428" type="curve"/>
      <point x="415" y="428"/>
      <point x="433" y="375"/>
      <point x="414" y="302" type="curve" smooth="yes"/>
      <point x="394" y="226" type="line" smooth="yes"/>
      <point x="376" y="155"/>
      <point x="336" y="112"/>
      <point x="266" y="112" type="curve" smooth="yes"/>
      <point x="216" y="112"/>
      <point x="178" y="122"/>
      <point x="153" y="150" type="curve"/>
      <point x="95" y="81"/>
      <point x="154" y="-12"/>
    </contour>
    <contour>
      <point x="427" y="549" type="move" name="top"/>
    </contour>
    <contour>
      <point x="252" y="-1" type="move" name="ogonek"/>
    </contour>
    <contour>
      <point x="176" y="-1" type="move" name="bottom"/>
    </contour>
  </outline>
</glyph>
<glyph name="p" format="1">
  <advance width="600"/>
  <unicode hex="0070"/>
  <outline>
    <contour>
      <point x="95" y="-203" type="curve"/>
      <point x="278" y="527" type="line" smooth="yes"/>
      <point x="279" y="530"/>
      <point x="279" y="533"/>
      <point x="277" y="535" type="curve" smooth="yes"/>
      <point x="276" y="537"/>
      <point x="273" y="538"/>
      <point x="270" y="538" type="curve"/>
      <point x="228" y="538"/>
      <point x="186" y="538"/>
      <point x="144" y="538" type="curve"/>
      <point x="137" y="508"/>
      <point x="128" y="474"/>
      <point x="119" y="437" type="curve" smooth="yes"/>
      <point x="-39" y="-192" type="line" smooth="yes"/>
      <point x="-40" y="-199"/>
      <point x="-36" y="-203"/>
      <point x="-30" y="-203" type="curve"/>
      <point x="12" y="-203"/>
      <point x="53" y="-203"/>
    </contour>
    <contour>
      <point x="425" y="549" type="curve" smooth="yes"/>
      <point x="368" y="549"/>
      <point x="313" y="522"/>
      <point x="259" y="470" type="curve" smooth="yes"/>
      <point x="206" y="418"/>
      <point x="181" y="378"/>
      <point x="190" y="345" type="curve"/>
      <point x="270" y="399"/>
      <point x="319" y="422"/>
      <point x="373" y="422" type="curve" smooth="yes"/>
      <point x="417" y="422"/>
      <point x="437" y="400"/>
      <point x="423" y="342" type="curve"/>
      <point x="537" y="326"/>
      <point x="557" y="329"/>
      <point x="560" y="340" type="curve" smooth="yes"/>
      <point x="588" y="453"/>
      <point x="537" y="549"/>
    </contour>
    <contour>
      <point x="308" y="-10" type="curve" smooth="yes"/>
      <point x="416" y="-10"/>
      <point x="489" y="54"/>
      <point x="526" y="207" type="curve" smooth="yes"/>
      <point x="560" y="340" type="line" smooth="yes"/>
      <point x="576" y="404"/>
      <point x="537" y="477"/>
      <point x="467" y="477" type="curve" smooth="yes"/>
      <point x="438" y="477"/>
      <point x="419" y="466"/>
      <point x="413" y="444" type="curve"/>
      <point x="429" y="413"/>
      <point x="439" y="401"/>
      <point x="423" y="342" type="curve" smooth="yes"/>
      <point x="390" y="208" type="line" smooth="yes"/>
      <point x="373" y="141"/>
      <point x="339" y="114"/>
      <point x="292" y="114" type="curve" smooth="yes"/>
      <point x="244" y="114"/>
      <point x="205" y="127"/>
      <point x="159" y="186" type="curve"/>
      <point x="140" y="164"/>
      <point x="134" y="144"/>
      <point x="133" y="133" type="curve" smooth="yes"/>
      <point x="127" y="82"/>
      <point x="197" y="-10"/>
    </contour>
  </outline>
</glyph>
<glyph name="r" format="1">
  <advance width="600"/>
  <unicode hex="0072"/>
  <outline>
    <contour>
      <point x="133" y="538" type="curve"/>
      <point x="122" y="497"/>
      <point x="115" y="467"/>
      <point x="105" y="427" type="curve" smooth="yes"/>
      <point x="103" y="421"/>
      <point x="107" y="416"/>
      <point x="113" y="416" type="curve" smooth="yes"/>
      <point x="169" y="416"/>
      <point x="241" y="416"/>
      <point x="297" y="416" type="curve"/>
      <point x="311" y="474"/>
      <point x="318" y="538"/>
      <point x="303" y="538" type="curve" smooth="yes"/>
      <point x="254" y="538"/>
      <point x="181" y="538"/>
    </contour>
    <contour>
      <point x="249" y="0" type="curve"/>
      <point x="258" y="32"/>
      <point x="265" y="61"/>
      <point x="274" y="98" type="curve" smooth="yes"/>
      <point x="354" y="415" type="line" smooth="yes"/>
      <point x="358" y="427"/>
      <point x="328" y="538"/>
      <point x="303" y="538" type="curve" smooth="yes"/>
      <point x="293" y="538"/>
      <point x="281" y="537"/>
      <point x="251" y="531" type="curve"/>
      <point x="119" y="11" type="line" smooth="yes"/>
      <point x="118" y="5"/>
      <point x="121" y="0"/>
      <point x="127" y="0" type="curve" smooth="yes"/>
      <point x="170" y="0"/>
      <point x="207" y="0"/>
    </contour>
    <contour>
      <point x="298" y="337" type="curve"/>
      <point x="380" y="395"/>
      <point x="429" y="411"/>
      <point x="486" y="411" type="curve" smooth="yes"/>
      <point x="515" y="411"/>
      <point x="543" y="407"/>
      <point x="571" y="401" type="curve"/>
      <point x="589" y="401" type="line"/>
      <point x="598" y="438"/>
      <point x="620" y="525"/>
      <point x="623" y="536" type="curve"/>
      <point x="625" y="543"/>
      <point x="621" y="547"/>
      <point x="614" y="547" type="curve" smooth="yes"/>
      <point x="558" y="547" type="line" smooth="yes"/>
      <point x="461" y="547"/>
      <point x="405" y="523"/>
      <point x="339" y="454" type="curve" smooth="yes"/>
      <point x="325" y="440"/>
      <point x="320" y="429"/>
    </contour>
  </outline>
</glyph>
<glyph name="s" format="1">
  <advance width="600"/>
  <unicode hex="0073"/>
  <outline>
    <contour>
      <point x="388" y="546" type="curve" smooth="yes"/>
      <point x="379" y="546" type="line" smooth="yes"/>
      <point x="233" y="546"/>
      <point x="142" y="491"/>
      <point x="114" y="384" type="curve" smooth="yes"/>
      <point x="105" y="347"/>
      <point x="156" y="311"/>
      <point x="230" y="311" type="curve"/>
      <point x="234" y="325"/>
      <point x="243" y="360"/>
      <point x="247" y="376" type="curve" smooth="yes"/>
      <point x="255" y="408"/>
      <point x="288" y="423"/>
      <point x="361" y="423" type="curve" smooth="yes"/>
      <point x="420" y="423"/>
      <point x="459" y="416"/>
      <point x="510" y="400" type="curve"/>
      <point x="528" y="400" type="line"/>
      <point x="539" y="435"/>
      <point x="547" y="468"/>
      <point x="556" y="506" type="curve"/>
      <point x="558" y="511"/>
      <point x="558" y="514"/>
      <point x="556" y="516" type="curve" smooth="yes"/>
      <point x="548" y="526"/>
      <point x="489" y="546"/>
    </contour>
    <contour>
      <point x="377" y="316" type="curve" smooth="yes"/>
      <point x="295" y="328" type="line" smooth="yes"/>
      <point x="250" y="336"/>
      <point x="240" y="350"/>
      <point x="247" y="376" type="curve" smooth="yes"/>
      <point x="252" y="399"/>
      <point x="259" y="425"/>
      <point x="267" y="455" type="curve"/>
      <point x="191" y="455"/>
      <point x="126" y="430"/>
      <point x="114" y="384" type="curve"/>
      <point x="94" y="304"/>
      <point x="133" y="242"/>
      <point x="231" y="226" type="curve" smooth="yes"/>
      <point x="315" y="213" type="line" smooth="yes"/>
      <point x="370" y="204"/>
      <point x="379" y="186"/>
      <point x="373" y="162" type="curve" smooth="yes"/>
      <point x="368" y="141"/>
      <point x="360" y="111"/>
      <point x="354" y="86" type="curve"/>
      <point x="435" y="88"/>
      <point x="493" y="114"/>
      <point x="502" y="155" type="curve" smooth="yes"/>
      <point x="521" y="230"/>
      <point x="488" y="299"/>
    </contour>
    <contour>
      <point x="258" y="115" type="curve" smooth="yes"/>
      <point x="167" y="115"/>
      <point x="120" y="125"/>
      <point x="64" y="154" type="curve"/>
      <point x="46" y="154" type="line"/>
      <point x="37" y="118"/>
      <point x="29" y="86"/>
      <point x="19" y="42" type="curve" smooth="yes"/>
      <point x="18" y="39"/>
      <point x="18" y="37"/>
      <point x="19" y="35" type="curve" smooth="yes"/>
      <point x="30" y="21"/>
      <point x="113" y="-9"/>
      <point x="227" y="-9" type="curve" smooth="yes"/>
      <point x="241" y="-9" type="line" smooth="yes"/>
      <point x="380" y="-9"/>
      <point x="472" y="37"/>
      <point x="502" y="155" type="curve" smooth="yes"/>
      <point x="517" y="213"/>
      <point x="464" y="239"/>
      <point x="393" y="239" type="curve"/>
      <point x="385" y="209"/>
      <point x="378" y="184"/>
      <point x="373" y="162" type="curve" smooth="yes"/>
      <point x="366" y="136"/>
      <point x="339" y="115"/>
    </contour>
    <contour>
      <point x="372" y="549" type="move" name="top"/>
    </contour>
    <contour>
      <point x="236" y="-1" type="move" name="bottom"/>
    </contour>
  </outline>
</glyph>
<glyph name="t" format="1">
  <advance width="600"/>
  <unicode hex="0074"/>
  <outline>
    <contour>
      <point x="290" y="700" type="curve"/>
      <point x="169" y="214" type="line" smooth="yes"/>
      <point x="143" y="112"/>
      <point x="195" y="57"/>
      <point x="320" y="75" type="curve"/>
      <point x="291" y="121"/>
      <point x="286" y="153"/>
      <point x="304" y="226" type="curve" smooth="yes"/>
      <point x="420" y="689" type="line" smooth="yes"/>
      <point x="422" y="695"/>
      <point x="418" y="700"/>
      <point x="412" y="700" type="curve" smooth="yes"/>
      <point x="373" y="700"/>
      <point x="332" y="700"/>
    </contour>
    <contour>
      <point x="464" y="126" type="curve"/>
      <point x="446" y="126" type="line"/>
      <point x="410" y="126"/>
      <point x="417" y="126"/>
      <point x="373" y="126" type="curve" smooth="yes"/>
      <point x="302" y="126"/>
      <point x="284" y="146"/>
      <point x="304" y="226" type="curve"/>
      <point x="204" y="250"/>
      <point x="173" y="233"/>
      <point x="169" y="214" type="curve" smooth="yes"/>
      <point x="133" y="72"/>
      <point x="212" y="0"/>
      <point x="337" y="0" type="curve" smooth="yes"/>
      <point x="421" y="0" type="line" smooth="yes"/>
      <point x="425" y="0"/>
      <point x="428" y="1"/>
      <point x="431" y="3" type="curve" smooth="yes"/>
      <point x="433" y="5"/>
      <point x="434" y="8"/>
      <point x="435" y="11" type="curve" smooth="yes"/>
      <point x="445" y="51"/>
      <point x="454" y="86"/>
    </contour>
    <contour>
      <point x="127" y="538" type="line"/>
      <point x="117" y="497"/>
      <point x="109" y="465"/>
      <point x="99" y="425" type="curve" smooth="yes"/>
      <point x="98" y="422"/>
      <point x="98" y="419"/>
      <point x="100" y="417" type="curve" smooth="yes"/>
      <point x="101" y="415"/>
      <point x="104" y="414"/>
      <point x="107" y="414" type="curve" smooth="yes"/>
      <point x="536" y="414" type="line"/>
      <point x="546" y="454"/>
      <point x="554" y="486"/>
      <point x="564" y="527" type="curve" smooth="yes"/>
      <point x="566" y="533"/>
      <point x="562" y="538"/>
      <point x="556" y="538" type="curve" smooth="yes"/>
    </contour>
    <contour>
      <point x="558" y="700" type="move" name="caronslovak"/>
    </contour>
    <contour>
      <point x="303" y="-1" type="move" name="bottom"/>
    </contour>
  </outline>
</glyph>
<glyph name="u" format="1">
  <advance width="600"/>
  <unicode hex="0075"/>
  <outline>
    <contour>
      <point x="450" y="538" type="curve"/>
      <point x="318" y="11" type="line" smooth="yes"/>
      <point x="317" y="8"/>
      <point x="317" y="5"/>
      <point x="319" y="3" type="curve" smooth="yes"/>
      <point x="320" y="1"/>
      <point x="323" y="0"/>
      <point x="326" y="0" type="curve" smooth="yes"/>
      <point x="366" y="0"/>
      <point x="408" y="0"/>
      <point x="456" y="0" type="curve"/>
      <point x="463" y="26"/>
      <point x="471" y="60"/>
      <point x="480" y="98" type="curve" smooth="yes"/>
      <point x="588" y="527" type="line" smooth="yes"/>
      <point x="590" y="533"/>
      <point x="586" y="538"/>
      <point x="580" y="538" type="curve" smooth="yes"/>
      <point x="536" y="538"/>
      <point x="494" y="538"/>
    </contour>
    <contour>
      <point x="147" y="-12" type="curve" smooth="yes"/>
      <point x="212" y="-12"/>
      <point x="271" y="18"/>
      <point x="343" y="96" type="curve" smooth="yes"/>
      <point x="374" y="128"/>
      <point x="406" y="174"/>
      <point x="396" y="240" type="curve"/>
      <point x="324" y="156"/>
      <point x="272" y="129"/>
      <point x="230" y="129" type="curve" smooth="yes"/>
      <point x="196" y="129"/>
      <point x="186" y="143"/>
      <point x="194" y="178" type="curve"/>
      <point x="73" y="178"/>
      <point x="51" y="165"/>
      <point x="47" y="146" type="curve" smooth="yes"/>
      <point x="26" y="64"/>
      <point x="57" y="-12"/>
    </contour>
    <contour>
      <point x="145" y="538" type="curve"/>
      <point x="137" y="509"/>
      <point x="128" y="475"/>
      <point x="120" y="441" type="curve" smooth="yes"/>
      <point x="47" y="146" type="line"/>
      <point x="35" y="102"/>
      <point x="113" y="76"/>
      <point x="180" y="114" type="curve"/>
      <point x="183" y="131"/>
      <point x="187" y="148"/>
      <point x="194" y="178" type="curve" smooth="yes"/>
      <point x="282" y="527" type="line" smooth="yes"/>
      <point x="284" y="533"/>
      <point x="280" y="538"/>
      <point x="274" y="538" type="curve" smooth="yes"/>
      <point x="230" y="538"/>
      <point x="188" y="538"/>
    </contour>
    <contour>
      <point x="370" y="549" type="move" name="top"/>
    </contour>
    <contour>
      <point x="456" y="-1" type="move" name="ogonek"/>
    </contour>
    <contour>
      <point x="225" y="-1" type="move" name="bottom"/>
    </contour>
  </outline>
</glyph>
<glyph name="v" format="1">
  <advance width="600"/>
  <unicode hex="0076"/>
  <outline>
    <contour>
      <point x="610" y="538" type="curve" smooth="yes"/>
      <point x="481" y="538" type="line"/>
      <point x="403" y="387"/>
      <point x="325" y="239"/>
      <point x="245" y="88" type="curve"/>
      <point x="215" y="29"/>
      <point x="203" y="14"/>
      <point x="170" y="0" type="curve"/>
      <point x="329" y="0" type="line"/>
      <point x="425" y="174"/>
      <point x="522" y="346"/>
      <point x="618" y="520" type="curve"/>
      <point x="623" y="529"/>
      <point x="620" y="538"/>
    </contour>
    <contour>
      <point x="228" y="538" type="curve" smooth="yes"/>
      <point x="107" y="538" type="line"/>
      <point x="116" y="363"/>
      <point x="125" y="189"/>
      <point x="134" y="14" type="curve"/>
      <point x="134" y="5"/>
      <point x="140" y="0"/>
      <point x="150" y="0" type="curve" smooth="yes"/>
      <point x="176" y="0" type="line" smooth="yes"/>
      <point x="230" y="0"/>
      <point x="327" y="27"/>
      <point x="351" y="125" type="curve"/>
      <point x="317" y="125"/>
      <point x="285" y="125"/>
      <point x="259" y="125" type="curve" smooth="yes"/>
      <point x="252" y="125"/>
      <point x="250" y="128"/>
      <point x="249" y="136" type="curve"/>
      <point x="247" y="264"/>
      <point x="243" y="392"/>
      <point x="240" y="521" type="curve"/>
      <point x="240" y="532"/>
      <point x="236" y="538"/>
    </contour>
  </outline>
</glyph>
<glyph name="w" format="1">
  <advance width="600"/>
  <unicode hex="0077"/>
  <outline>
    <contour>
      <point x="97" y="538" type="curve"/>
      <point x="77" y="363"/>
      <point x="58" y="189"/>
      <point x="38" y="14" type="curve" smooth="yes"/>
      <point x="36" y="5"/>
      <point x="44" y="0"/>
      <point x="54" y="0" type="curve" smooth="yes"/>
      <point x="82" y="0" type="line" smooth="yes"/>
      <point x="98" y="0"/>
      <point x="119" y="15"/>
      <point x="133" y="33" type="curve" smooth="yes"/>
      <point x="160" y="196"/>
      <point x="188" y="358"/>
      <point x="215" y="521" type="curve"/>
      <point x="217" y="530"/>
      <point x="217" y="533"/>
      <point x="215" y="535" type="curve" smooth="yes"/>
      <point x="214" y="537"/>
      <point x="211" y="538"/>
      <point x="207" y="538" type="curve"/>
      <point x="168" y="538"/>
      <point x="133" y="538"/>
    </contour>
    <contour>
      <point x="346" y="422" type="curve" smooth="yes"/>
      <point x="292" y="422" type="line"/>
      <point x="240" y="311"/>
      <point x="187" y="200"/>
      <point x="135" y="88" type="curve"/>
      <point x="107" y="30"/>
      <point x="96" y="13"/>
      <point x="72" y="0" type="curve"/>
      <point x="169" y="0" type="line"/>
      <point x="230" y="134"/>
      <point x="292" y="269"/>
      <point x="353" y="403" type="curve" smooth="yes"/>
      <point x="358" y="414"/>
      <point x="356" y="422"/>
    </contour>
    <contour>
      <point x="371" y="422" type="curve" smooth="yes"/>
      <point x="315" y="422" type="line"/>
      <point x="309" y="287"/>
      <point x="301" y="150"/>
      <point x="294" y="14" type="curve" smooth="yes"/>
      <point x="294" y="5"/>
      <point x="301" y="0"/>
      <point x="310" y="0" type="curve" smooth="yes"/>
      <point x="335" y="0" type="line" smooth="yes"/>
      <point x="348" y="0"/>
      <point x="359" y="10"/>
      <point x="364" y="24" type="curve" smooth="yes"/>
      <point x="370" y="171"/>
      <point x="375" y="291"/>
      <point x="379" y="411" type="curve" smooth="yes"/>
      <point x="380" y="420"/>
      <point x="376" y="422"/>
    </contour>
    <contour>
      <point x="510" y="538" type="curve"/>
      <point x="460" y="387"/>
      <point x="409" y="238"/>
      <point x="360" y="88" type="curve"/>
      <point x="340" y="34"/>
      <point x="335" y="17"/>
      <point x="323" y="0" type="curve"/>
      <point x="423" y="0" type="line"/>
      <point x="494" y="175"/>
      <point x="564" y="350"/>
      <point x="633" y="525" type="curve"/>
      <point x="635" y="531"/>
      <point x="635" y="533"/>
      <point x="633" y="535" type="curve" smooth="yes"/>
      <point x="632" y="537"/>
      <point x="631" y="538"/>
      <point x="627" y="538" type="curve"/>
      <point x="589" y="538"/>
      <point x="549" y="538"/>
    </contour>
    <contour>
      <point x="368" y="549" type="move" name="top"/>
    </contour>
  </outline>
</glyph>
<glyph name="x" format="1">
  <advance width="600"/>
  <unicode hex="0078"/>
  <outline>
    <contour>
      <point x="359" y="0" type="curve" smooth="yes"/>
      <point x="406" y="0"/>
      <point x="441" y="0"/>
      <point x="488" y="0" type="curve"/>
      <point x="449" y="102"/>
      <point x="410" y="203"/>
      <point x="372" y="304" type="curve" smooth="yes"/>
      <point x="367" y="316"/>
      <point x="352" y="321"/>
      <point x="347" y="333" type="curve" smooth="yes"/>
      <point x="324" y="397"/>
      <point x="300" y="462"/>
      <point x="277" y="527" type="curve" smooth="yes"/>
      <point x="273" y="534"/>
      <point x="269" y="538"/>
      <point x="260" y="538" type="curve" smooth="yes"/>
      <point x="214" y="538"/>
      <point x="177" y="538"/>
      <point x="131" y="538" type="curve"/>
      <point x="167" y="439"/>
      <point x="203" y="342"/>
      <point x="240" y="243" type="curve" smooth="yes"/>
      <point x="247" y="230"/>
      <point x="262" y="225"/>
      <point x="268" y="211" type="curve" smooth="yes"/>
      <point x="293" y="144"/>
      <point x="317" y="77"/>
      <point x="342" y="11" type="curve" smooth="yes"/>
      <point x="345" y="3"/>
      <point x="351" y="0"/>
    </contour>
    <contour>
      <point x="613" y="538" type="curve" smooth="yes"/>
      <point x="470" y="538" type="line"/>
      <point x="411" y="465"/>
      <point x="355" y="395"/>
      <point x="296" y="322" type="curve" smooth="yes"/>
      <point x="282" y="303"/>
      <point x="262" y="323"/>
      <point x="246" y="306" type="curve" smooth="yes"/>
      <point x="163" y="213"/>
      <point x="79" y="120"/>
      <point x="-4" y="27" type="curve" smooth="yes"/>
      <point x="-12" y="18"/>
      <point x="-14" y="14"/>
      <point x="-15" y="10" type="curve" smooth="yes"/>
      <point x="-17" y="4"/>
      <point x="-14" y="0"/>
      <point x="-6" y="0" type="curve" smooth="yes"/>
      <point x="141" y="0" type="line"/>
      <point x="200" y="73"/>
      <point x="259" y="145"/>
      <point x="318" y="218" type="curve" smooth="yes"/>
      <point x="336" y="241"/>
      <point x="348" y="218"/>
      <point x="368" y="239" type="curve" smooth="yes"/>
      <point x="450" y="332"/>
      <point x="532" y="424"/>
      <point x="616" y="516" type="curve" smooth="yes"/>
      <point x="620" y="521"/>
      <point x="622" y="525"/>
      <point x="623" y="528" type="curve" smooth="yes"/>
      <point x="623" y="535"/>
      <point x="619" y="538"/>
    </contour>
  </outline>
</glyph>
<glyph name="y" format="1">
  <advance width="600"/>
  <unicode hex="0079"/>
  <outline>
    <contour>
      <point x="146" y="538" type="curve"/>
      <point x="139" y="510"/>
      <point x="131" y="477"/>
      <point x="122" y="445" type="curve" smooth="yes"/>
      <point x="52" y="160" type="line"/>
      <point x="40" y="117"/>
      <point x="119" y="94"/>
      <point x="184" y="129" type="curve"/>
      <point x="186" y="146"/>
      <point x="191" y="163"/>
      <point x="198" y="191" type="curve" smooth="yes"/>
      <point x="282" y="527" type="line" smooth="yes"/>
      <point x="284" y="533"/>
      <point x="280" y="538"/>
      <point x="274" y="538" type="curve" smooth="yes"/>
      <point x="230" y="538"/>
      <point x="188" y="538"/>
    </contour>
    <contour>
      <point x="156" y="2" type="curve" smooth="yes"/>
      <point x="221" y="2"/>
      <point x="277" y="28"/>
      <point x="354" y="105" type="curve" smooth="yes"/>
      <point x="386" y="136"/>
      <point x="406" y="188"/>
      <point x="397" y="247" type="curve"/>
      <point x="324" y="170"/>
      <point x="277" y="143"/>
      <point x="230" y="143" type="curve" smooth="yes"/>
      <point x="196" y="143"/>
      <point x="189" y="158"/>
      <point x="198" y="191" type="curve"/>
      <point x="82" y="191"/>
      <point x="56" y="177"/>
      <point x="52" y="160" type="curve" smooth="yes"/>
      <point x="32" y="80"/>
      <point x="57" y="2"/>
    </contour>
    <contour>
      <point x="452" y="-16" type="curve" smooth="yes"/>
      <point x="590" y="527" type="line" smooth="yes"/>
      <point x="592" y="534"/>
      <point x="588" y="538"/>
      <point x="582" y="538" type="curve" smooth="yes"/>
      <point x="540" y="538"/>
      <point x="500" y="538"/>
      <point x="459" y="538" type="curve"/>
      <point x="328" y="14" type="line" smooth="yes"/>
      <point x="307" y="-69"/>
      <point x="291" y="-111"/>
      <point x="270" y="-148" type="curve"/>
      <point x="357" y="-152"/>
      <point x="424" y="-128"/>
    </contour>
    <contour>
      <point x="160" y="-122" type="curve" smooth="yes"/>
      <point x="102" y="-122"/>
      <point x="59" y="-113"/>
      <point x="13" y="-91" type="curve"/>
      <point x="-5" y="-91" type="line"/>
      <point x="-15" y="-131"/>
      <point x="-24" y="-164"/>
      <point x="-33" y="-204" type="curve" smooth="yes"/>
      <point x="-35" y="-208"/>
      <point x="-34" y="-211"/>
      <point x="-32" y="-213" type="curve" smooth="yes"/>
      <point x="-21" y="-228"/>
      <point x="48" y="-250"/>
      <point x="153" y="-250" type="curve" smooth="yes"/>
      <point x="312" y="-250"/>
      <point x="411" y="-182"/>
      <point x="452" y="-16" type="curve" smooth="yes"/>
      <point x="458" y="2"/>
      <point x="414" y="16"/>
      <point x="328" y="14" type="curve"/>
      <point x="303" y="-82"/>
      <point x="253" y="-122"/>
    </contour>
  </outline>
</glyph>
<glyph name="z" format="1">
  <advance width="600"/>
  <unicode hex="007A"/>
  <outline>
    <contour>
      <point x="141" y="538" type="line"/>
      <point x="131" y="501"/>
      <point x="122" y="464"/>
      <point x="113" y="426" type="curve" smooth="yes"/>
      <point x="112" y="423"/>
      <point x="112" y="420"/>
      <point x="114" y="418" type="curve" smooth="yes"/>
      <point x="115" y="416"/>
      <point x="118" y="415"/>
      <point x="121" y="415" type="curve" smooth="yes"/>
      <point x="419" y="415" type="line" smooth="yes"/>
      <point x="468" y="415"/>
      <point x="522" y="417"/>
      <point x="570" y="426" type="curve"/>
      <point x="594" y="527" type="line" smooth="yes"/>
      <point x="595" y="530"/>
      <point x="595" y="533"/>
      <point x="593" y="535" type="curve" smooth="yes"/>
      <point x="592" y="537"/>
      <point x="589" y="538"/>
      <point x="586" y="538" type="curve" smooth="yes"/>
    </contour>
    <contour>
      <point x="435" y="457" type="curve"/>
      <point x="299" y="341"/>
      <point x="167" y="227"/>
      <point x="32" y="111" type="curve"/>
      <point x="13" y="28"/>
      <point x="137" y="51"/>
      <point x="185" y="85" type="curve" smooth="yes"/>
      <point x="326" y="210"/>
      <point x="569" y="425"/>
      <point x="570" y="426" type="curve"/>
      <point x="575" y="447"/>
      <point x="525" y="457"/>
    </contour>
    <contour>
      <point x="461" y="0" type="line"/>
      <point x="471" y="39"/>
      <point x="479" y="74"/>
      <point x="489" y="112" type="curve"/>
      <point x="491" y="118"/>
      <point x="487" y="123"/>
      <point x="481" y="123" type="curve" smooth="yes"/>
      <point x="186" y="123" type="line" smooth="yes"/>
      <point x="136" y="123"/>
      <point x="85" y="122"/>
      <point x="32" y="111" type="curve"/>
      <point x="7" y="11" type="line" smooth="yes"/>
      <point x="6" y="8"/>
      <point x="6" y="5"/>
      <point x="8" y="3" type="curve" smooth="yes"/>
      <point x="10" y="1"/>
      <point x="13" y="0"/>
      <point x="16" y="0" type="curve" smooth="yes"/>
    </contour>
    <contour>
      <point x="370" y="549" type="move" name="top"/>
    </contour>
  </outline>
</glyph>
<glyph name="braceleft" format="1">
  <advance width="600"/>
  <unicode hex="007B"/>
  <outline>
    <contour>
      <point x="481" y="634" type="curve" smooth="yes"/>
      <point x="550" y="634"/>
      <point x="533" y="634"/>
      <point x="590" y="634" type="curve"/>
      <point x="610" y="634" type="line"/>
      <point x="619" y="672"/>
      <point x="629" y="710"/>
      <point x="638" y="749" type="curve"/>
      <point x="640" y="756"/>
      <point x="637" y="760"/>
      <point x="630" y="760" type="curve" smooth="yes"/>
      <point x="455" y="760" type="line" smooth="yes"/>
      <point x="372" y="760"/>
      <point x="328" y="697"/>
      <point x="318" y="659" type="curve" smooth="yes"/>
      <point x="317" y="655" type="line" smooth="yes"/>
      <point x="315" y="646"/>
      <point x="321" y="640"/>
      <point x="436" y="601" type="curve"/>
      <point x="444" y="627"/>
      <point x="455" y="634"/>
    </contour>
    <contour>
      <point x="453" y="443" type="curve" smooth="yes"/>
      <point x="474" y="527"/>
      <point x="425" y="556"/>
      <point x="435" y="596" type="curve" smooth="yes"/>
      <point x="436" y="601"/>
      <point x="449" y="652"/>
      <point x="454" y="671" type="curve"/>
      <point x="325" y="669"/>
      <point x="320" y="665"/>
      <point x="318" y="659" type="curve" smooth="yes"/>
      <point x="307" y="615" type="line" smooth="yes"/>
      <point x="285" y="524"/>
      <point x="336" y="506"/>
      <point x="321" y="444" type="curve" smooth="yes"/>
      <point x="307" y="391"/>
      <point x="242" y="363"/>
      <point x="133" y="363" type="curve" smooth="yes"/>
      <point x="101" y="363" type="line"/>
      <point x="81" y="281" type="line" smooth="yes"/>
      <point x="78" y="272"/>
      <point x="82" y="269"/>
      <point x="90" y="269" type="curve" smooth="yes"/>
      <point x="110" y="269" type="line" smooth="yes"/>
      <point x="329" y="269"/>
      <point x="429" y="348"/>
    </contour>
    <contour>
      <point x="381" y="156" type="curve" smooth="yes"/>
      <point x="406" y="255"/>
      <point x="346" y="331"/>
      <point x="125" y="331" type="curve" smooth="yes"/>
      <point x="114" y="331"/>
      <point x="104" y="331"/>
      <point x="93" y="331" type="curve"/>
      <point x="72" y="248" type="line" smooth="yes"/>
      <point x="71" y="241"/>
      <point x="74" y="237"/>
      <point x="81" y="237" type="curve" smooth="yes"/>
      <point x="102" y="237" type="line" smooth="yes"/>
      <point x="211" y="237"/>
      <point x="261" y="205"/>
      <point x="248" y="154" type="curve" smooth="yes"/>
      <point x="233" y="93"/>
      <point x="172" y="75"/>
      <point x="149" y="-16" type="curve" smooth="yes"/>
      <point x="139" y="-60" type="line" smooth="yes"/>
      <point x="137" y="-66"/>
      <point x="140" y="-70"/>
      <point x="268" y="-71" type="curve"/>
      <point x="275" y="-46"/>
      <point x="281" y="-22"/>
      <point x="287" y="3" type="curve" smooth="yes"/>
      <point x="297" y="43"/>
      <point x="360" y="72"/>
    </contour>
    <contour>
      <point x="314" y="-35" type="curve" smooth="yes"/>
      <point x="288" y="-35"/>
      <point x="280" y="-28"/>
      <point x="285" y="-2" type="curve"/>
      <point x="152" y="-41"/>
      <point x="142" y="-47"/>
      <point x="140" y="-56" type="curve" smooth="yes"/>
      <point x="139" y="-60" type="line" smooth="yes"/>
      <point x="129" y="-98"/>
      <point x="142" y="-161"/>
      <point x="225" y="-161" type="curve" smooth="yes"/>
      <point x="400" y="-161" type="line" smooth="yes"/>
      <point x="407" y="-161"/>
      <point x="412" y="-157"/>
      <point x="414" y="-150" type="curve"/>
      <point x="442" y="-35" type="line"/>
      <point x="422" y="-35" type="line"/>
      <point x="365" y="-35"/>
      <point x="382" y="-35"/>
    </contour>
  </outline>
</glyph>
<glyph name="bar" format="1">
  <advance width="600"/>
  <unicode hex="007C"/>
  <outline>
    <contour>
      <point x="352" y="760" type="curve"/>
      <point x="343" y="725"/>
      <point x="335" y="690"/>
      <point x="326" y="654" type="curve" smooth="yes"/>
      <point x="125" y="-149" type="line" smooth="yes"/>
      <point x="123" y="-155"/>
      <point x="127" y="-160"/>
      <point x="133" y="-160" type="curve" smooth="yes"/>
      <point x="177" y="-160"/>
      <point x="220" y="-160"/>
      <point x="263" y="-160" type="curve"/>
      <point x="491" y="749" type="line" smooth="yes"/>
      <point x="491" y="752"/>
      <point x="491" y="755"/>
      <point x="490" y="757" type="curve" smooth="yes"/>
      <point x="488" y="759"/>
      <point x="485" y="760"/>
      <point x="482" y="760" type="curve" smooth="yes"/>
      <point x="439" y="760"/>
      <point x="396" y="760"/>
    </contour>
  </outline>
</glyph>
<glyph name="braceright" format="1">
  <advance width="600"/>
  <unicode hex="007D"/>
  <outline>
    <contour>
      <point x="135" y="-35" type="curve" smooth="yes"/>
      <point x="66" y="-35"/>
      <point x="83" y="-35"/>
      <point x="26" y="-35" type="curve"/>
      <point x="6" y="-35" type="line"/>
      <point x="-4" y="-73"/>
      <point x="-13" y="-111"/>
      <point x="-23" y="-150" type="curve"/>
      <point x="-25" y="-157"/>
      <point x="-22" y="-161"/>
      <point x="-15" y="-161" type="curve" smooth="yes"/>
      <point x="161" y="-161" type="line" smooth="yes"/>
      <point x="243" y="-161"/>
      <point x="288" y="-98"/>
      <point x="297" y="-60" type="curve" smooth="yes"/>
      <point x="298" y="-56" type="line" smooth="yes"/>
      <point x="300" y="-47"/>
      <point x="294" y="-41"/>
      <point x="180" y="-2" type="curve"/>
      <point x="172" y="-28"/>
      <point x="161" y="-35"/>
    </contour>
    <contour>
      <point x="162" y="156" type="curve" smooth="yes"/>
      <point x="141" y="72"/>
      <point x="190" y="43"/>
      <point x="180" y="3" type="curve" smooth="yes"/>
      <point x="179" y="-2"/>
      <point x="166" y="-53"/>
      <point x="161" y="-72" type="curve"/>
      <point x="291" y="-70"/>
      <point x="296" y="-66"/>
      <point x="297" y="-60" type="curve" smooth="yes"/>
      <point x="308" y="-16" type="line" smooth="yes"/>
      <point x="331" y="75"/>
      <point x="279" y="93"/>
      <point x="295" y="155" type="curve" smooth="yes"/>
      <point x="308" y="208"/>
      <point x="373" y="236"/>
      <point x="482" y="236" type="curve" smooth="yes"/>
      <point x="514" y="236" type="line"/>
      <point x="535" y="318" type="line" smooth="yes"/>
      <point x="537" y="327"/>
      <point x="533" y="330"/>
      <point x="526" y="330" type="curve" smooth="yes"/>
      <point x="506" y="330" type="line" smooth="yes"/>
      <point x="286" y="330"/>
      <point x="186" y="251"/>
    </contour>
    <contour>
      <point x="234" y="443" type="curve" smooth="yes"/>
      <point x="209" y="344"/>
      <point x="269" y="268"/>
      <point x="490" y="268" type="curve" smooth="yes"/>
      <point x="501" y="268"/>
      <point x="511" y="268"/>
      <point x="522" y="268" type="curve"/>
      <point x="543" y="351" type="line" smooth="yes"/>
      <point x="545" y="358"/>
      <point x="542" y="362"/>
      <point x="535" y="362" type="curve" smooth="yes"/>
      <point x="514" y="362" type="line" smooth="yes"/>
      <point x="405" y="362"/>
      <point x="354" y="394"/>
      <point x="367" y="445" type="curve" smooth="yes"/>
      <point x="383" y="506"/>
      <point x="443" y="524"/>
      <point x="466" y="615" type="curve" smooth="yes"/>
      <point x="477" y="659" type="line" smooth="yes"/>
      <point x="478" y="665"/>
      <point x="475" y="669"/>
      <point x="347" y="670" type="curve"/>
      <point x="341" y="645"/>
      <point x="335" y="621"/>
      <point x="328" y="596" type="curve" smooth="yes"/>
      <point x="318" y="556"/>
      <point x="255" y="527"/>
    </contour>
    <contour>
      <point x="302" y="634" type="curve" smooth="yes"/>
      <point x="328" y="634"/>
      <point x="335" y="627"/>
      <point x="330" y="601" type="curve"/>
      <point x="463" y="640"/>
      <point x="474" y="646"/>
      <point x="476" y="655" type="curve" smooth="yes"/>
      <point x="477" y="659" type="line" smooth="yes"/>
      <point x="486" y="697"/>
      <point x="474" y="760"/>
      <point x="391" y="760" type="curve" smooth="yes"/>
      <point x="216" y="760" type="line" smooth="yes"/>
      <point x="209" y="760"/>
      <point x="204" y="756"/>
      <point x="202" y="749" type="curve"/>
      <point x="173" y="634" type="line"/>
      <point x="193" y="634" type="line"/>
      <point x="250" y="634"/>
      <point x="233" y="634"/>
    </contour>
  </outline>
</glyph>
<glyph name="exclamdown" format="1">
  <advance width="600"/>
  <unicode hex="00A1"/>
  <outline>
    <contour>
      <point x="248" y="256" type="line"/>
      <point x="219" y="182"/>
      <point x="190" y="109"/>
      <point x="161" y="36" type="curve"/>
      <point x="114" y="-151" type="line" smooth="yes"/>
      <point x="113" y="-158"/>
      <point x="117" y="-162"/>
      <point x="123" y="-162" type="curve" smooth="yes"/>
      <point x="186" y="-162"/>
      <point x="235" y="-162"/>
      <point x="273" y="-162" type="curve"/>
      <point x="282" y="-124"/>
      <point x="291" y="-89"/>
      <point x="300" y="-52" type="curve" smooth="yes"/>
      <point x="322" y="36" type="line"/>
      <point x="346" y="246"/>
      <point x="346" y="249"/>
      <point x="343" y="253" type="curve" smooth="yes"/>
      <point x="341" y="255"/>
      <point x="339" y="256"/>
      <point x="335" y="256" type="curve"/>
    </contour>
    <contour>
      <point x="276" y="547" type="curve"/>
      <point x="232" y="371" type="line" smooth="yes"/>
      <point x="231" y="365"/>
      <point x="234" y="360"/>
      <point x="240" y="360" type="curve" smooth="yes"/>
      <point x="298" y="360"/>
      <point x="359" y="360"/>
      <point x="416" y="360" type="curve"/>
      <point x="460" y="536" type="line" smooth="yes"/>
      <point x="462" y="542"/>
      <point x="458" y="547"/>
      <point x="452" y="547" type="curve" smooth="yes"/>
      <point x="395" y="547"/>
      <point x="333" y="547"/>
    </contour>
  </outline>
</glyph>
<glyph name="cent" format="1">
  <advance width="600"/>
  <unicode hex="00A2"/>
  <outline>
    <contour>
      <point x="418" y="387" type="line"/>
      <point x="567" y="762" type="line" smooth="yes"/>
      <point x="570" y="771"/>
      <point x="566" y="775"/>
      <point x="560" y="775" type="curve" smooth="yes"/>
      <point x="513" y="775"/>
      <point x="492" y="775"/>
      <point x="443" y="775" type="curve"/>
      <point x="435" y="743"/>
      <point x="427" y="711"/>
      <point x="419" y="679" type="curve"/>
      <point x="354" y="416" type="line" smooth="yes"/>
      <point x="352" y="408"/>
      <point x="354" y="404"/>
      <point x="361" y="402" type="curve" smooth="yes"/>
    </contour>
    <contour>
      <point x="328" y="311" type="line"/>
      <point x="179" y="-64" type="line" smooth="yes"/>
      <point x="176" y="-73"/>
      <point x="180" y="-77"/>
      <point x="186" y="-77" type="curve" smooth="yes"/>
      <point x="234" y="-77"/>
      <point x="254" y="-77"/>
      <point x="303" y="-77" type="curve"/>
      <point x="311" y="-45"/>
      <point x="319" y="-13"/>
      <point x="327" y="19" type="curve"/>
      <point x="393" y="281" type="line" smooth="yes"/>
      <point x="395" y="289"/>
      <point x="393" y="294"/>
      <point x="386" y="296" type="curve" smooth="yes"/>
    </contour>
    <contour>
      <point x="435" y="631" type="curve" smooth="yes"/>
      <point x="270" y="631"/>
      <point x="137" y="531"/>
      <point x="100" y="383" type="curve" smooth="yes"/>
      <point x="82" y="313" type="line" smooth="yes"/>
      <point x="43" y="159"/>
      <point x="116" y="70"/>
      <point x="294" y="70" type="curve" smooth="yes"/>
      <point x="313" y="70"/>
      <point x="320" y="91"/>
      <point x="324" y="202" type="curve"/>
      <point x="229" y="202"/>
      <point x="201" y="240"/>
      <point x="221" y="321" type="curve" smooth="yes"/>
      <point x="236" y="380" type="line" smooth="yes"/>
      <point x="258" y="468"/>
      <point x="319" y="498"/>
      <point x="399" y="498" type="curve" smooth="yes"/>
      <point x="457" y="498"/>
      <point x="501" y="485"/>
      <point x="546" y="463" type="curve"/>
      <point x="565" y="463" type="line"/>
      <point x="575" y="502"/>
      <point x="584" y="541"/>
      <point x="594" y="581" type="curve" smooth="yes"/>
      <point x="595" y="585"/>
      <point x="595" y="588"/>
      <point x="593" y="590" type="curve" smooth="yes"/>
      <point x="581" y="606"/>
      <point x="529" y="631"/>
    </contour>
    <contour>
      <point x="156" y="264" type="curve"/>
      <point x="99" y="132"/>
      <point x="152" y="70"/>
      <point x="294" y="70" type="curve" smooth="yes"/>
      <point x="384" y="70"/>
      <point x="452" y="92"/>
      <point x="473" y="109" type="curve" smooth="yes"/>
      <point x="476" y="111"/>
      <point x="477" y="114"/>
      <point x="478" y="117" type="curve"/>
      <point x="488" y="156"/>
      <point x="498" y="195"/>
      <point x="508" y="235" type="curve"/>
      <point x="489" y="235" type="line"/>
      <point x="432" y="214"/>
      <point x="383" y="202"/>
      <point x="324" y="202" type="curve" smooth="yes"/>
      <point x="244" y="202"/>
      <point x="195" y="224"/>
    </contour>
  </outline>
</glyph>
<glyph name="yen" format="1">
  <advance width="600"/>
  <unicode hex="00A5"/>
  <outline>
    <contour>
      <point x="67" y="465" type="line"/>
      <point x="57" y="425"/>
      <point x="55" y="417"/>
      <point x="45" y="377" type="curve" smooth="yes"/>
      <point x="44" y="374"/>
      <point x="45" y="371"/>
      <point x="46" y="369" type="curve" smooth="yes"/>
      <point x="48" y="367"/>
      <point x="50" y="366"/>
      <point x="53" y="366" type="curve"/>
      <point x="237" y="366" type="line"/>
      <point x="247" y="406"/>
      <point x="249" y="414"/>
      <point x="259" y="454" type="curve" smooth="yes"/>
      <point x="260" y="460"/>
      <point x="256" y="465"/>
      <point x="250" y="465" type="curve"/>
    </contour>
    <contour>
      <point x="437" y="465" type="line"/>
      <point x="427" y="425"/>
      <point x="425" y="417"/>
      <point x="415" y="377" type="curve" smooth="yes"/>
      <point x="413" y="371"/>
      <point x="417" y="366"/>
      <point x="423" y="366" type="curve"/>
      <point x="607" y="366" type="line"/>
      <point x="616" y="406"/>
      <point x="618" y="414"/>
      <point x="628" y="454" type="curve" smooth="yes"/>
      <point x="630" y="460"/>
      <point x="626" y="465"/>
      <point x="620" y="465" type="curve"/>
    </contour>
    <contour>
      <point x="549" y="135" type="line"/>
      <point x="559" y="175"/>
      <point x="560" y="182"/>
      <point x="570" y="222" type="curve" smooth="yes"/>
      <point x="571" y="225"/>
      <point x="571" y="228"/>
      <point x="569" y="230" type="curve" smooth="yes"/>
      <point x="568" y="232"/>
      <point x="565" y="233"/>
      <point x="562" y="233" type="curve"/>
      <point x="9" y="233" type="line"/>
      <point x="-1" y="193"/>
      <point x="-3" y="186"/>
      <point x="-13" y="146" type="curve" smooth="yes"/>
      <point x="-14" y="140"/>
      <point x="-11" y="135"/>
      <point x="-5" y="135" type="curve"/>
    </contour>
    <contour>
      <point x="127" y="700" type="line"/>
      <point x="161" y="549"/>
      <point x="198" y="398"/>
      <point x="231" y="246" type="curve"/>
      <point x="232" y="237"/>
      <point x="239" y="234"/>
      <point x="248" y="234" type="curve"/>
      <point x="303" y="234"/>
      <point x="347" y="301"/>
      <point x="340" y="333" type="curve"/>
      <point x="320" y="450"/>
      <point x="298" y="567"/>
      <point x="278" y="684" type="curve"/>
      <point x="278" y="694"/>
      <point x="275" y="700"/>
      <point x="265" y="700" type="curve" smooth="yes"/>
    </contour>
    <contour>
      <point x="540" y="700" type="line"/>
      <point x="460" y="577"/>
      <point x="380" y="455"/>
      <point x="299" y="332" type="curve"/>
      <point x="263" y="278"/>
      <point x="261" y="255"/>
      <point x="248" y="234" type="curve"/>
      <point x="349" y="234" type="line"/>
      <point x="458" y="383"/>
      <point x="568" y="533"/>
      <point x="677" y="682" type="curve"/>
      <point x="683" y="692"/>
      <point x="680" y="700"/>
      <point x="670" y="700" type="curve"/>
    </contour>
    <contour>
      <point x="303" y="0" type="curve"/>
      <point x="312" y="33"/>
      <point x="320" y="67"/>
      <point x="328" y="100" type="curve" smooth="yes"/>
      <point x="376" y="292" type="line" smooth="yes"/>
      <point x="378" y="298"/>
      <point x="374" y="303"/>
      <point x="238" y="303" type="curve"/>
      <point x="165" y="11" type="line" smooth="yes"/>
      <point x="164" y="8"/>
      <point x="164" y="5"/>
      <point x="166" y="3" type="curve" smooth="yes"/>
      <point x="167" y="1"/>
      <point x="170" y="0"/>
      <point x="173" y="0" type="curve" smooth="yes"/>
      <point x="217" y="0"/>
      <point x="260" y="0"/>
    </contour>
  </outline>
</glyph>
<glyph name="brokenbar" format="1">
  <advance width="600"/>
  <unicode hex="00A6"/>
  <outline>
    <contour>
      <point x="352" y="760" type="curve"/>
      <point x="344" y="727"/>
      <point x="336" y="694"/>
      <point x="328" y="661" type="curve" smooth="yes"/>
      <point x="257" y="380" type="line" smooth="yes"/>
      <point x="256" y="374"/>
      <point x="260" y="369"/>
      <point x="266" y="369" type="curve" smooth="yes"/>
      <point x="309" y="369"/>
      <point x="351" y="369"/>
      <point x="396" y="369" type="curve"/>
      <point x="491" y="749" type="line" smooth="yes"/>
      <point x="491" y="752"/>
      <point x="491" y="755"/>
      <point x="490" y="757" type="curve" smooth="yes"/>
      <point x="488" y="759"/>
      <point x="485" y="760"/>
      <point x="482" y="760" type="curve" smooth="yes"/>
      <point x="438" y="760"/>
      <point x="395" y="760"/>
    </contour>
    <contour>
      <point x="220" y="231" type="curve"/>
      <point x="125" y="-149" type="line"/>
      <point x="123" y="-155"/>
      <point x="127" y="-160"/>
      <point x="133" y="-160" type="curve" smooth="yes"/>
      <point x="176" y="-160"/>
      <point x="219" y="-160"/>
      <point x="263" y="-160" type="curve"/>
      <point x="358" y="220" type="line" smooth="yes"/>
      <point x="360" y="227"/>
      <point x="357" y="231"/>
      <point x="350" y="231" type="curve" smooth="yes"/>
      <point x="306" y="231"/>
      <point x="263" y="231"/>
    </contour>
  </outline>
</glyph>
<glyph name="copyright" format="1">
  <advance width="600"/>
  <unicode hex="00A9"/>
  <outline>
    <contour>
      <point x="412" y="715" type="curve" smooth="yes"/>
      <point x="244" y="715"/>
      <point x="102" y="616"/>
      <point x="55" y="430" type="curve" smooth="yes"/>
      <point x="15" y="271" type="line" smooth="yes"/>
      <point x="-32" y="84"/>
      <point x="54" y="-15"/>
      <point x="229" y="-15" type="curve" smooth="yes"/>
      <point x="231" y="-12"/>
      <point x="256" y="18"/>
      <point x="244" y="44" type="curve"/>
      <point x="105" y="44"/>
      <point x="42" y="127"/>
      <point x="74" y="255" type="curve" smooth="yes"/>
      <point x="122" y="446" type="line" smooth="yes"/>
      <point x="154" y="574"/>
      <point x="258" y="656"/>
      <point x="397" y="656" type="curve" smooth="yes"/>
      <point x="460" y="656"/>
      <point x="497" y="649"/>
      <point x="545" y="627" type="curve"/>
      <point x="580" y="670"/>
      <point x="521" y="715"/>
    </contour>
    <contour>
      <point x="229" y="-15" type="curve" smooth="yes"/>
      <point x="397" y="-15"/>
      <point x="539" y="84"/>
      <point x="586" y="270" type="curve" smooth="yes"/>
      <point x="625" y="429" type="line" smooth="yes"/>
      <point x="672" y="616"/>
      <point x="586" y="715"/>
      <point x="412" y="715" type="curve" smooth="yes"/>
      <point x="410" y="712"/>
      <point x="385" y="682"/>
      <point x="397" y="656" type="curve"/>
      <point x="535" y="656"/>
      <point x="599" y="573"/>
      <point x="566" y="445" type="curve" smooth="yes"/>
      <point x="519" y="254" type="line" smooth="yes"/>
      <point x="487" y="126"/>
      <point x="382" y="44"/>
      <point x="244" y="44" type="curve" smooth="yes"/>
      <point x="181" y="44"/>
      <point x="144" y="51"/>
      <point x="96" y="73" type="curve"/>
      <point x="61" y="30"/>
      <point x="120" y="-15"/>
    </contour>
    <contour>
      <point x="364" y="491" type="curve" smooth="yes"/>
      <point x="399" y="491"/>
      <point x="410" y="476"/>
      <point x="421" y="450" type="curve"/>
      <point x="472" y="495"/>
      <point x="479" y="504"/>
      <point x="481" y="511" type="curve" smooth="yes"/>
      <point x="482" y="516"/>
      <point x="482" y="518"/>
      <point x="479" y="522" type="curve" smooth="yes"/>
      <point x="462" y="549"/>
      <point x="430" y="566"/>
      <point x="382" y="566" type="curve" smooth="yes"/>
      <point x="294" y="566"/>
      <point x="230" y="516"/>
      <point x="208" y="428" type="curve" smooth="yes"/>
      <point x="169" y="273" type="line" smooth="yes"/>
      <point x="162" y="244"/>
      <point x="186" y="211"/>
      <point x="237" y="211" type="curve"/>
      <point x="243" y="234"/>
      <point x="247" y="251"/>
      <point x="253" y="276" type="curve" smooth="yes"/>
      <point x="291" y="429" type="line" smooth="yes"/>
      <point x="301" y="469"/>
      <point x="325" y="491"/>
    </contour>
    <contour>
      <point x="273" y="134" type="curve" smooth="yes"/>
      <point x="320" y="134"/>
      <point x="367" y="149"/>
      <point x="393" y="173" type="curve"/>
      <point x="397" y="178"/>
      <point x="399" y="179"/>
      <point x="400" y="186" type="curve" smooth="yes"/>
      <point x="406" y="209"/>
      <point x="412" y="232"/>
      <point x="419" y="259" type="curve"/>
      <point x="408" y="259" type="line"/>
      <point x="372" y="227"/>
      <point x="341" y="212"/>
      <point x="298" y="212" type="curve" smooth="yes"/>
      <point x="255" y="212"/>
      <point x="242" y="230"/>
      <point x="253" y="276" type="curve"/>
      <point x="188" y="288"/>
      <point x="171" y="281"/>
      <point x="169" y="273" type="curve" smooth="yes"/>
      <point x="148" y="187"/>
      <point x="178" y="134"/>
    </contour>
    <contour>
      <point x="459" y="421" type="curve"/>
      <point x="481" y="511" type="line" smooth="yes"/>
      <point x="483" y="519"/>
      <point x="466" y="522"/>
      <point x="407" y="522" type="curve"/>
      <point x="405" y="515"/>
      <point x="404" y="511"/>
      <point x="403" y="506" type="curve" smooth="yes"/>
      <point x="385" y="432" type="line" smooth="yes"/>
      <point x="383" y="425"/>
      <point x="385" y="421"/>
      <point x="393" y="421" type="curve" smooth="yes"/>
      <point x="416" y="421"/>
      <point x="433" y="421"/>
    </contour>
  </outline>
</glyph>
